<?xml version="1.0" encoding="UTF-8" standalone="no"?>
<!DOCTYPE svg PUBLIC "-//W3C//DTD SVG 1.1//EN"
 "http://www.w3.org/Graphics/SVG/1.1/DTD/svg11.dtd">
<!-- Generated by graphviz version 2.40.1 (20161225.0304)
 -->
<!-- Title: %3 Pages: 1 -->
<svg width="590pt" height="332pt"
 viewBox="0.00 0.00 590.07 332.00" xmlns="http://www.w3.org/2000/svg" xmlns:xlink="http://www.w3.org/1999/xlink">
<g id="graph0" class="graph" transform="scale(1 1) rotate(0) translate(4 328)">
<title>%3</title>
<polygon fill="#ffffff" stroke="transparent" points="-4,4 -4,-328 586.075,-328 586.075,4 -4,4"/>
<!-- [root] aws_instance.ubuntu_vm_1 -->
<g id="node1" class="node">
<title>[root] aws_instance.ubuntu_vm_1</title>
<polygon fill="none" stroke="#000000" points="317.7843,-180 149.7843,-180 149.7843,-144 317.7843,-144 317.7843,-180"/>
<text text-anchor="middle" x="233.7843" y="-158.3" font-family="Times,serif" font-size="14.00" fill="#000000">aws_instance.ubuntu_vm_1</text>
</g>
<!-- [root] provider.aws -->
<g id="node3" class="node">
<title>[root] provider.aws</title>
<polygon fill="none" stroke="#000000" points="326.7843,-108 246.8509,-90 326.7843,-72 406.7177,-90 326.7843,-108"/>
<text text-anchor="middle" x="326.7843" y="-86.3" font-family="Times,serif" font-size="14.00" fill="#000000">provider.aws</text>
</g>
<!-- [root] aws_instance.ubuntu_vm_1&#45;&gt;[root] provider.aws -->
<g id="edge1" class="edge">
<title>[root] aws_instance.ubuntu_vm_1&#45;&gt;[root] provider.aws</title>
<path fill="none" stroke="#000000" d="M257.2521,-143.8314C270.4422,-133.6197 286.9401,-120.8472 300.5551,-110.3065"/>
<polygon fill="#000000" stroke="#000000" points="302.8399,-112.964 308.6045,-104.0747 298.5547,-107.4289 302.8399,-112.964"/>
</g>
<!-- [root] aws_instance.ubuntu_vm_2 -->
<g id="node2" class="node">
<title>[root] aws_instance.ubuntu_vm_2</title>
<polygon fill="none" stroke="#000000" points="503.7843,-180 335.7843,-180 335.7843,-144 503.7843,-144 503.7843,-180"/>
<text text-anchor="middle" x="419.7843" y="-158.3" font-family="Times,serif" font-size="14.00" fill="#000000">aws_instance.ubuntu_vm_2</text>
</g>
<!-- [root] aws_instance.ubuntu_vm_2&#45;&gt;[root] provider.aws -->
<g id="edge2" class="edge">
<title>[root] aws_instance.ubuntu_vm_2&#45;&gt;[root] provider.aws</title>
<path fill="none" stroke="#000000" d="M396.3165,-143.8314C383.1264,-133.6197 366.6286,-120.8472 353.0135,-110.3065"/>
<polygon fill="#000000" stroke="#000000" points="355.014,-107.4289 344.9641,-104.0747 350.7287,-112.964 355.014,-107.4289"/>
</g>
<!-- [root] var.ACCESS_KEY_ID -->
<g id="node4" class="node">
<title>[root] var.ACCESS_KEY_ID</title>
<polygon fill="none" stroke="#000000" points="302.7843,-36 164.7843,-36 164.7843,0 308.7843,0 308.7843,-30 302.7843,-36"/>
<polyline fill="none" stroke="#000000" points="302.7843,-36 302.7843,-30 "/>
<polyline fill="none" stroke="#000000" points="308.7843,-30 302.7843,-30 "/>
<text text-anchor="middle" x="236.7843" y="-14.3" font-family="Times,serif" font-size="14.00" fill="#000000">var.ACCESS_KEY_ID</text>
</g>
<!-- [root] provider.aws&#45;&gt;[root] var.ACCESS_KEY_ID -->
<g id="edge7" class="edge">
<title>[root] provider.aws&#45;&gt;[root] var.ACCESS_KEY_ID</title>
<path fill="none" stroke="#000000" d="M309.0032,-75.7751C297.0983,-66.2512 281.1223,-53.4704 267.2233,-42.3512"/>
<polygon fill="#000000" stroke="#000000" points="269.3215,-39.5476 259.3264,-36.0336 264.9486,-45.0137 269.3215,-39.5476"/>
</g>
<!-- [root] var.SECRET_ACCESS_KEY -->
<g id="node5" class="node">
<title>[root] var.SECRET_ACCESS_KEY</title>
<polygon fill="none" stroke="#000000" points="500.7843,-36 326.7843,-36 326.7843,0 506.7843,0 506.7843,-30 500.7843,-36"/>
<polyline fill="none" stroke="#000000" points="500.7843,-36 500.7843,-30 "/>
<polyline fill="none" stroke="#000000" points="506.7843,-30 500.7843,-30 "/>
<text text-anchor="middle" x="416.7843" y="-14.3" font-family="Times,serif" font-size="14.00" fill="#000000">var.SECRET_ACCESS_KEY</text>
</g>
<!-- [root] provider.aws&#45;&gt;[root] var.SECRET_ACCESS_KEY -->
<g id="edge8" class="edge">
<title>[root] provider.aws&#45;&gt;[root] var.SECRET_ACCESS_KEY</title>
<path fill="none" stroke="#000000" d="M344.5654,-75.7751C356.4703,-66.2512 372.4464,-53.4704 386.3453,-42.3512"/>
<polygon fill="#000000" stroke="#000000" points="388.62,-45.0137 394.2423,-36.0336 384.2471,-39.5476 388.62,-45.0137"/>
</g>
<!-- [root] meta.count&#45;boundary (EachMode fixup) -->
<g id="node6" class="node">
<title>[root] meta.count&#45;boundary (EachMode fixup)</title>
<ellipse fill="none" stroke="#000000" cx="176.7843" cy="-234" rx="176.5689" ry="18"/>
<text text-anchor="middle" x="176.7843" y="-230.3" font-family="Times,serif" font-size="14.00" fill="#000000">[root] meta.count&#45;boundary (EachMode fixup)</text>
</g>
<!-- [root] meta.count&#45;boundary (EachMode fixup)&#45;&gt;[root] aws_instance.ubuntu_vm_1 -->
<g id="edge3" class="edge">
<title>[root] meta.count&#45;boundary (EachMode fixup)&#45;&gt;[root] aws_instance.ubuntu_vm_1</title>
<path fill="none" stroke="#000000" d="M191.1678,-215.8314C197.7329,-207.5386 205.635,-197.557 212.8421,-188.4533"/>
<polygon fill="#000000" stroke="#000000" points="215.7442,-190.4262 219.2071,-180.4133 210.2559,-186.0813 215.7442,-190.4262"/>
</g>
<!-- [root] meta.count&#45;boundary (EachMode fixup)&#45;&gt;[root] aws_instance.ubuntu_vm_2 -->
<g id="edge4" class="edge">
<title>[root] meta.count&#45;boundary (EachMode fixup)&#45;&gt;[root] aws_instance.ubuntu_vm_2</title>
<path fill="none" stroke="#000000" d="M234.3719,-216.937C268.6246,-206.7881 312.3511,-193.8321 348.737,-183.0511"/>
<polygon fill="#000000" stroke="#000000" points="350.1974,-186.2688 358.7911,-180.0721 348.2087,-179.5572 350.1974,-186.2688"/>
</g>
<!-- [root] provider.aws (close) -->
<g id="node7" class="node">
<title>[root] provider.aws (close)</title>
<ellipse fill="none" stroke="#000000" cx="476.7843" cy="-234" rx="105.0817" ry="18"/>
<text text-anchor="middle" x="476.7843" y="-230.3" font-family="Times,serif" font-size="14.00" fill="#000000">[root] provider.aws (close)</text>
</g>
<!-- [root] provider.aws (close)&#45;&gt;[root] aws_instance.ubuntu_vm_1 -->
<g id="edge5" class="edge">
<title>[root] provider.aws (close)&#45;&gt;[root] aws_instance.ubuntu_vm_1</title>
<path fill="none" stroke="#000000" d="M424.0569,-218.3771C389.0758,-208.0123 342.7541,-194.2874 304.5741,-182.9748"/>
<polygon fill="#000000" stroke="#000000" points="305.1299,-179.4891 294.5476,-180.0039 303.1412,-186.2007 305.1299,-179.4891"/>
</g>
<!-- [root] provider.aws (close)&#45;&gt;[root] aws_instance.ubuntu_vm_2 -->
<g id="edge6" class="edge">
<title>[root] provider.aws (close)&#45;&gt;[root] aws_instance.ubuntu_vm_2</title>
<path fill="none" stroke="#000000" d="M462.4008,-215.8314C455.8357,-207.5386 447.9336,-197.557 440.7265,-188.4533"/>
<polygon fill="#000000" stroke="#000000" points="443.3127,-186.0813 434.3615,-180.4133 437.8244,-190.4262 443.3127,-186.0813"/>
</g>
<!-- [root] root -->
<g id="node8" class="node">
<title>[root] root</title>
<ellipse fill="none" stroke="#000000" cx="326.7843" cy="-306" rx="47.3916" ry="18"/>
<text text-anchor="middle" x="326.7843" y="-302.3" font-family="Times,serif" font-size="14.00" fill="#000000">[root] root</text>
</g>
<!-- [root] root&#45;&gt;[root] meta.count&#45;boundary (EachMode fixup) -->
<g id="edge9" class="edge">
<title>[root] root&#45;&gt;[root] meta.count&#45;boundary (EachMode fixup)</title>
<path fill="none" stroke="#000000" d="M297.1491,-291.7751C275.8752,-281.5636 246.8009,-267.608 222.5569,-255.9708"/>
<polygon fill="#000000" stroke="#000000" points="224.0578,-252.809 213.5279,-251.6369 221.0286,-259.1196 224.0578,-252.809"/>
</g>
<!-- [root] root&#45;&gt;[root] provider.aws (close) -->
<g id="edge10" class="edge">
<title>[root] root&#45;&gt;[root] provider.aws (close)</title>
<path fill="none" stroke="#000000" d="M356.4195,-291.7751C378.072,-281.3819 407.8049,-267.1101 432.3013,-255.3519"/>
<polygon fill="#000000" stroke="#000000" points="433.9049,-258.4645 441.4056,-250.9818 430.8758,-252.1538 433.9049,-258.4645"/>
</g>
</g>
</svg>
