<?xml version="1.0" encoding="UTF-8" standalone="no"?>
<!DOCTYPE svg PUBLIC "-//W3C//DTD SVG 1.1//EN"
 "http://www.w3.org/Graphics/SVG/1.1/DTD/svg11.dtd">
<!-- Generated by graphviz version 2.40.1 (20161225.0304)
 -->
<!-- Title: %3 Pages: 1 -->
<svg width="520pt" height="476pt"
 viewBox="0.00 0.00 520.29 476.00" xmlns="http://www.w3.org/2000/svg" xmlns:xlink="http://www.w3.org/1999/xlink">
<g id="graph0" class="graph" transform="scale(1 1) rotate(0) translate(4 472)">
<title>%3</title>
<polygon fill="#ffffff" stroke="transparent" points="-4,4 -4,-472 516.2907,-472 516.2907,4 -4,4"/>
<!-- [root] aws_instance.ubuntu&#45;vm -->
<g id="node1" class="node">
<title>[root] aws_instance.ubuntu&#45;vm</title>
<polygon fill="none" stroke="#000000" points="388,-252 236,-252 236,-216 388,-216 388,-252"/>
<text text-anchor="middle" x="312" y="-230.3" font-family="Times,serif" font-size="14.00" fill="#000000">aws_instance.ubuntu&#45;vm</text>
</g>
<!-- [root] aws_key_pair.deployer&#45;key -->
<g id="node2" class="node">
<title>[root] aws_key_pair.deployer&#45;key</title>
<polygon fill="none" stroke="#000000" points="395.5,-180 228.5,-180 228.5,-144 395.5,-144 395.5,-180"/>
<text text-anchor="middle" x="312" y="-158.3" font-family="Times,serif" font-size="14.00" fill="#000000">aws_key_pair.deployer&#45;key</text>
</g>
<!-- [root] aws_instance.ubuntu&#45;vm&#45;&gt;[root] aws_key_pair.deployer&#45;key -->
<g id="edge1" class="edge">
<title>[root] aws_instance.ubuntu&#45;vm&#45;&gt;[root] aws_key_pair.deployer&#45;key</title>
<path fill="none" stroke="#000000" d="M312,-215.8314C312,-208.131 312,-198.9743 312,-190.4166"/>
<polygon fill="#000000" stroke="#000000" points="315.5001,-190.4132 312,-180.4133 308.5001,-190.4133 315.5001,-190.4132"/>
</g>
<!-- [root] provider.aws -->
<g id="node4" class="node">
<title>[root] provider.aws</title>
<polygon fill="none" stroke="#000000" points="225,-108 145.0666,-90 225,-72 304.9334,-90 225,-108"/>
<text text-anchor="middle" x="225" y="-86.3" font-family="Times,serif" font-size="14.00" fill="#000000">provider.aws</text>
</g>
<!-- [root] aws_key_pair.deployer&#45;key&#45;&gt;[root] provider.aws -->
<g id="edge2" class="edge">
<title>[root] aws_key_pair.deployer&#45;key&#45;&gt;[root] provider.aws</title>
<path fill="none" stroke="#000000" d="M290.0462,-143.8314C277.9061,-133.7844 262.7706,-121.2585 250.1553,-110.8182"/>
<polygon fill="#000000" stroke="#000000" points="252.2214,-107.9849 242.2859,-104.3056 247.7584,-113.3777 252.2214,-107.9849"/>
</g>
<!-- [root] var.PUBLIC_SSH_KEY -->
<g id="node7" class="node">
<title>[root] var.PUBLIC_SSH_KEY</title>
<polygon fill="none" stroke="#000000" points="469,-108 323,-108 323,-72 475,-72 475,-102 469,-108"/>
<polyline fill="none" stroke="#000000" points="469,-108 469,-102 "/>
<polyline fill="none" stroke="#000000" points="475,-102 469,-102 "/>
<text text-anchor="middle" x="399" y="-86.3" font-family="Times,serif" font-size="14.00" fill="#000000">var.PUBLIC_SSH_KEY</text>
</g>
<!-- [root] aws_key_pair.deployer&#45;key&#45;&gt;[root] var.PUBLIC_SSH_KEY -->
<g id="edge3" class="edge">
<title>[root] aws_key_pair.deployer&#45;key&#45;&gt;[root] var.PUBLIC_SSH_KEY</title>
<path fill="none" stroke="#000000" d="M333.9538,-143.8314C344.6695,-134.9632 357.7189,-124.1637 369.309,-114.5718"/>
<polygon fill="#000000" stroke="#000000" points="371.5808,-117.2349 377.0533,-108.1628 367.1178,-111.8422 371.5808,-117.2349"/>
</g>
<!-- [root] output.public_ip -->
<g id="node3" class="node">
<title>[root] output.public_ip</title>
<polygon fill="none" stroke="#000000" points="271,-324 171,-324 171,-288 277,-288 277,-318 271,-324"/>
<polyline fill="none" stroke="#000000" points="271,-324 271,-318 "/>
<polyline fill="none" stroke="#000000" points="277,-318 271,-318 "/>
<text text-anchor="middle" x="224" y="-302.3" font-family="Times,serif" font-size="14.00" fill="#000000">output.public_ip</text>
</g>
<!-- [root] output.public_ip&#45;&gt;[root] aws_instance.ubuntu&#45;vm -->
<g id="edge5" class="edge">
<title>[root] output.public_ip&#45;&gt;[root] aws_instance.ubuntu&#45;vm</title>
<path fill="none" stroke="#000000" d="M246.2061,-287.8314C257.045,-278.9632 270.2444,-268.1637 281.9678,-258.5718"/>
<polygon fill="#000000" stroke="#000000" points="284.2777,-261.2041 289.801,-252.1628 279.845,-255.7864 284.2777,-261.2041"/>
</g>
<!-- [root] var.ACCESS_KEY_ID -->
<g id="node5" class="node">
<title>[root] var.ACCESS_KEY_ID</title>
<polygon fill="none" stroke="#000000" points="138,-36 0,-36 0,0 144,0 144,-30 138,-36"/>
<polyline fill="none" stroke="#000000" points="138,-36 138,-30 "/>
<polyline fill="none" stroke="#000000" points="144,-30 138,-30 "/>
<text text-anchor="middle" x="72" y="-14.3" font-family="Times,serif" font-size="14.00" fill="#000000">var.ACCESS_KEY_ID</text>
</g>
<!-- [root] provider.aws&#45;&gt;[root] var.ACCESS_KEY_ID -->
<g id="edge7" class="edge">
<title>[root] provider.aws&#45;&gt;[root] var.ACCESS_KEY_ID</title>
<path fill="none" stroke="#000000" d="M199.0456,-77.7862C177.405,-67.6024 145.9966,-52.8219 119.8242,-40.5055"/>
<polygon fill="#000000" stroke="#000000" points="120.9848,-37.1836 110.4463,-36.0924 118.0042,-43.5173 120.9848,-37.1836"/>
</g>
<!-- [root] var.AWS_REGION -->
<g id="node6" class="node">
<title>[root] var.AWS_REGION</title>
<polygon fill="none" stroke="#000000" points="282,-36 162,-36 162,0 288,0 288,-30 282,-36"/>
<polyline fill="none" stroke="#000000" points="282,-36 282,-30 "/>
<polyline fill="none" stroke="#000000" points="288,-30 282,-30 "/>
<text text-anchor="middle" x="225" y="-14.3" font-family="Times,serif" font-size="14.00" fill="#000000">var.AWS_REGION</text>
</g>
<!-- [root] provider.aws&#45;&gt;[root] var.AWS_REGION -->
<g id="edge8" class="edge">
<title>[root] provider.aws&#45;&gt;[root] var.AWS_REGION</title>
<path fill="none" stroke="#000000" d="M225,-71.8314C225,-64.131 225,-54.9743 225,-46.4166"/>
<polygon fill="#000000" stroke="#000000" points="228.5001,-46.4132 225,-36.4133 221.5001,-46.4133 228.5001,-46.4132"/>
</g>
<!-- [root] var.SECRET_ACCESS_KEY -->
<g id="node8" class="node">
<title>[root] var.SECRET_ACCESS_KEY</title>
<polygon fill="none" stroke="#000000" points="480,-36 306,-36 306,0 486,0 486,-30 480,-36"/>
<polyline fill="none" stroke="#000000" points="480,-36 480,-30 "/>
<polyline fill="none" stroke="#000000" points="486,-30 480,-30 "/>
<text text-anchor="middle" x="396" y="-14.3" font-family="Times,serif" font-size="14.00" fill="#000000">var.SECRET_ACCESS_KEY</text>
</g>
<!-- [root] provider.aws&#45;&gt;[root] var.SECRET_ACCESS_KEY -->
<g id="edge9" class="edge">
<title>[root] provider.aws&#45;&gt;[root] var.SECRET_ACCESS_KEY</title>
<path fill="none" stroke="#000000" d="M252.8547,-78.2717C277.3634,-67.9522 313.7011,-52.6522 343.6311,-40.0501"/>
<polygon fill="#000000" stroke="#000000" points="345.2422,-43.1694 353.1004,-36.063 342.5258,-36.7179 345.2422,-43.1694"/>
</g>
<!-- [root] meta.count&#45;boundary (EachMode fixup) -->
<g id="node9" class="node">
<title>[root] meta.count&#45;boundary (EachMode fixup)</title>
<ellipse fill="none" stroke="#000000" cx="210" cy="-378" rx="176.5689" ry="18"/>
<text text-anchor="middle" x="210" y="-374.3" font-family="Times,serif" font-size="14.00" fill="#000000">[root] meta.count&#45;boundary (EachMode fixup)</text>
</g>
<!-- [root] meta.count&#45;boundary (EachMode fixup)&#45;&gt;[root] output.public_ip -->
<g id="edge4" class="edge">
<title>[root] meta.count&#45;boundary (EachMode fixup)&#45;&gt;[root] output.public_ip</title>
<path fill="none" stroke="#000000" d="M213.5328,-359.8314C215.0301,-352.131 216.8105,-342.9743 218.4745,-334.4166"/>
<polygon fill="#000000" stroke="#000000" points="221.9465,-334.8975 220.4196,-324.4133 215.0752,-333.5614 221.9465,-334.8975"/>
</g>
<!-- [root] provider.aws (close) -->
<g id="node10" class="node">
<title>[root] provider.aws (close)</title>
<ellipse fill="none" stroke="#000000" cx="407" cy="-306" rx="105.0817" ry="18"/>
<text text-anchor="middle" x="407" y="-302.3" font-family="Times,serif" font-size="14.00" fill="#000000">[root] provider.aws (close)</text>
</g>
<!-- [root] provider.aws (close)&#45;&gt;[root] aws_instance.ubuntu&#45;vm -->
<g id="edge6" class="edge">
<title>[root] provider.aws (close)&#45;&gt;[root] aws_instance.ubuntu&#45;vm</title>
<path fill="none" stroke="#000000" d="M383.5168,-288.2022C371.6177,-279.1839 356.9897,-268.0975 344.0702,-258.3059"/>
<polygon fill="#000000" stroke="#000000" points="345.9567,-255.3439 335.8729,-252.0931 341.7285,-260.9228 345.9567,-255.3439"/>
</g>
<!-- [root] root -->
<g id="node11" class="node">
<title>[root] root</title>
<ellipse fill="none" stroke="#000000" cx="312" cy="-450" rx="47.3916" ry="18"/>
<text text-anchor="middle" x="312" y="-446.3" font-family="Times,serif" font-size="14.00" fill="#000000">[root] root</text>
</g>
<!-- [root] root&#45;&gt;[root] meta.count&#45;boundary (EachMode fixup) -->
<g id="edge10" class="edge">
<title>[root] root&#45;&gt;[root] meta.count&#45;boundary (EachMode fixup)</title>
<path fill="none" stroke="#000000" d="M289.3629,-434.0209C276.0179,-424.6009 258.874,-412.4993 243.9371,-401.9556"/>
<polygon fill="#000000" stroke="#000000" points="245.6311,-398.8672 235.443,-395.9597 241.5943,-404.586 245.6311,-398.8672"/>
</g>
<!-- [root] root&#45;&gt;[root] provider.aws (close) -->
<g id="edge11" class="edge">
<title>[root] root&#45;&gt;[root] provider.aws (close)</title>
<path fill="none" stroke="#000000" d="M345.1517,-437.0964C363.2023,-428.2952 384.2023,-414.7952 396,-396 407.5266,-377.6367 409.8342,-352.9809 409.5063,-334.1192"/>
<polygon fill="#000000" stroke="#000000" points="412.9996,-333.8864 409.0768,-324.0445 406.006,-334.1846 412.9996,-333.8864"/>
</g>
</g>
</svg>
