<?xml version="1.0" encoding="UTF-8" standalone="no"?>
<!DOCTYPE svg PUBLIC "-//W3C//DTD SVG 1.1//EN"
 "http://www.w3.org/Graphics/SVG/1.1/DTD/svg11.dtd">
<!-- Generated by graphviz version 2.40.1 (20161225.0304)
 -->
<!-- Title: %3 Pages: 1 -->
<svg width="622pt" height="476pt"
 viewBox="0.00 0.00 621.78 476.00" xmlns="http://www.w3.org/2000/svg" xmlns:xlink="http://www.w3.org/1999/xlink">
<g id="graph0" class="graph" transform="scale(1 1) rotate(0) translate(4 472)">
<title>%3</title>
<polygon fill="#ffffff" stroke="transparent" points="-4,4 -4,-472 617.7843,-472 617.7843,4 -4,4"/>
<!-- [root] aws_ebs_volume.ubuntu&#45;vm&#45;ebs&#45;1 -->
<g id="node1" class="node">
<title>[root] aws_ebs_volume.ubuntu&#45;vm&#45;ebs&#45;1</title>
<polygon fill="none" stroke="#000000" points="313,-180 105,-180 105,-144 313,-144 313,-180"/>
<text text-anchor="middle" x="209" y="-158.3" font-family="Times,serif" font-size="14.00" fill="#000000">aws_ebs_volume.ubuntu&#45;vm&#45;ebs&#45;1</text>
</g>
<!-- [root] provider.aws -->
<g id="node6" class="node">
<title>[root] provider.aws</title>
<polygon fill="none" stroke="#000000" points="225,-108 145.0666,-90 225,-72 304.9334,-90 225,-108"/>
<text text-anchor="middle" x="225" y="-86.3" font-family="Times,serif" font-size="14.00" fill="#000000">provider.aws</text>
</g>
<!-- [root] aws_ebs_volume.ubuntu&#45;vm&#45;ebs&#45;1&#45;&gt;[root] provider.aws -->
<g id="edge1" class="edge">
<title>[root] aws_ebs_volume.ubuntu&#45;vm&#45;ebs&#45;1&#45;&gt;[root] provider.aws</title>
<path fill="none" stroke="#000000" d="M213.0375,-143.8314C214.8207,-135.8068 216.9554,-126.2008 218.9246,-117.3392"/>
<polygon fill="#000000" stroke="#000000" points="222.3767,-117.9389 221.1294,-107.4177 215.5434,-116.4203 222.3767,-117.9389"/>
</g>
<!-- [root] aws_instance.ubuntu&#45;vm -->
<g id="node2" class="node">
<title>[root] aws_instance.ubuntu&#45;vm</title>
<polygon fill="none" stroke="#000000" points="491,-252 339,-252 339,-216 491,-216 491,-252"/>
<text text-anchor="middle" x="415" y="-230.3" font-family="Times,serif" font-size="14.00" fill="#000000">aws_instance.ubuntu&#45;vm</text>
</g>
<!-- [root] aws_key_pair.deployer&#45;key -->
<g id="node3" class="node">
<title>[root] aws_key_pair.deployer&#45;key</title>
<polygon fill="none" stroke="#000000" points="498.5,-180 331.5,-180 331.5,-144 498.5,-144 498.5,-180"/>
<text text-anchor="middle" x="415" y="-158.3" font-family="Times,serif" font-size="14.00" fill="#000000">aws_key_pair.deployer&#45;key</text>
</g>
<!-- [root] aws_instance.ubuntu&#45;vm&#45;&gt;[root] aws_key_pair.deployer&#45;key -->
<g id="edge2" class="edge">
<title>[root] aws_instance.ubuntu&#45;vm&#45;&gt;[root] aws_key_pair.deployer&#45;key</title>
<path fill="none" stroke="#000000" d="M415,-215.8314C415,-208.131 415,-198.9743 415,-190.4166"/>
<polygon fill="#000000" stroke="#000000" points="418.5001,-190.4132 415,-180.4133 411.5001,-190.4133 418.5001,-190.4132"/>
</g>
<!-- [root] aws_key_pair.deployer&#45;key&#45;&gt;[root] provider.aws -->
<g id="edge3" class="edge">
<title>[root] aws_key_pair.deployer&#45;key&#45;&gt;[root] provider.aws</title>
<path fill="none" stroke="#000000" d="M367.055,-143.8314C335.3503,-131.817 294.2912,-116.2577 264.4753,-104.9591"/>
<polygon fill="#000000" stroke="#000000" points="265.416,-101.5727 254.8246,-101.302 262.9354,-108.1185 265.416,-101.5727"/>
</g>
<!-- [root] var.PUBLIC_SSH_KEY -->
<g id="node9" class="node">
<title>[root] var.PUBLIC_SSH_KEY</title>
<polygon fill="none" stroke="#000000" points="485,-108 339,-108 339,-72 491,-72 491,-102 485,-108"/>
<polyline fill="none" stroke="#000000" points="485,-108 485,-102 "/>
<polyline fill="none" stroke="#000000" points="491,-102 485,-102 "/>
<text text-anchor="middle" x="415" y="-86.3" font-family="Times,serif" font-size="14.00" fill="#000000">var.PUBLIC_SSH_KEY</text>
</g>
<!-- [root] aws_key_pair.deployer&#45;key&#45;&gt;[root] var.PUBLIC_SSH_KEY -->
<g id="edge4" class="edge">
<title>[root] aws_key_pair.deployer&#45;key&#45;&gt;[root] var.PUBLIC_SSH_KEY</title>
<path fill="none" stroke="#000000" d="M415,-143.8314C415,-136.131 415,-126.9743 415,-118.4166"/>
<polygon fill="#000000" stroke="#000000" points="418.5001,-118.4132 415,-108.4133 411.5001,-118.4133 418.5001,-118.4132"/>
</g>
<!-- [root] aws_volume_attachment.ubuntu&#45;vm&#45;ebs&#45;1&#45;attachment -->
<g id="node4" class="node">
<title>[root] aws_volume_attachment.ubuntu&#45;vm&#45;ebs&#45;1&#45;attachment</title>
<polygon fill="none" stroke="#000000" points="366,-324 52,-324 52,-288 366,-288 366,-324"/>
<text text-anchor="middle" x="209" y="-302.3" font-family="Times,serif" font-size="14.00" fill="#000000">aws_volume_attachment.ubuntu&#45;vm&#45;ebs&#45;1&#45;attachment</text>
</g>
<!-- [root] aws_volume_attachment.ubuntu&#45;vm&#45;ebs&#45;1&#45;attachment&#45;&gt;[root] aws_ebs_volume.ubuntu&#45;vm&#45;ebs&#45;1 -->
<g id="edge5" class="edge">
<title>[root] aws_volume_attachment.ubuntu&#45;vm&#45;ebs&#45;1&#45;attachment&#45;&gt;[root] aws_ebs_volume.ubuntu&#45;vm&#45;ebs&#45;1</title>
<path fill="none" stroke="#000000" d="M209,-287.7623C209,-263.201 209,-219.2474 209,-190.3541"/>
<polygon fill="#000000" stroke="#000000" points="212.5001,-190.0896 209,-180.0896 205.5001,-190.0897 212.5001,-190.0896"/>
</g>
<!-- [root] aws_volume_attachment.ubuntu&#45;vm&#45;ebs&#45;1&#45;attachment&#45;&gt;[root] aws_instance.ubuntu&#45;vm -->
<g id="edge6" class="edge">
<title>[root] aws_volume_attachment.ubuntu&#45;vm&#45;ebs&#45;1&#45;attachment&#45;&gt;[root] aws_instance.ubuntu&#45;vm</title>
<path fill="none" stroke="#000000" d="M260.7166,-287.9243C288.878,-278.0815 323.9062,-265.8386 353.4653,-255.5073"/>
<polygon fill="#000000" stroke="#000000" points="354.9769,-258.6866 363.2621,-252.0831 352.6673,-252.0786 354.9769,-258.6866"/>
</g>
<!-- [root] output.public_ip -->
<g id="node5" class="node">
<title>[root] output.public_ip</title>
<polygon fill="none" stroke="#000000" points="484,-324 384,-324 384,-288 490,-288 490,-318 484,-324"/>
<polyline fill="none" stroke="#000000" points="484,-324 484,-318 "/>
<polyline fill="none" stroke="#000000" points="490,-318 484,-318 "/>
<text text-anchor="middle" x="437" y="-302.3" font-family="Times,serif" font-size="14.00" fill="#000000">output.public_ip</text>
</g>
<!-- [root] output.public_ip&#45;&gt;[root] aws_instance.ubuntu&#45;vm -->
<g id="edge9" class="edge">
<title>[root] output.public_ip&#45;&gt;[root] aws_instance.ubuntu&#45;vm</title>
<path fill="none" stroke="#000000" d="M431.4485,-287.8314C429.0697,-280.0463 426.2362,-270.7729 423.5967,-262.1347"/>
<polygon fill="#000000" stroke="#000000" points="426.8958,-260.954 420.6263,-252.4133 420.2013,-262.9996 426.8958,-260.954"/>
</g>
<!-- [root] var.ACCESS_KEY_ID -->
<g id="node7" class="node">
<title>[root] var.ACCESS_KEY_ID</title>
<polygon fill="none" stroke="#000000" points="138,-36 0,-36 0,0 144,0 144,-30 138,-36"/>
<polyline fill="none" stroke="#000000" points="138,-36 138,-30 "/>
<polyline fill="none" stroke="#000000" points="144,-30 138,-30 "/>
<text text-anchor="middle" x="72" y="-14.3" font-family="Times,serif" font-size="14.00" fill="#000000">var.ACCESS_KEY_ID</text>
</g>
<!-- [root] provider.aws&#45;&gt;[root] var.ACCESS_KEY_ID -->
<g id="edge11" class="edge">
<title>[root] provider.aws&#45;&gt;[root] var.ACCESS_KEY_ID</title>
<path fill="none" stroke="#000000" d="M199.0456,-77.7862C177.405,-67.6024 145.9966,-52.8219 119.8242,-40.5055"/>
<polygon fill="#000000" stroke="#000000" points="120.9848,-37.1836 110.4463,-36.0924 118.0042,-43.5173 120.9848,-37.1836"/>
</g>
<!-- [root] var.AWS_REGION -->
<g id="node8" class="node">
<title>[root] var.AWS_REGION</title>
<polygon fill="none" stroke="#000000" points="282,-36 162,-36 162,0 288,0 288,-30 282,-36"/>
<polyline fill="none" stroke="#000000" points="282,-36 282,-30 "/>
<polyline fill="none" stroke="#000000" points="288,-30 282,-30 "/>
<text text-anchor="middle" x="225" y="-14.3" font-family="Times,serif" font-size="14.00" fill="#000000">var.AWS_REGION</text>
</g>
<!-- [root] provider.aws&#45;&gt;[root] var.AWS_REGION -->
<g id="edge12" class="edge">
<title>[root] provider.aws&#45;&gt;[root] var.AWS_REGION</title>
<path fill="none" stroke="#000000" d="M225,-71.8314C225,-64.131 225,-54.9743 225,-46.4166"/>
<polygon fill="#000000" stroke="#000000" points="228.5001,-46.4132 225,-36.4133 221.5001,-46.4133 228.5001,-46.4132"/>
</g>
<!-- [root] var.SECRET_ACCESS_KEY -->
<g id="node10" class="node">
<title>[root] var.SECRET_ACCESS_KEY</title>
<polygon fill="none" stroke="#000000" points="480,-36 306,-36 306,0 486,0 486,-30 480,-36"/>
<polyline fill="none" stroke="#000000" points="480,-36 480,-30 "/>
<polyline fill="none" stroke="#000000" points="486,-30 480,-30 "/>
<text text-anchor="middle" x="396" y="-14.3" font-family="Times,serif" font-size="14.00" fill="#000000">var.SECRET_ACCESS_KEY</text>
</g>
<!-- [root] provider.aws&#45;&gt;[root] var.SECRET_ACCESS_KEY -->
<g id="edge13" class="edge">
<title>[root] provider.aws&#45;&gt;[root] var.SECRET_ACCESS_KEY</title>
<path fill="none" stroke="#000000" d="M252.8547,-78.2717C277.3634,-67.9522 313.7011,-52.6522 343.6311,-40.0501"/>
<polygon fill="#000000" stroke="#000000" points="345.2422,-43.1694 353.1004,-36.063 342.5258,-36.7179 345.2422,-43.1694"/>
</g>
<!-- [root] meta.count&#45;boundary (EachMode fixup) -->
<g id="node11" class="node">
<title>[root] meta.count&#45;boundary (EachMode fixup)</title>
<ellipse fill="none" stroke="#000000" cx="437" cy="-378" rx="176.5689" ry="18"/>
<text text-anchor="middle" x="437" y="-374.3" font-family="Times,serif" font-size="14.00" fill="#000000">[root] meta.count&#45;boundary (EachMode fixup)</text>
</g>
<!-- [root] meta.count&#45;boundary (EachMode fixup)&#45;&gt;[root] aws_volume_attachment.ubuntu&#45;vm&#45;ebs&#45;1&#45;attachment -->
<g id="edge7" class="edge">
<title>[root] meta.count&#45;boundary (EachMode fixup)&#45;&gt;[root] aws_volume_attachment.ubuntu&#45;vm&#45;ebs&#45;1&#45;attachment</title>
<path fill="none" stroke="#000000" d="M382.678,-360.8457C350.6699,-350.7379 309.9205,-337.8696 275.9383,-327.1384"/>
<polygon fill="#000000" stroke="#000000" points="276.6774,-323.7015 266.0876,-324.0277 274.5694,-330.3766 276.6774,-323.7015"/>
</g>
<!-- [root] meta.count&#45;boundary (EachMode fixup)&#45;&gt;[root] output.public_ip -->
<g id="edge8" class="edge">
<title>[root] meta.count&#45;boundary (EachMode fixup)&#45;&gt;[root] output.public_ip</title>
<path fill="none" stroke="#000000" d="M437,-359.8314C437,-352.131 437,-342.9743 437,-334.4166"/>
<polygon fill="#000000" stroke="#000000" points="440.5001,-334.4132 437,-324.4133 433.5001,-334.4133 440.5001,-334.4132"/>
</g>
<!-- [root] provider.aws (close) -->
<g id="node12" class="node">
<title>[root] provider.aws (close)</title>
<ellipse fill="none" stroke="#000000" cx="137" cy="-378" rx="105.0817" ry="18"/>
<text text-anchor="middle" x="137" y="-374.3" font-family="Times,serif" font-size="14.00" fill="#000000">[root] provider.aws (close)</text>
</g>
<!-- [root] provider.aws (close)&#45;&gt;[root] aws_volume_attachment.ubuntu&#45;vm&#45;ebs&#45;1&#45;attachment -->
<g id="edge10" class="edge">
<title>[root] provider.aws (close)&#45;&gt;[root] aws_volume_attachment.ubuntu&#45;vm&#45;ebs&#45;1&#45;attachment</title>
<path fill="none" stroke="#000000" d="M154.7978,-360.2022C163.4725,-351.5275 174.0609,-340.9391 183.5696,-331.4304"/>
<polygon fill="#000000" stroke="#000000" points="186.3107,-333.6391 190.9069,-324.0931 181.3609,-328.6893 186.3107,-333.6391"/>
</g>
<!-- [root] root -->
<g id="node13" class="node">
<title>[root] root</title>
<ellipse fill="none" stroke="#000000" cx="287" cy="-450" rx="47.3916" ry="18"/>
<text text-anchor="middle" x="287" y="-446.3" font-family="Times,serif" font-size="14.00" fill="#000000">[root] root</text>
</g>
<!-- [root] root&#45;&gt;[root] meta.count&#45;boundary (EachMode fixup) -->
<g id="edge14" class="edge">
<title>[root] root&#45;&gt;[root] meta.count&#45;boundary (EachMode fixup)</title>
<path fill="none" stroke="#000000" d="M316.6352,-435.7751C337.9091,-425.5636 366.9834,-411.608 391.2274,-399.9708"/>
<polygon fill="#000000" stroke="#000000" points="392.7557,-403.1196 400.2564,-395.6369 389.7266,-396.809 392.7557,-403.1196"/>
</g>
<!-- [root] root&#45;&gt;[root] provider.aws (close) -->
<g id="edge15" class="edge">
<title>[root] root&#45;&gt;[root] provider.aws (close)</title>
<path fill="none" stroke="#000000" d="M257.3648,-435.7751C235.7123,-425.3819 205.9794,-411.1101 181.4831,-399.3519"/>
<polygon fill="#000000" stroke="#000000" points="182.9085,-396.1538 172.3787,-394.9818 179.8794,-402.4645 182.9085,-396.1538"/>
</g>
</g>
</svg>
