<?xml version="1.0" encoding="UTF-8" standalone="no"?>
<!DOCTYPE svg PUBLIC "-//W3C//DTD SVG 1.1//EN"
 "http://www.w3.org/Graphics/SVG/1.1/DTD/svg11.dtd">
<!-- Generated by graphviz version 2.40.1 (20161225.0304)
 -->
<!-- Title: %3 Pages: 1 -->
<svg width="727pt" height="404pt"
 viewBox="0.00 0.00 726.50 404.00" xmlns="http://www.w3.org/2000/svg" xmlns:xlink="http://www.w3.org/1999/xlink">
<g id="graph0" class="graph" transform="scale(1 1) rotate(0) translate(4 400)">
<title>%3</title>
<polygon fill="#ffffff" stroke="transparent" points="-4,4 -4,-400 722.5,-400 722.5,4 -4,4"/>
<!-- [root] aws_iam_group.administrators -->
<g id="node1" class="node">
<title>[root] aws_iam_group.administrators</title>
<polygon fill="none" stroke="#000000" points="367,-180 182,-180 182,-144 367,-144 367,-180"/>
<text text-anchor="middle" x="274.5" y="-158.3" font-family="Times,serif" font-size="14.00" fill="#000000">aws_iam_group.administrators</text>
</g>
<!-- [root] provider.aws -->
<g id="node6" class="node">
<title>[root] provider.aws</title>
<polygon fill="none" stroke="#000000" points="457.5,-108 377.5666,-90 457.5,-72 537.4334,-90 457.5,-108"/>
<text text-anchor="middle" x="457.5" y="-86.3" font-family="Times,serif" font-size="14.00" fill="#000000">provider.aws</text>
</g>
<!-- [root] aws_iam_group.administrators&#45;&gt;[root] provider.aws -->
<g id="edge1" class="edge">
<title>[root] aws_iam_group.administrators&#45;&gt;[root] provider.aws</title>
<path fill="none" stroke="#000000" d="M320.6786,-143.8314C350.893,-131.9437 389.9281,-116.5857 418.5664,-105.3181"/>
<polygon fill="#000000" stroke="#000000" points="420.2069,-108.4339 428.2311,-101.5156 417.644,-101.92 420.2069,-108.4339"/>
</g>
<!-- [root] aws_iam_group_membership.admin&#45;group&#45;membership -->
<g id="node2" class="node">
<title>[root] aws_iam_group_membership.admin&#45;group&#45;membership</title>
<polygon fill="none" stroke="#000000" points="701.5,-252 375.5,-252 375.5,-216 701.5,-216 701.5,-252"/>
<text text-anchor="middle" x="538.5" y="-230.3" font-family="Times,serif" font-size="14.00" fill="#000000">aws_iam_group_membership.admin&#45;group&#45;membership</text>
</g>
<!-- [root] aws_iam_group_membership.admin&#45;group&#45;membership&#45;&gt;[root] aws_iam_group.administrators -->
<g id="edge2" class="edge">
<title>[root] aws_iam_group_membership.admin&#45;group&#45;membership&#45;&gt;[root] aws_iam_group.administrators</title>
<path fill="none" stroke="#000000" d="M472.2224,-215.9243C435.3475,-205.8675 389.2856,-193.3052 350.8996,-182.8363"/>
<polygon fill="#000000" stroke="#000000" points="351.3734,-179.3377 340.8049,-180.0831 349.5316,-186.0911 351.3734,-179.3377"/>
</g>
<!-- [root] aws_iam_user.admin&#45;1 -->
<g id="node4" class="node">
<title>[root] aws_iam_user.admin&#45;1</title>
<polygon fill="none" stroke="#000000" points="691.5,-180 547.5,-180 547.5,-144 691.5,-144 691.5,-180"/>
<text text-anchor="middle" x="619.5" y="-158.3" font-family="Times,serif" font-size="14.00" fill="#000000">aws_iam_user.admin&#45;1</text>
</g>
<!-- [root] aws_iam_group_membership.admin&#45;group&#45;membership&#45;&gt;[root] aws_iam_user.admin&#45;1 -->
<g id="edge3" class="edge">
<title>[root] aws_iam_group_membership.admin&#45;group&#45;membership&#45;&gt;[root] aws_iam_user.admin&#45;1</title>
<path fill="none" stroke="#000000" d="M558.9397,-215.8314C568.8205,-207.0485 580.8324,-196.3712 591.545,-186.8489"/>
<polygon fill="#000000" stroke="#000000" points="593.918,-189.4224 599.0668,-180.1628 589.2674,-184.1906 593.918,-189.4224"/>
</g>
<!-- [root] aws_iam_user.admin&#45;2 -->
<g id="node5" class="node">
<title>[root] aws_iam_user.admin&#45;2</title>
<polygon fill="none" stroke="#000000" points="529.5,-180 385.5,-180 385.5,-144 529.5,-144 529.5,-180"/>
<text text-anchor="middle" x="457.5" y="-158.3" font-family="Times,serif" font-size="14.00" fill="#000000">aws_iam_user.admin&#45;2</text>
</g>
<!-- [root] aws_iam_group_membership.admin&#45;group&#45;membership&#45;&gt;[root] aws_iam_user.admin&#45;2 -->
<g id="edge4" class="edge">
<title>[root] aws_iam_group_membership.admin&#45;group&#45;membership&#45;&gt;[root] aws_iam_user.admin&#45;2</title>
<path fill="none" stroke="#000000" d="M518.0603,-215.8314C508.1795,-207.0485 496.1676,-196.3712 485.455,-186.8489"/>
<polygon fill="#000000" stroke="#000000" points="487.7326,-184.1906 477.9332,-180.1628 483.082,-189.4224 487.7326,-184.1906"/>
</g>
<!-- [root] aws_iam_policy_attachment.administrators&#45;policy&#45;attachment -->
<g id="node3" class="node">
<title>[root] aws_iam_policy_attachment.administrators&#45;policy&#45;attachment</title>
<polygon fill="none" stroke="#000000" points="357,-252 0,-252 0,-216 357,-216 357,-252"/>
<text text-anchor="middle" x="178.5" y="-230.3" font-family="Times,serif" font-size="14.00" fill="#000000">aws_iam_policy_attachment.administrators&#45;policy&#45;attachment</text>
</g>
<!-- [root] aws_iam_policy_attachment.administrators&#45;policy&#45;attachment&#45;&gt;[root] aws_iam_group.administrators -->
<g id="edge5" class="edge">
<title>[root] aws_iam_policy_attachment.administrators&#45;policy&#45;attachment&#45;&gt;[root] aws_iam_group.administrators</title>
<path fill="none" stroke="#000000" d="M202.7249,-215.8314C214.6628,-206.8779 229.2256,-195.9558 242.106,-186.2955"/>
<polygon fill="#000000" stroke="#000000" points="244.3829,-188.9629 250.2829,-180.1628 240.1829,-183.3629 244.3829,-188.9629"/>
</g>
<!-- [root] aws_iam_user.admin&#45;1&#45;&gt;[root] provider.aws -->
<g id="edge6" class="edge">
<title>[root] aws_iam_user.admin&#45;1&#45;&gt;[root] provider.aws</title>
<path fill="none" stroke="#000000" d="M578.6206,-143.8314C552.5226,-132.2323 518.9905,-117.3291 493.8277,-106.1457"/>
<polygon fill="#000000" stroke="#000000" points="495.1862,-102.9194 484.6266,-102.0563 492.3432,-109.316 495.1862,-102.9194"/>
</g>
<!-- [root] aws_iam_user.admin&#45;2&#45;&gt;[root] provider.aws -->
<g id="edge7" class="edge">
<title>[root] aws_iam_user.admin&#45;2&#45;&gt;[root] provider.aws</title>
<path fill="none" stroke="#000000" d="M457.5,-143.8314C457.5,-136.131 457.5,-126.9743 457.5,-118.4166"/>
<polygon fill="#000000" stroke="#000000" points="461.0001,-118.4132 457.5,-108.4133 454.0001,-118.4133 461.0001,-118.4132"/>
</g>
<!-- [root] var.ACCESS_KEY_ID -->
<g id="node7" class="node">
<title>[root] var.ACCESS_KEY_ID</title>
<polygon fill="none" stroke="#000000" points="370.5,-36 232.5,-36 232.5,0 376.5,0 376.5,-30 370.5,-36"/>
<polyline fill="none" stroke="#000000" points="370.5,-36 370.5,-30 "/>
<polyline fill="none" stroke="#000000" points="376.5,-30 370.5,-30 "/>
<text text-anchor="middle" x="304.5" y="-14.3" font-family="Times,serif" font-size="14.00" fill="#000000">var.ACCESS_KEY_ID</text>
</g>
<!-- [root] provider.aws&#45;&gt;[root] var.ACCESS_KEY_ID -->
<g id="edge12" class="edge">
<title>[root] provider.aws&#45;&gt;[root] var.ACCESS_KEY_ID</title>
<path fill="none" stroke="#000000" d="M431.5456,-77.7862C409.905,-67.6024 378.4966,-52.8219 352.3242,-40.5055"/>
<polygon fill="#000000" stroke="#000000" points="353.4848,-37.1836 342.9463,-36.0924 350.5042,-43.5173 353.4848,-37.1836"/>
</g>
<!-- [root] var.AWS_REGION -->
<g id="node8" class="node">
<title>[root] var.AWS_REGION</title>
<polygon fill="none" stroke="#000000" points="514.5,-36 394.5,-36 394.5,0 520.5,0 520.5,-30 514.5,-36"/>
<polyline fill="none" stroke="#000000" points="514.5,-36 514.5,-30 "/>
<polyline fill="none" stroke="#000000" points="520.5,-30 514.5,-30 "/>
<text text-anchor="middle" x="457.5" y="-14.3" font-family="Times,serif" font-size="14.00" fill="#000000">var.AWS_REGION</text>
</g>
<!-- [root] provider.aws&#45;&gt;[root] var.AWS_REGION -->
<g id="edge13" class="edge">
<title>[root] provider.aws&#45;&gt;[root] var.AWS_REGION</title>
<path fill="none" stroke="#000000" d="M457.5,-71.8314C457.5,-64.131 457.5,-54.9743 457.5,-46.4166"/>
<polygon fill="#000000" stroke="#000000" points="461.0001,-46.4132 457.5,-36.4133 454.0001,-46.4133 461.0001,-46.4132"/>
</g>
<!-- [root] var.SECRET_ACCESS_KEY -->
<g id="node9" class="node">
<title>[root] var.SECRET_ACCESS_KEY</title>
<polygon fill="none" stroke="#000000" points="712.5,-36 538.5,-36 538.5,0 718.5,0 718.5,-30 712.5,-36"/>
<polyline fill="none" stroke="#000000" points="712.5,-36 712.5,-30 "/>
<polyline fill="none" stroke="#000000" points="718.5,-30 712.5,-30 "/>
<text text-anchor="middle" x="628.5" y="-14.3" font-family="Times,serif" font-size="14.00" fill="#000000">var.SECRET_ACCESS_KEY</text>
</g>
<!-- [root] provider.aws&#45;&gt;[root] var.SECRET_ACCESS_KEY -->
<g id="edge14" class="edge">
<title>[root] provider.aws&#45;&gt;[root] var.SECRET_ACCESS_KEY</title>
<path fill="none" stroke="#000000" d="M485.3547,-78.2717C509.8634,-67.9522 546.2011,-52.6522 576.1311,-40.0501"/>
<polygon fill="#000000" stroke="#000000" points="577.7422,-43.1694 585.6004,-36.063 575.0258,-36.7179 577.7422,-43.1694"/>
</g>
<!-- [root] meta.count&#45;boundary (EachMode fixup) -->
<g id="node10" class="node">
<title>[root] meta.count&#45;boundary (EachMode fixup)</title>
<ellipse fill="none" stroke="#000000" cx="208.5" cy="-306" rx="176.5689" ry="18"/>
<text text-anchor="middle" x="208.5" y="-302.3" font-family="Times,serif" font-size="14.00" fill="#000000">[root] meta.count&#45;boundary (EachMode fixup)</text>
</g>
<!-- [root] meta.count&#45;boundary (EachMode fixup)&#45;&gt;[root] aws_iam_group_membership.admin&#45;group&#45;membership -->
<g id="edge8" class="edge">
<title>[root] meta.count&#45;boundary (EachMode fixup)&#45;&gt;[root] aws_iam_group_membership.admin&#45;group&#45;membership</title>
<path fill="none" stroke="#000000" d="M283.3821,-289.6621C331.6176,-279.138 394.675,-265.38 446.0296,-254.1754"/>
<polygon fill="#000000" stroke="#000000" points="446.7819,-257.5936 455.8059,-252.0423 445.2897,-250.7545 446.7819,-257.5936"/>
</g>
<!-- [root] meta.count&#45;boundary (EachMode fixup)&#45;&gt;[root] aws_iam_policy_attachment.administrators&#45;policy&#45;attachment -->
<g id="edge9" class="edge">
<title>[root] meta.count&#45;boundary (EachMode fixup)&#45;&gt;[root] aws_iam_policy_attachment.administrators&#45;policy&#45;attachment</title>
<path fill="none" stroke="#000000" d="M200.9297,-287.8314C197.6507,-279.9617 193.738,-270.5712 190.1055,-261.8533"/>
<polygon fill="#000000" stroke="#000000" points="193.2492,-260.2979 186.1722,-252.4133 186.7876,-262.9902 193.2492,-260.2979"/>
</g>
<!-- [root] provider.aws (close) -->
<g id="node11" class="node">
<title>[root] provider.aws (close)</title>
<ellipse fill="none" stroke="#000000" cx="508.5" cy="-306" rx="105.0817" ry="18"/>
<text text-anchor="middle" x="508.5" y="-302.3" font-family="Times,serif" font-size="14.00" fill="#000000">[root] provider.aws (close)</text>
</g>
<!-- [root] provider.aws (close)&#45;&gt;[root] aws_iam_group_membership.admin&#45;group&#45;membership -->
<g id="edge10" class="edge">
<title>[root] provider.aws (close)&#45;&gt;[root] aws_iam_group_membership.admin&#45;group&#45;membership</title>
<path fill="none" stroke="#000000" d="M516.0703,-287.8314C519.3493,-279.9617 523.262,-270.5712 526.8945,-261.8533"/>
<polygon fill="#000000" stroke="#000000" points="530.2124,-262.9902 530.8278,-252.4133 523.7508,-260.2979 530.2124,-262.9902"/>
</g>
<!-- [root] provider.aws (close)&#45;&gt;[root] aws_iam_policy_attachment.administrators&#45;policy&#45;attachment -->
<g id="edge11" class="edge">
<title>[root] provider.aws (close)&#45;&gt;[root] aws_iam_policy_attachment.administrators&#45;policy&#45;attachment</title>
<path fill="none" stroke="#000000" d="M443.3026,-291.7751C394.1439,-281.0496 326.0532,-266.1934 271.2291,-254.2318"/>
<polygon fill="#000000" stroke="#000000" points="271.6705,-250.7458 261.1542,-252.0336 270.1782,-257.5849 271.6705,-250.7458"/>
</g>
<!-- [root] root -->
<g id="node12" class="node">
<title>[root] root</title>
<ellipse fill="none" stroke="#000000" cx="358.5" cy="-378" rx="47.3916" ry="18"/>
<text text-anchor="middle" x="358.5" y="-374.3" font-family="Times,serif" font-size="14.00" fill="#000000">[root] root</text>
</g>
<!-- [root] root&#45;&gt;[root] meta.count&#45;boundary (EachMode fixup) -->
<g id="edge15" class="edge">
<title>[root] root&#45;&gt;[root] meta.count&#45;boundary (EachMode fixup)</title>
<path fill="none" stroke="#000000" d="M328.8648,-363.7751C307.5909,-353.5636 278.5166,-339.608 254.2726,-327.9708"/>
<polygon fill="#000000" stroke="#000000" points="255.7734,-324.809 245.2436,-323.6369 252.7443,-331.1196 255.7734,-324.809"/>
</g>
<!-- [root] root&#45;&gt;[root] provider.aws (close) -->
<g id="edge16" class="edge">
<title>[root] root&#45;&gt;[root] provider.aws (close)</title>
<path fill="none" stroke="#000000" d="M388.1352,-363.7751C409.7877,-353.3819 439.5206,-339.1101 464.0169,-327.3519"/>
<polygon fill="#000000" stroke="#000000" points="465.6206,-330.4645 473.1213,-322.9818 462.5915,-324.1538 465.6206,-330.4645"/>
</g>
</g>
</svg>
