<?xml version="1.0" encoding="UTF-8" standalone="no"?>
<!DOCTYPE svg PUBLIC "-//W3C//DTD SVG 1.1//EN"
 "http://www.w3.org/Graphics/SVG/1.1/DTD/svg11.dtd">
<!-- Generated by graphviz version 2.40.1 (20161225.0304)
 -->
<!-- Title: %3 Pages: 1 -->
<svg width="2300pt" height="620pt"
 viewBox="0.00 0.00 2300.17 620.00" xmlns="http://www.w3.org/2000/svg" xmlns:xlink="http://www.w3.org/1999/xlink">
<g id="graph0" class="graph" transform="scale(1 1) rotate(0) translate(4 616)">
<title>%3</title>
<polygon fill="#ffffff" stroke="transparent" points="-4,4 -4,-616 2296.173,-616 2296.173,4 -4,4"/>
<!-- [root] aws_eip.nat&#45;eip -->
<g id="node1" class="node">
<title>[root] aws_eip.nat&#45;eip</title>
<polygon fill="none" stroke="#000000" points="1578.173,-180 1476.173,-180 1476.173,-144 1578.173,-144 1578.173,-180"/>
<text text-anchor="middle" x="1527.173" y="-158.3" font-family="Times,serif" font-size="14.00" fill="#000000">aws_eip.nat&#45;eip</text>
</g>
<!-- [root] provider.aws -->
<g id="node22" class="node">
<title>[root] provider.aws</title>
<polygon fill="none" stroke="#000000" points="1276.173,-108 1196.2396,-90 1276.173,-72 1356.1063,-90 1276.173,-108"/>
<text text-anchor="middle" x="1276.173" y="-86.3" font-family="Times,serif" font-size="14.00" fill="#000000">provider.aws</text>
</g>
<!-- [root] aws_eip.nat&#45;eip&#45;&gt;[root] provider.aws -->
<g id="edge1" class="edge">
<title>[root] aws_eip.nat&#45;eip&#45;&gt;[root] provider.aws</title>
<path fill="none" stroke="#000000" d="M1476.0768,-147.3429C1430.598,-134.2972 1364.7173,-115.3992 1321.1858,-102.912"/>
<polygon fill="#000000" stroke="#000000" points="1322.0176,-99.5096 1311.4401,-100.1165 1320.0874,-106.2382 1322.0176,-99.5096"/>
</g>
<!-- [root] aws_instance.public&#45;vm&#45;1a -->
<g id="node2" class="node">
<title>[root] aws_instance.public&#45;vm&#45;1a</title>
<polygon fill="none" stroke="#000000" points="1140.173,-324 974.173,-324 974.173,-288 1140.173,-288 1140.173,-324"/>
<text text-anchor="middle" x="1057.173" y="-302.3" font-family="Times,serif" font-size="14.00" fill="#000000">aws_instance.public&#45;vm&#45;1a</text>
</g>
<!-- [root] aws_key_pair.deployer -->
<g id="node4" class="node">
<title>[root] aws_key_pair.deployer</title>
<polygon fill="none" stroke="#000000" points="871.673,-252 728.673,-252 728.673,-216 871.673,-216 871.673,-252"/>
<text text-anchor="middle" x="800.173" y="-230.3" font-family="Times,serif" font-size="14.00" fill="#000000">aws_key_pair.deployer</text>
</g>
<!-- [root] aws_instance.public&#45;vm&#45;1a&#45;&gt;[root] aws_key_pair.deployer -->
<g id="edge2" class="edge">
<title>[root] aws_instance.public&#45;vm&#45;1a&#45;&gt;[root] aws_key_pair.deployer</title>
<path fill="none" stroke="#000000" d="M992.6527,-287.9243C956.7556,-277.8675 911.915,-265.3052 874.5469,-254.8363"/>
<polygon fill="#000000" stroke="#000000" points="875.2932,-251.4107 864.7197,-252.0831 873.4048,-258.1511 875.2932,-251.4107"/>
</g>
<!-- [root] aws_security_group.allow&#45;ssh -->
<g id="node14" class="node">
<title>[root] aws_security_group.allow&#45;ssh</title>
<polygon fill="none" stroke="#000000" points="1147.673,-252 966.673,-252 966.673,-216 1147.673,-216 1147.673,-252"/>
<text text-anchor="middle" x="1057.173" y="-230.3" font-family="Times,serif" font-size="14.00" fill="#000000">aws_security_group.allow&#45;ssh</text>
</g>
<!-- [root] aws_instance.public&#45;vm&#45;1a&#45;&gt;[root] aws_security_group.allow&#45;ssh -->
<g id="edge3" class="edge">
<title>[root] aws_instance.public&#45;vm&#45;1a&#45;&gt;[root] aws_security_group.allow&#45;ssh</title>
<path fill="none" stroke="#000000" d="M1057.173,-287.8314C1057.173,-280.131 1057.173,-270.9743 1057.173,-262.4166"/>
<polygon fill="#000000" stroke="#000000" points="1060.6731,-262.4132 1057.173,-252.4133 1053.6731,-262.4133 1060.6731,-262.4132"/>
</g>
<!-- [root] aws_subnet.public&#45;1 -->
<g id="node18" class="node">
<title>[root] aws_subnet.public&#45;1</title>
<polygon fill="none" stroke="#000000" points="1294.173,-252 1166.173,-252 1166.173,-216 1294.173,-216 1294.173,-252"/>
<text text-anchor="middle" x="1230.173" y="-230.3" font-family="Times,serif" font-size="14.00" fill="#000000">aws_subnet.public&#45;1</text>
</g>
<!-- [root] aws_instance.public&#45;vm&#45;1a&#45;&gt;[root] aws_subnet.public&#45;1 -->
<g id="edge4" class="edge">
<title>[root] aws_instance.public&#45;vm&#45;1a&#45;&gt;[root] aws_subnet.public&#45;1</title>
<path fill="none" stroke="#000000" d="M1100.8282,-287.8314C1124.0687,-278.159 1152.8297,-266.1891 1177.3252,-255.9944"/>
<polygon fill="#000000" stroke="#000000" points="1178.9442,-259.1117 1186.8317,-252.038 1176.2545,-252.6491 1178.9442,-259.1117"/>
</g>
<!-- [root] aws_internet_gateway.igw -->
<g id="node3" class="node">
<title>[root] aws_internet_gateway.igw</title>
<polygon fill="none" stroke="#000000" points="1511.673,-252 1350.673,-252 1350.673,-216 1511.673,-216 1511.673,-252"/>
<text text-anchor="middle" x="1431.173" y="-230.3" font-family="Times,serif" font-size="14.00" fill="#000000">aws_internet_gateway.igw</text>
</g>
<!-- [root] aws_vpc.main -->
<g id="node21" class="node">
<title>[root] aws_vpc.main</title>
<polygon fill="none" stroke="#000000" points="1323.673,-180 1228.673,-180 1228.673,-144 1323.673,-144 1323.673,-180"/>
<text text-anchor="middle" x="1276.173" y="-158.3" font-family="Times,serif" font-size="14.00" fill="#000000">aws_vpc.main</text>
</g>
<!-- [root] aws_internet_gateway.igw&#45;&gt;[root] aws_vpc.main -->
<g id="edge5" class="edge">
<title>[root] aws_internet_gateway.igw&#45;&gt;[root] aws_vpc.main</title>
<path fill="none" stroke="#000000" d="M1392.0599,-215.8314C1371.4217,-206.2446 1345.9246,-194.4008 1324.1056,-184.2655"/>
<polygon fill="#000000" stroke="#000000" points="1325.5486,-181.0766 1315.0047,-180.038 1322.5995,-187.4251 1325.5486,-181.0766"/>
</g>
<!-- [root] aws_key_pair.deployer&#45;&gt;[root] provider.aws -->
<g id="edge6" class="edge">
<title>[root] aws_key_pair.deployer&#45;&gt;[root] provider.aws</title>
<path fill="none" stroke="#000000" d="M859.9767,-215.9081C957.0115,-186.5531 1146.5147,-129.2243 1232.216,-103.2979"/>
<polygon fill="#000000" stroke="#000000" points="1233.3373,-106.6154 1241.8954,-100.3697 1231.3103,-99.9153 1233.3373,-106.6154"/>
</g>
<!-- [root] var.PUBLIC_SSH_KEY -->
<g id="node25" class="node">
<title>[root] var.PUBLIC_SSH_KEY</title>
<polygon fill="none" stroke="#000000" points="870.173,-180 724.173,-180 724.173,-144 876.173,-144 876.173,-174 870.173,-180"/>
<polyline fill="none" stroke="#000000" points="870.173,-180 870.173,-174 "/>
<polyline fill="none" stroke="#000000" points="876.173,-174 870.173,-174 "/>
<text text-anchor="middle" x="800.173" y="-158.3" font-family="Times,serif" font-size="14.00" fill="#000000">var.PUBLIC_SSH_KEY</text>
</g>
<!-- [root] aws_key_pair.deployer&#45;&gt;[root] var.PUBLIC_SSH_KEY -->
<g id="edge7" class="edge">
<title>[root] aws_key_pair.deployer&#45;&gt;[root] var.PUBLIC_SSH_KEY</title>
<path fill="none" stroke="#000000" d="M800.173,-215.8314C800.173,-208.131 800.173,-198.9743 800.173,-190.4166"/>
<polygon fill="#000000" stroke="#000000" points="803.6731,-190.4132 800.173,-180.4133 796.6731,-190.4133 803.6731,-190.4132"/>
</g>
<!-- [root] aws_nat_gateway.nat&#45;gw -->
<g id="node5" class="node">
<title>[root] aws_nat_gateway.nat&#45;gw</title>
<polygon fill="none" stroke="#000000" points="1593.173,-324 1439.173,-324 1439.173,-288 1593.173,-288 1593.173,-324"/>
<text text-anchor="middle" x="1516.173" y="-302.3" font-family="Times,serif" font-size="14.00" fill="#000000">aws_nat_gateway.nat&#45;gw</text>
</g>
<!-- [root] aws_nat_gateway.nat&#45;gw&#45;&gt;[root] aws_eip.nat&#45;eip -->
<g id="edge8" class="edge">
<title>[root] aws_nat_gateway.nat&#45;gw&#45;&gt;[root] aws_eip.nat&#45;eip</title>
<path fill="none" stroke="#000000" d="M1517.5661,-287.7623C1519.4423,-263.201 1522.7999,-219.2474 1525.007,-190.3541"/>
<polygon fill="#000000" stroke="#000000" points="1528.5192,-190.3272 1525.7911,-180.0896 1521.5395,-189.794 1528.5192,-190.3272"/>
</g>
<!-- [root] aws_nat_gateway.nat&#45;gw&#45;&gt;[root] aws_internet_gateway.igw -->
<g id="edge9" class="edge">
<title>[root] aws_nat_gateway.nat&#45;gw&#45;&gt;[root] aws_internet_gateway.igw</title>
<path fill="none" stroke="#000000" d="M1494.7239,-287.8314C1484.3552,-279.0485 1471.7501,-268.3712 1460.5084,-258.8489"/>
<polygon fill="#000000" stroke="#000000" points="1462.5079,-255.9556 1452.6152,-252.1628 1457.9835,-261.297 1462.5079,-255.9556"/>
</g>
<!-- [root] aws_nat_gateway.nat&#45;gw&#45;&gt;[root] aws_subnet.public&#45;1 -->
<g id="edge10" class="edge">
<title>[root] aws_nat_gateway.nat&#45;gw&#45;&gt;[root] aws_subnet.public&#45;1</title>
<path fill="none" stroke="#000000" d="M1444.3722,-287.9243C1401.5433,-277.1422 1347.2744,-263.4801 1304.0783,-252.6055"/>
<polygon fill="#000000" stroke="#000000" points="1304.7482,-249.165 1294.1963,-250.1178 1303.0392,-255.9532 1304.7482,-249.165"/>
</g>
<!-- [root] aws_route_table.main&#45;private -->
<g id="node6" class="node">
<title>[root] aws_route_table.main&#45;private</title>
<polygon fill="none" stroke="#000000" points="1640.673,-396 1461.673,-396 1461.673,-360 1640.673,-360 1640.673,-396"/>
<text text-anchor="middle" x="1551.173" y="-374.3" font-family="Times,serif" font-size="14.00" fill="#000000">aws_route_table.main&#45;private</text>
</g>
<!-- [root] aws_route_table.main&#45;private&#45;&gt;[root] aws_nat_gateway.nat&#45;gw -->
<g id="edge11" class="edge">
<title>[root] aws_route_table.main&#45;private&#45;&gt;[root] aws_nat_gateway.nat&#45;gw</title>
<path fill="none" stroke="#000000" d="M1542.341,-359.8314C1538.4743,-351.8771 1533.8524,-342.369 1529.5762,-333.5723"/>
<polygon fill="#000000" stroke="#000000" points="1532.6436,-331.8768 1525.1239,-324.4133 1526.348,-334.9371 1532.6436,-331.8768"/>
</g>
<!-- [root] aws_route_table.main&#45;public -->
<g id="node7" class="node">
<title>[root] aws_route_table.main&#45;public</title>
<polygon fill="none" stroke="#000000" points="843.673,-396 668.673,-396 668.673,-360 843.673,-360 843.673,-396"/>
<text text-anchor="middle" x="756.173" y="-374.3" font-family="Times,serif" font-size="14.00" fill="#000000">aws_route_table.main&#45;public</text>
</g>
<!-- [root] aws_route_table.main&#45;public&#45;&gt;[root] aws_internet_gateway.igw -->
<g id="edge12" class="edge">
<title>[root] aws_route_table.main&#45;public&#45;&gt;[root] aws_internet_gateway.igw</title>
<path fill="none" stroke="#000000" d="M843.9711,-370.3109C924.1328,-362.2593 1045.565,-347.467 1149.173,-324 1191.2388,-314.4722 1299.3786,-278.7459 1368.8601,-255.2732"/>
<polygon fill="#000000" stroke="#000000" points="1370.0461,-258.5669 1378.3968,-252.0465 1367.8025,-251.9362 1370.0461,-258.5669"/>
</g>
<!-- [root] aws_route_table_association.main&#45;private&#45;route&#45;association&#45;1a -->
<g id="node8" class="node">
<title>[root] aws_route_table_association.main&#45;private&#45;route&#45;association&#45;1a</title>
<polygon fill="none" stroke="#000000" points="1536.673,-468 1177.673,-468 1177.673,-432 1536.673,-432 1536.673,-468"/>
<text text-anchor="middle" x="1357.173" y="-446.3" font-family="Times,serif" font-size="14.00" fill="#000000">aws_route_table_association.main&#45;private&#45;route&#45;association&#45;1a</text>
</g>
<!-- [root] aws_route_table_association.main&#45;private&#45;route&#45;association&#45;1a&#45;&gt;[root] aws_route_table.main&#45;private -->
<g id="edge13" class="edge">
<title>[root] aws_route_table_association.main&#45;private&#45;route&#45;association&#45;1a&#45;&gt;[root] aws_route_table.main&#45;private</title>
<path fill="none" stroke="#000000" d="M1406.1274,-431.8314C1432.535,-422.0306 1465.2986,-409.8709 1493.0015,-399.5894"/>
<polygon fill="#000000" stroke="#000000" points="1494.4133,-402.7988 1502.5706,-396.038 1491.9776,-396.2362 1494.4133,-402.7988"/>
</g>
<!-- [root] aws_subnet.private&#45;1 -->
<g id="node15" class="node">
<title>[root] aws_subnet.private&#45;1</title>
<polygon fill="none" stroke="#000000" points="1411.173,-324 1279.173,-324 1279.173,-288 1411.173,-288 1411.173,-324"/>
<text text-anchor="middle" x="1345.173" y="-302.3" font-family="Times,serif" font-size="14.00" fill="#000000">aws_subnet.private&#45;1</text>
</g>
<!-- [root] aws_route_table_association.main&#45;private&#45;route&#45;association&#45;1a&#45;&gt;[root] aws_subnet.private&#45;1 -->
<g id="edge14" class="edge">
<title>[root] aws_route_table_association.main&#45;private&#45;route&#45;association&#45;1a&#45;&gt;[root] aws_subnet.private&#45;1</title>
<path fill="none" stroke="#000000" d="M1355.6532,-431.7623C1353.6064,-407.201 1349.9436,-363.2474 1347.5358,-334.3541"/>
<polygon fill="#000000" stroke="#000000" points="1350.9989,-333.7644 1346.6804,-324.0896 1344.0231,-334.3458 1350.9989,-333.7644"/>
</g>
<!-- [root] aws_route_table_association.main&#45;private&#45;route&#45;association&#45;1b -->
<g id="node9" class="node">
<title>[root] aws_route_table_association.main&#45;private&#45;route&#45;association&#45;1b</title>
<polygon fill="none" stroke="#000000" points="2292.173,-468 1932.173,-468 1932.173,-432 2292.173,-432 2292.173,-468"/>
<text text-anchor="middle" x="2112.173" y="-446.3" font-family="Times,serif" font-size="14.00" fill="#000000">aws_route_table_association.main&#45;private&#45;route&#45;association&#45;1b</text>
</g>
<!-- [root] aws_route_table_association.main&#45;private&#45;route&#45;association&#45;1b&#45;&gt;[root] aws_route_table.main&#45;private -->
<g id="edge15" class="edge">
<title>[root] aws_route_table_association.main&#45;private&#45;route&#45;association&#45;1b&#45;&gt;[root] aws_route_table.main&#45;private</title>
<path fill="none" stroke="#000000" d="M1971.6947,-431.9707C1871.8476,-419.1561 1740.1647,-402.2556 1650.953,-390.806"/>
<polygon fill="#000000" stroke="#000000" points="1651.1962,-387.3086 1640.8319,-389.507 1650.305,-394.2516 1651.1962,-387.3086"/>
</g>
<!-- [root] aws_subnet.private&#45;2 -->
<g id="node16" class="node">
<title>[root] aws_subnet.private&#45;2</title>
<polygon fill="none" stroke="#000000" points="2038.173,-324 1906.173,-324 1906.173,-288 2038.173,-288 2038.173,-324"/>
<text text-anchor="middle" x="1972.173" y="-302.3" font-family="Times,serif" font-size="14.00" fill="#000000">aws_subnet.private&#45;2</text>
</g>
<!-- [root] aws_route_table_association.main&#45;private&#45;route&#45;association&#45;1b&#45;&gt;[root] aws_subnet.private&#45;2 -->
<g id="edge16" class="edge">
<title>[root] aws_route_table_association.main&#45;private&#45;route&#45;association&#45;1b&#45;&gt;[root] aws_subnet.private&#45;2</title>
<path fill="none" stroke="#000000" d="M2094.4419,-431.7623C2069.7213,-406.3354 2024.7947,-360.1253 1996.8255,-331.3569"/>
<polygon fill="#000000" stroke="#000000" points="1999.2404,-328.8198 1989.7601,-324.0896 1994.2214,-333.6994 1999.2404,-328.8198"/>
</g>
<!-- [root] aws_route_table_association.main&#45;private&#45;route&#45;association&#45;1c -->
<g id="node10" class="node">
<title>[root] aws_route_table_association.main&#45;private&#45;route&#45;association&#45;1c</title>
<polygon fill="none" stroke="#000000" points="1913.673,-468 1554.673,-468 1554.673,-432 1913.673,-432 1913.673,-468"/>
<text text-anchor="middle" x="1734.173" y="-446.3" font-family="Times,serif" font-size="14.00" fill="#000000">aws_route_table_association.main&#45;private&#45;route&#45;association&#45;1c</text>
</g>
<!-- [root] aws_route_table_association.main&#45;private&#45;route&#45;association&#45;1c&#45;&gt;[root] aws_route_table.main&#45;private -->
<g id="edge17" class="edge">
<title>[root] aws_route_table_association.main&#45;private&#45;route&#45;association&#45;1c&#45;&gt;[root] aws_route_table.main&#45;private</title>
<path fill="none" stroke="#000000" d="M1687.9943,-431.8314C1663.1928,-422.0734 1632.448,-409.977 1606.3886,-399.7242"/>
<polygon fill="#000000" stroke="#000000" points="1607.6066,-396.4423 1597.0195,-396.038 1605.0437,-402.9563 1607.6066,-396.4423"/>
</g>
<!-- [root] aws_subnet.private&#45;3 -->
<g id="node17" class="node">
<title>[root] aws_subnet.private&#45;3</title>
<polygon fill="none" stroke="#000000" points="1748.173,-324 1616.173,-324 1616.173,-288 1748.173,-288 1748.173,-324"/>
<text text-anchor="middle" x="1682.173" y="-302.3" font-family="Times,serif" font-size="14.00" fill="#000000">aws_subnet.private&#45;3</text>
</g>
<!-- [root] aws_route_table_association.main&#45;private&#45;route&#45;association&#45;1c&#45;&gt;[root] aws_subnet.private&#45;3 -->
<g id="edge18" class="edge">
<title>[root] aws_route_table_association.main&#45;private&#45;route&#45;association&#45;1c&#45;&gt;[root] aws_subnet.private&#45;3</title>
<path fill="none" stroke="#000000" d="M1727.5871,-431.7623C1718.6396,-406.9846 1702.5654,-362.4714 1692.1374,-333.5939"/>
<polygon fill="#000000" stroke="#000000" points="1695.3938,-332.3064 1688.7053,-324.0896 1688.8099,-334.6839 1695.3938,-332.3064"/>
</g>
<!-- [root] aws_route_table_association.main&#45;public&#45;route&#45;association&#45;1a -->
<g id="node11" class="node">
<title>[root] aws_route_table_association.main&#45;public&#45;route&#45;association&#45;1a</title>
<polygon fill="none" stroke="#000000" points="1121.173,-468 765.173,-468 765.173,-432 1121.173,-432 1121.173,-468"/>
<text text-anchor="middle" x="943.173" y="-446.3" font-family="Times,serif" font-size="14.00" fill="#000000">aws_route_table_association.main&#45;public&#45;route&#45;association&#45;1a</text>
</g>
<!-- [root] aws_route_table_association.main&#45;public&#45;route&#45;association&#45;1a&#45;&gt;[root] aws_route_table.main&#45;public -->
<g id="edge19" class="edge">
<title>[root] aws_route_table_association.main&#45;public&#45;route&#45;association&#45;1a&#45;&gt;[root] aws_route_table.main&#45;public</title>
<path fill="none" stroke="#000000" d="M895.985,-431.8314C870.6414,-422.0734 839.2245,-409.977 812.5955,-399.7242"/>
<polygon fill="#000000" stroke="#000000" points="813.6114,-396.3649 803.0216,-396.038 811.0962,-402.8974 813.6114,-396.3649"/>
</g>
<!-- [root] aws_route_table_association.main&#45;public&#45;route&#45;association&#45;1a&#45;&gt;[root] aws_subnet.public&#45;1 -->
<g id="edge20" class="edge">
<title>[root] aws_route_table_association.main&#45;public&#45;route&#45;association&#45;1a&#45;&gt;[root] aws_subnet.public&#45;1</title>
<path fill="none" stroke="#000000" d="M979.4985,-431.9257C1022.3629,-409.6932 1094.6862,-369.2879 1149.173,-324 1172.127,-304.9212 1194.5364,-279.3197 1209.9439,-260.3002"/>
<polygon fill="#000000" stroke="#000000" points="1212.8013,-262.3309 1216.3031,-252.3315 1207.3299,-257.9646 1212.8013,-262.3309"/>
</g>
<!-- [root] aws_route_table_association.main&#45;public&#45;route&#45;association&#45;1b -->
<g id="node12" class="node">
<title>[root] aws_route_table_association.main&#45;public&#45;route&#45;association&#45;1b</title>
<polygon fill="none" stroke="#000000" points="373.173,-468 17.173,-468 17.173,-432 373.173,-432 373.173,-468"/>
<text text-anchor="middle" x="195.173" y="-446.3" font-family="Times,serif" font-size="14.00" fill="#000000">aws_route_table_association.main&#45;public&#45;route&#45;association&#45;1b</text>
</g>
<!-- [root] aws_route_table_association.main&#45;public&#45;route&#45;association&#45;1b&#45;&gt;[root] aws_route_table.main&#45;public -->
<g id="edge21" class="edge">
<title>[root] aws_route_table_association.main&#45;public&#45;route&#45;association&#45;1b&#45;&gt;[root] aws_route_table.main&#45;public</title>
<path fill="none" stroke="#000000" d="M335.6512,-431.9707C436.2796,-419.0558 569.2439,-401.9909 658.4793,-390.5382"/>
<polygon fill="#000000" stroke="#000000" points="659.1243,-393.9842 668.5974,-389.2397 658.2331,-387.0412 659.1243,-393.9842"/>
</g>
<!-- [root] aws_subnet.public&#45;2 -->
<g id="node19" class="node">
<title>[root] aws_subnet.public&#45;2</title>
<polygon fill="none" stroke="#000000" points="259.173,-396 131.173,-396 131.173,-360 259.173,-360 259.173,-396"/>
<text text-anchor="middle" x="195.173" y="-374.3" font-family="Times,serif" font-size="14.00" fill="#000000">aws_subnet.public&#45;2</text>
</g>
<!-- [root] aws_route_table_association.main&#45;public&#45;route&#45;association&#45;1b&#45;&gt;[root] aws_subnet.public&#45;2 -->
<g id="edge22" class="edge">
<title>[root] aws_route_table_association.main&#45;public&#45;route&#45;association&#45;1b&#45;&gt;[root] aws_subnet.public&#45;2</title>
<path fill="none" stroke="#000000" d="M195.173,-431.8314C195.173,-424.131 195.173,-414.9743 195.173,-406.4166"/>
<polygon fill="#000000" stroke="#000000" points="198.6731,-406.4132 195.173,-396.4133 191.6731,-406.4133 198.6731,-406.4132"/>
</g>
<!-- [root] aws_route_table_association.main&#45;public&#45;route&#45;association&#45;1c -->
<g id="node13" class="node">
<title>[root] aws_route_table_association.main&#45;public&#45;route&#45;association&#45;1c</title>
<polygon fill="none" stroke="#000000" points="747.173,-468 391.173,-468 391.173,-432 747.173,-432 747.173,-468"/>
<text text-anchor="middle" x="569.173" y="-446.3" font-family="Times,serif" font-size="14.00" fill="#000000">aws_route_table_association.main&#45;public&#45;route&#45;association&#45;1c</text>
</g>
<!-- [root] aws_route_table_association.main&#45;public&#45;route&#45;association&#45;1c&#45;&gt;[root] aws_route_table.main&#45;public -->
<g id="edge23" class="edge">
<title>[root] aws_route_table_association.main&#45;public&#45;route&#45;association&#45;1c&#45;&gt;[root] aws_route_table.main&#45;public</title>
<path fill="none" stroke="#000000" d="M616.361,-431.8314C641.7046,-422.0734 673.1215,-409.977 699.7504,-399.7242"/>
<polygon fill="#000000" stroke="#000000" points="701.2497,-402.8974 709.3243,-396.038 698.7345,-396.3649 701.2497,-402.8974"/>
</g>
<!-- [root] aws_subnet.public&#45;3 -->
<g id="node20" class="node">
<title>[root] aws_subnet.public&#45;3</title>
<polygon fill="none" stroke="#000000" points="405.173,-396 277.173,-396 277.173,-360 405.173,-360 405.173,-396"/>
<text text-anchor="middle" x="341.173" y="-374.3" font-family="Times,serif" font-size="14.00" fill="#000000">aws_subnet.public&#45;3</text>
</g>
<!-- [root] aws_route_table_association.main&#45;public&#45;route&#45;association&#45;1c&#45;&gt;[root] aws_subnet.public&#45;3 -->
<g id="edge24" class="edge">
<title>[root] aws_route_table_association.main&#45;public&#45;route&#45;association&#45;1c&#45;&gt;[root] aws_subnet.public&#45;3</title>
<path fill="none" stroke="#000000" d="M511.9332,-431.9243C480.3578,-421.9531 440.9825,-409.5188 408.0023,-399.104"/>
<polygon fill="#000000" stroke="#000000" points="409.0261,-395.757 398.4362,-396.0831 406.9181,-402.4321 409.0261,-395.757"/>
</g>
<!-- [root] aws_security_group.allow&#45;ssh&#45;&gt;[root] aws_vpc.main -->
<g id="edge25" class="edge">
<title>[root] aws_security_group.allow&#45;ssh&#45;&gt;[root] aws_vpc.main</title>
<path fill="none" stroke="#000000" d="M1112.1532,-215.9243C1144.7887,-205.1948 1186.0988,-191.6134 1219.096,-180.765"/>
<polygon fill="#000000" stroke="#000000" points="1220.2018,-184.0859 1228.6084,-177.6377 1218.0155,-177.436 1220.2018,-184.0859"/>
</g>
<!-- [root] aws_subnet.private&#45;1&#45;&gt;[root] aws_vpc.main -->
<g id="edge26" class="edge">
<title>[root] aws_subnet.private&#45;1&#45;&gt;[root] aws_vpc.main</title>
<path fill="none" stroke="#000000" d="M1336.7904,-287.66C1328.4142,-269.4247 1315.1013,-240.6849 1303.173,-216 1298.998,-207.3603 1294.3563,-197.9942 1290.1154,-189.5261"/>
<polygon fill="#000000" stroke="#000000" points="1293.163,-187.7957 1285.544,-180.4335 1286.9089,-190.94 1293.163,-187.7957"/>
</g>
<!-- [root] aws_subnet.private&#45;2&#45;&gt;[root] aws_vpc.main -->
<g id="edge27" class="edge">
<title>[root] aws_subnet.private&#45;2&#45;&gt;[root] aws_vpc.main</title>
<path fill="none" stroke="#000000" d="M1905.9853,-291.1986C1823.9913,-272.9738 1679.9663,-241.325 1556.173,-216 1479.3043,-200.2746 1390.2986,-183.3238 1333.6441,-172.6916"/>
<polygon fill="#000000" stroke="#000000" points="1334.2724,-169.2485 1323.7988,-170.8465 1332.9829,-176.1287 1334.2724,-169.2485"/>
</g>
<!-- [root] aws_subnet.private&#45;3&#45;&gt;[root] aws_vpc.main -->
<g id="edge28" class="edge">
<title>[root] aws_subnet.private&#45;3&#45;&gt;[root] aws_vpc.main</title>
<path fill="none" stroke="#000000" d="M1635.6552,-287.9824C1613.3386,-278.5292 1586.6372,-266.0044 1564.173,-252 1542.7313,-238.6331 1542.9051,-227.0304 1520.173,-216 1460.4665,-187.0284 1384.9985,-173.3995 1333.9203,-167.1218"/>
<polygon fill="#000000" stroke="#000000" points="1334.0634,-163.6147 1323.7238,-165.9264 1333.2482,-170.5671 1334.0634,-163.6147"/>
</g>
<!-- [root] aws_subnet.public&#45;1&#45;&gt;[root] aws_vpc.main -->
<g id="edge29" class="edge">
<title>[root] aws_subnet.public&#45;1&#45;&gt;[root] aws_vpc.main</title>
<path fill="none" stroke="#000000" d="M1241.7807,-215.8314C1246.9707,-207.7079 1253.1961,-197.9637 1258.9154,-189.0118"/>
<polygon fill="#000000" stroke="#000000" points="1261.9744,-190.7246 1264.4089,-180.4133 1256.0756,-186.9559 1261.9744,-190.7246"/>
</g>
<!-- [root] aws_subnet.public&#45;2&#45;&gt;[root] aws_vpc.main -->
<g id="edge30" class="edge">
<title>[root] aws_subnet.public&#45;2&#45;&gt;[root] aws_vpc.main</title>
<path fill="none" stroke="#000000" d="M259.2112,-361.9521C262.2367,-361.275 265.2356,-360.6206 268.173,-360 538.4104,-302.9057 623.8104,-354.7922 880.173,-252 906.9454,-241.2652 907.3046,-226.4925 934.173,-216 984.833,-196.2166 1134.7493,-177.4207 1218.2927,-168.1007"/>
<polygon fill="#000000" stroke="#000000" points="1218.8331,-171.5624 1228.3879,-166.9846 1218.0638,-164.6048 1218.8331,-171.5624"/>
</g>
<!-- [root] aws_subnet.public&#45;3&#45;&gt;[root] aws_vpc.main -->
<g id="edge31" class="edge">
<title>[root] aws_subnet.public&#45;3&#45;&gt;[root] aws_vpc.main</title>
<path fill="none" stroke="#000000" d="M405.3648,-360.8416C406.9803,-360.543 408.585,-360.2616 410.173,-360 465.5692,-350.8756 868.861,-357.1486 914.173,-324 955.8707,-293.4954 916.9931,-248.4779 957.173,-216 996.3943,-184.297 1137.5483,-170.5005 1218.3368,-165.0883"/>
<polygon fill="#000000" stroke="#000000" points="1218.606,-168.5783 1228.3588,-164.4391 1218.1534,-161.5929 1218.606,-168.5783"/>
</g>
<!-- [root] aws_vpc.main&#45;&gt;[root] provider.aws -->
<g id="edge32" class="edge">
<title>[root] aws_vpc.main&#45;&gt;[root] provider.aws</title>
<path fill="none" stroke="#000000" d="M1276.173,-143.8314C1276.173,-136.131 1276.173,-126.9743 1276.173,-118.4166"/>
<polygon fill="#000000" stroke="#000000" points="1279.6731,-118.4132 1276.173,-108.4133 1272.6731,-118.4133 1279.6731,-118.4132"/>
</g>
<!-- [root] var.ACCESS_KEY_ID -->
<g id="node23" class="node">
<title>[root] var.ACCESS_KEY_ID</title>
<polygon fill="none" stroke="#000000" points="1189.173,-36 1051.173,-36 1051.173,0 1195.173,0 1195.173,-30 1189.173,-36"/>
<polyline fill="none" stroke="#000000" points="1189.173,-36 1189.173,-30 "/>
<polyline fill="none" stroke="#000000" points="1195.173,-30 1189.173,-30 "/>
<text text-anchor="middle" x="1123.173" y="-14.3" font-family="Times,serif" font-size="14.00" fill="#000000">var.ACCESS_KEY_ID</text>
</g>
<!-- [root] provider.aws&#45;&gt;[root] var.ACCESS_KEY_ID -->
<g id="edge47" class="edge">
<title>[root] provider.aws&#45;&gt;[root] var.ACCESS_KEY_ID</title>
<path fill="none" stroke="#000000" d="M1250.2186,-77.7862C1228.578,-67.6024 1197.1696,-52.8219 1170.9971,-40.5055"/>
<polygon fill="#000000" stroke="#000000" points="1172.1578,-37.1836 1161.6193,-36.0924 1169.1772,-43.5173 1172.1578,-37.1836"/>
</g>
<!-- [root] var.AWS_REGION -->
<g id="node24" class="node">
<title>[root] var.AWS_REGION</title>
<polygon fill="none" stroke="#000000" points="1333.173,-36 1213.173,-36 1213.173,0 1339.173,0 1339.173,-30 1333.173,-36"/>
<polyline fill="none" stroke="#000000" points="1333.173,-36 1333.173,-30 "/>
<polyline fill="none" stroke="#000000" points="1339.173,-30 1333.173,-30 "/>
<text text-anchor="middle" x="1276.173" y="-14.3" font-family="Times,serif" font-size="14.00" fill="#000000">var.AWS_REGION</text>
</g>
<!-- [root] provider.aws&#45;&gt;[root] var.AWS_REGION -->
<g id="edge48" class="edge">
<title>[root] provider.aws&#45;&gt;[root] var.AWS_REGION</title>
<path fill="none" stroke="#000000" d="M1276.173,-71.8314C1276.173,-64.131 1276.173,-54.9743 1276.173,-46.4166"/>
<polygon fill="#000000" stroke="#000000" points="1279.6731,-46.4132 1276.173,-36.4133 1272.6731,-46.4133 1279.6731,-46.4132"/>
</g>
<!-- [root] var.SECRET_KEY -->
<g id="node26" class="node">
<title>[root] var.SECRET_KEY</title>
<polygon fill="none" stroke="#000000" points="1473.173,-36 1357.173,-36 1357.173,0 1479.173,0 1479.173,-30 1473.173,-36"/>
<polyline fill="none" stroke="#000000" points="1473.173,-36 1473.173,-30 "/>
<polyline fill="none" stroke="#000000" points="1479.173,-30 1473.173,-30 "/>
<text text-anchor="middle" x="1418.173" y="-14.3" font-family="Times,serif" font-size="14.00" fill="#000000">var.SECRET_KEY</text>
</g>
<!-- [root] provider.aws&#45;&gt;[root] var.SECRET_KEY -->
<g id="edge49" class="edge">
<title>[root] provider.aws&#45;&gt;[root] var.SECRET_KEY</title>
<path fill="none" stroke="#000000" d="M1300.9075,-77.4586C1320.9179,-67.3124 1349.6127,-52.7629 1373.6081,-40.5963"/>
<polygon fill="#000000" stroke="#000000" points="1375.2104,-43.7081 1382.5465,-36.0641 1372.0447,-37.4648 1375.2104,-43.7081"/>
</g>
<!-- [root] meta.count&#45;boundary (EachMode fixup) -->
<g id="node27" class="node">
<title>[root] meta.count&#45;boundary (EachMode fixup)</title>
<ellipse fill="none" stroke="#000000" cx="896.173" cy="-522" rx="176.5689" ry="18"/>
<text text-anchor="middle" x="896.173" y="-518.3" font-family="Times,serif" font-size="14.00" fill="#000000">[root] meta.count&#45;boundary (EachMode fixup)</text>
</g>
<!-- [root] meta.count&#45;boundary (EachMode fixup)&#45;&gt;[root] aws_instance.public&#45;vm&#45;1a -->
<g id="edge33" class="edge">
<title>[root] meta.count&#45;boundary (EachMode fixup)&#45;&gt;[root] aws_instance.public&#45;vm&#45;1a</title>
<path fill="none" stroke="#000000" d="M733.5087,-514.9135C480.5634,-503.5054 20.4364,-481.0318 8.173,-468 -2.792,-456.348 -2.6296,-443.8028 8.173,-432 38.7496,-398.5922 369.1954,-401.2941 414.173,-396 523.4765,-383.1343 550.1026,-374.7118 659.173,-360 789.197,-342.4619 822.3677,-343.0895 952.173,-324 956.0756,-323.4261 960.0568,-322.8228 964.0764,-322.1991"/>
<polygon fill="#000000" stroke="#000000" points="964.7927,-325.6295 974.124,-320.6118 963.7003,-318.7152 964.7927,-325.6295"/>
</g>
<!-- [root] meta.count&#45;boundary (EachMode fixup)&#45;&gt;[root] aws_route_table_association.main&#45;private&#45;route&#45;association&#45;1a -->
<g id="edge34" class="edge">
<title>[root] meta.count&#45;boundary (EachMode fixup)&#45;&gt;[root] aws_route_table_association.main&#45;private&#45;route&#45;association&#45;1a</title>
<path fill="none" stroke="#000000" d="M992.8137,-506.9064C1062.3003,-496.0539 1156.6241,-481.3222 1231.8907,-469.5669"/>
<polygon fill="#000000" stroke="#000000" points="1232.5693,-473.0034 1241.9094,-468.0021 1231.4891,-466.0872 1232.5693,-473.0034"/>
</g>
<!-- [root] meta.count&#45;boundary (EachMode fixup)&#45;&gt;[root] aws_route_table_association.main&#45;private&#45;route&#45;association&#45;1b -->
<g id="edge35" class="edge">
<title>[root] meta.count&#45;boundary (EachMode fixup)&#45;&gt;[root] aws_route_table_association.main&#45;private&#45;route&#45;association&#45;1b</title>
<path fill="none" stroke="#000000" d="M1019.6576,-509.1126C1040.5083,-507.2054 1061.9455,-505.4107 1082.173,-504 1452.1064,-478.201 1548.2561,-493.4697 1922.1116,-468.0506"/>
<polygon fill="#000000" stroke="#000000" points="1922.385,-471.5401 1932.1224,-467.3647 1921.9065,-464.5565 1922.385,-471.5401"/>
</g>
<!-- [root] meta.count&#45;boundary (EachMode fixup)&#45;&gt;[root] aws_route_table_association.main&#45;private&#45;route&#45;association&#45;1c -->
<g id="edge36" class="edge">
<title>[root] meta.count&#45;boundary (EachMode fixup)&#45;&gt;[root] aws_route_table_association.main&#45;private&#45;route&#45;association&#45;1c</title>
<path fill="none" stroke="#000000" d="M1022.9613,-509.4072C1042.7747,-507.5326 1063.0235,-505.6709 1082.173,-504 1284.4774,-486.3477 1337.8341,-485.7983 1544.3411,-468.0624"/>
<polygon fill="#000000" stroke="#000000" points="1544.9493,-471.523 1554.6117,-467.177 1544.348,-464.5489 1544.9493,-471.523"/>
</g>
<!-- [root] meta.count&#45;boundary (EachMode fixup)&#45;&gt;[root] aws_route_table_association.main&#45;public&#45;route&#45;association&#45;1a -->
<g id="edge37" class="edge">
<title>[root] meta.count&#45;boundary (EachMode fixup)&#45;&gt;[root] aws_route_table_association.main&#45;public&#45;route&#45;association&#45;1a</title>
<path fill="none" stroke="#000000" d="M908.033,-503.8314C913.3359,-495.7079 919.6966,-485.9637 925.5403,-477.0118"/>
<polygon fill="#000000" stroke="#000000" points="928.6178,-478.7003 931.1532,-468.4133 922.7561,-474.8739 928.6178,-478.7003"/>
</g>
<!-- [root] meta.count&#45;boundary (EachMode fixup)&#45;&gt;[root] aws_route_table_association.main&#45;public&#45;route&#45;association&#45;1b -->
<g id="edge38" class="edge">
<title>[root] meta.count&#45;boundary (EachMode fixup)&#45;&gt;[root] aws_route_table_association.main&#45;public&#45;route&#45;association&#45;1b</title>
<path fill="none" stroke="#000000" d="M771.656,-509.2108C663.0577,-498.0566 504.003,-481.7201 380.4583,-469.0307"/>
<polygon fill="#000000" stroke="#000000" points="380.8061,-465.5481 370.5008,-468.008 380.0909,-472.5115 380.8061,-465.5481"/>
</g>
<!-- [root] meta.count&#45;boundary (EachMode fixup)&#45;&gt;[root] aws_route_table_association.main&#45;public&#45;route&#45;association&#45;1c -->
<g id="edge39" class="edge">
<title>[root] meta.count&#45;boundary (EachMode fixup)&#45;&gt;[root] aws_route_table_association.main&#45;public&#45;route&#45;association&#45;1c</title>
<path fill="none" stroke="#000000" d="M821.9716,-505.6621C774.274,-495.1599 711.9502,-481.4372 661.1203,-470.2453"/>
<polygon fill="#000000" stroke="#000000" points="661.634,-466.7746 651.1153,-468.0423 660.1287,-473.6109 661.634,-466.7746"/>
</g>
<!-- [root] provider.aws (close) -->
<g id="node28" class="node">
<title>[root] provider.aws (close)</title>
<ellipse fill="none" stroke="#000000" cx="1196.173" cy="-522" rx="105.0817" ry="18"/>
<text text-anchor="middle" x="1196.173" y="-518.3" font-family="Times,serif" font-size="14.00" fill="#000000">[root] provider.aws (close)</text>
</g>
<!-- [root] provider.aws (close)&#45;&gt;[root] aws_instance.public&#45;vm&#45;1a -->
<g id="edge40" class="edge">
<title>[root] provider.aws (close)&#45;&gt;[root] aws_instance.public&#45;vm&#45;1a</title>
<path fill="none" stroke="#000000" d="M1184.561,-503.9555C1160.0827,-465.9173 1103.0835,-377.3431 1074.3631,-332.7127"/>
<polygon fill="#000000" stroke="#000000" points="1077.2045,-330.6603 1068.8497,-324.1451 1071.318,-334.4484 1077.2045,-330.6603"/>
</g>
<!-- [root] provider.aws (close)&#45;&gt;[root] aws_route_table_association.main&#45;private&#45;route&#45;association&#45;1a -->
<g id="edge41" class="edge">
<title>[root] provider.aws (close)&#45;&gt;[root] aws_route_table_association.main&#45;private&#45;route&#45;association&#45;1a</title>
<path fill="none" stroke="#000000" d="M1233.9203,-505.1192C1255.91,-495.2853 1283.8956,-482.77 1307.6401,-472.1513"/>
<polygon fill="#000000" stroke="#000000" points="1309.1479,-475.3112 1316.8477,-468.0336 1306.2901,-468.9211 1309.1479,-475.3112"/>
</g>
<!-- [root] provider.aws (close)&#45;&gt;[root] aws_route_table_association.main&#45;private&#45;route&#45;association&#45;1b -->
<g id="edge42" class="edge">
<title>[root] provider.aws (close)&#45;&gt;[root] aws_route_table_association.main&#45;private&#45;route&#45;association&#45;1b</title>
<path fill="none" stroke="#000000" d="M1294.1175,-515.3746C1431.7493,-505.9189 1690.5025,-487.6106 1921.8149,-468.1059"/>
<polygon fill="#000000" stroke="#000000" points="1922.4429,-471.5653 1932.1125,-467.2352 1921.8531,-464.5902 1922.4429,-471.5653"/>
</g>
<!-- [root] provider.aws (close)&#45;&gt;[root] aws_route_table_association.main&#45;private&#45;route&#45;association&#45;1c -->
<g id="edge43" class="edge">
<title>[root] provider.aws (close)&#45;&gt;[root] aws_route_table_association.main&#45;private&#45;route&#45;association&#45;1c</title>
<path fill="none" stroke="#000000" d="M1279.3506,-510.8684C1361.9033,-499.8205 1490.1159,-482.6619 1589.3984,-469.375"/>
<polygon fill="#000000" stroke="#000000" points="1590.0748,-472.8158 1599.5221,-468.0202 1589.1462,-465.8777 1590.0748,-472.8158"/>
</g>
<!-- [root] provider.aws (close)&#45;&gt;[root] aws_route_table_association.main&#45;public&#45;route&#45;association&#45;1a -->
<g id="edge44" class="edge">
<title>[root] provider.aws (close)&#45;&gt;[root] aws_route_table_association.main&#45;public&#45;route&#45;association&#45;1a</title>
<path fill="none" stroke="#000000" d="M1141.8981,-506.5542C1105.2793,-496.133 1056.5172,-482.2561 1016.4604,-470.8565"/>
<polygon fill="#000000" stroke="#000000" points="1017.3174,-467.4615 1006.7413,-468.0906 1015.4013,-474.1942 1017.3174,-467.4615"/>
</g>
<!-- [root] provider.aws (close)&#45;&gt;[root] aws_route_table_association.main&#45;public&#45;route&#45;association&#45;1b -->
<g id="edge45" class="edge">
<title>[root] provider.aws (close)&#45;&gt;[root] aws_route_table_association.main&#45;public&#45;route&#45;association&#45;1b</title>
<path fill="none" stroke="#000000" d="M1122.1211,-509.1497C1108.8516,-507.1778 1095.1266,-505.352 1082.173,-504 775.662,-472.0097 694.5844,-490.5218 383.5351,-468.0772"/>
<polygon fill="#000000" stroke="#000000" points="383.5486,-464.5689 373.3202,-467.3314 383.0388,-471.5504 383.5486,-464.5689"/>
</g>
<!-- [root] provider.aws (close)&#45;&gt;[root] aws_route_table_association.main&#45;public&#45;route&#45;association&#45;1c -->
<g id="edge46" class="edge">
<title>[root] provider.aws (close)&#45;&gt;[root] aws_route_table_association.main&#45;public&#45;route&#45;association&#45;1c</title>
<path fill="none" stroke="#000000" d="M1120.214,-509.4462C1107.5273,-507.5104 1094.4898,-505.6195 1082.173,-504 1021.0176,-495.9587 877.1396,-480.9359 757.2717,-468.7733"/>
<polygon fill="#000000" stroke="#000000" points="757.5236,-465.281 747.2216,-467.7545 756.8176,-472.2453 757.5236,-465.281"/>
</g>
<!-- [root] root -->
<g id="node29" class="node">
<title>[root] root</title>
<ellipse fill="none" stroke="#000000" cx="1046.173" cy="-594" rx="47.3916" ry="18"/>
<text text-anchor="middle" x="1046.173" y="-590.3" font-family="Times,serif" font-size="14.00" fill="#000000">[root] root</text>
</g>
<!-- [root] root&#45;&gt;[root] meta.count&#45;boundary (EachMode fixup) -->
<g id="edge50" class="edge">
<title>[root] root&#45;&gt;[root] meta.count&#45;boundary (EachMode fixup)</title>
<path fill="none" stroke="#000000" d="M1016.5378,-579.7751C995.2638,-569.5636 966.1896,-555.608 941.9455,-543.9708"/>
<polygon fill="#000000" stroke="#000000" points="943.4464,-540.809 932.9166,-539.6369 940.4173,-547.1196 943.4464,-540.809"/>
</g>
<!-- [root] root&#45;&gt;[root] provider.aws (close) -->
<g id="edge51" class="edge">
<title>[root] root&#45;&gt;[root] provider.aws (close)</title>
<path fill="none" stroke="#000000" d="M1075.8081,-579.7751C1097.4607,-569.3819 1127.1935,-555.1101 1151.6899,-543.3519"/>
<polygon fill="#000000" stroke="#000000" points="1153.2936,-546.4645 1160.7942,-538.9818 1150.2644,-540.1538 1153.2936,-546.4645"/>
</g>
</g>
</svg>
