<?xml version="1.0" encoding="UTF-8" standalone="no"?>
<!DOCTYPE svg PUBLIC "-//W3C//DTD SVG 1.1//EN"
 "http://www.w3.org/Graphics/SVG/1.1/DTD/svg11.dtd">
<!-- Generated by graphviz version 2.40.1 (20161225.0304)
 -->
<!-- Title: %3 Pages: 1 -->
<svg width="1226pt" height="692pt"
 viewBox="0.00 0.00 1225.50 692.00" xmlns="http://www.w3.org/2000/svg" xmlns:xlink="http://www.w3.org/1999/xlink">
<g id="graph0" class="graph" transform="scale(1 1) rotate(0) translate(4 688)">
<title>%3</title>
<polygon fill="#ffffff" stroke="transparent" points="-4,4 -4,-688 1221.5,-688 1221.5,4 -4,4"/>
<!-- [root] aws_elb.web -->
<g id="node1" class="node">
<title>[root] aws_elb.web</title>
<polygon fill="none" stroke="#000000" points="387,-468 300,-468 300,-432 387,-432 387,-468"/>
<text text-anchor="middle" x="343.5" y="-446.3" font-family="Times,serif" font-size="14.00" fill="#000000">aws_elb.web</text>
</g>
<!-- [root] aws_instance.web -->
<g id="node2" class="node">
<title>[root] aws_instance.web</title>
<polygon fill="none" stroke="#000000" points="528,-396 413,-396 413,-360 528,-360 528,-396"/>
<text text-anchor="middle" x="470.5" y="-374.3" font-family="Times,serif" font-size="14.00" fill="#000000">aws_instance.web</text>
</g>
<!-- [root] aws_elb.web&#45;&gt;[root] aws_instance.web -->
<g id="edge1" class="edge">
<title>[root] aws_elb.web&#45;&gt;[root] aws_instance.web</title>
<path fill="none" stroke="#000000" d="M375.5475,-431.8314C391.942,-422.5368 412.0786,-411.1208 429.5829,-401.1971"/>
<polygon fill="#000000" stroke="#000000" points="431.4897,-404.1395 438.4628,-396.1628 428.0374,-398.05 431.4897,-404.1395"/>
</g>
<!-- [root] aws_security_group.web_inbound_sg -->
<g id="node5" class="node">
<title>[root] aws_security_group.web_inbound_sg</title>
<polygon fill="none" stroke="#000000" points="386,-396 165,-396 165,-360 386,-360 386,-396"/>
<text text-anchor="middle" x="275.5" y="-374.3" font-family="Times,serif" font-size="14.00" fill="#000000">aws_security_group.web_inbound_sg</text>
</g>
<!-- [root] aws_elb.web&#45;&gt;[root] aws_security_group.web_inbound_sg -->
<g id="edge2" class="edge">
<title>[root] aws_elb.web&#45;&gt;[root] aws_security_group.web_inbound_sg</title>
<path fill="none" stroke="#000000" d="M326.3407,-431.8314C318.3489,-423.3694 308.6962,-413.1489 299.9584,-403.8971"/>
<polygon fill="#000000" stroke="#000000" points="302.3011,-401.2802 292.8903,-396.4133 297.212,-406.0866 302.3011,-401.2802"/>
</g>
<!-- [root] aws_key_pair.mykeypair -->
<g id="node3" class="node">
<title>[root] aws_key_pair.mykeypair</title>
<polygon fill="none" stroke="#000000" points="299.5,-252 145.5,-252 145.5,-216 299.5,-216 299.5,-252"/>
<text text-anchor="middle" x="222.5" y="-230.3" font-family="Times,serif" font-size="14.00" fill="#000000">aws_key_pair.mykeypair</text>
</g>
<!-- [root] aws_instance.web&#45;&gt;[root] aws_key_pair.mykeypair -->
<g id="edge3" class="edge">
<title>[root] aws_instance.web&#45;&gt;[root] aws_key_pair.mykeypair</title>
<path fill="none" stroke="#000000" d="M412.8047,-363.8969C351.3625,-348.7803 262.4784,-326.5894 259.5,-324 241.3691,-308.2371 231.9641,-282.2138 227.1854,-262.1939"/>
<polygon fill="#000000" stroke="#000000" points="230.5965,-261.4075 225.0864,-252.3582 223.7506,-262.8685 230.5965,-261.4075"/>
</g>
<!-- [root] aws_security_group.web_host_sg -->
<g id="node4" class="node">
<title>[root] aws_security_group.web_host_sg</title>
<polygon fill="none" stroke="#000000" points="598.5,-324 398.5,-324 398.5,-288 598.5,-288 598.5,-324"/>
<text text-anchor="middle" x="498.5" y="-302.3" font-family="Times,serif" font-size="14.00" fill="#000000">aws_security_group.web_host_sg</text>
</g>
<!-- [root] aws_instance.web&#45;&gt;[root] aws_security_group.web_host_sg -->
<g id="edge4" class="edge">
<title>[root] aws_instance.web&#45;&gt;[root] aws_security_group.web_host_sg</title>
<path fill="none" stroke="#000000" d="M477.5656,-359.8314C480.626,-351.9617 484.2779,-342.5712 487.6682,-333.8533"/>
<polygon fill="#000000" stroke="#000000" points="490.9768,-335.0019 491.3393,-324.4133 484.4527,-332.4647 490.9768,-335.0019"/>
</g>
<!-- [root] module.vpc_basic.output.public_subnet_id -->
<g id="node11" class="node">
<title>[root] module.vpc_basic.output.public_subnet_id</title>
<polygon fill="none" stroke="#000000" points="939,-324 694,-324 694,-288 945,-288 945,-318 939,-324"/>
<polyline fill="none" stroke="#000000" points="939,-324 939,-318 "/>
<polyline fill="none" stroke="#000000" points="945,-318 939,-318 "/>
<text text-anchor="middle" x="819.5" y="-302.3" font-family="Times,serif" font-size="14.00" fill="#000000">module.vpc_basic.output.public_subnet_id</text>
</g>
<!-- [root] aws_instance.web&#45;&gt;[root] module.vpc_basic.output.public_subnet_id -->
<g id="edge5" class="edge">
<title>[root] aws_instance.web&#45;&gt;[root] module.vpc_basic.output.public_subnet_id</title>
<path fill="none" stroke="#000000" d="M528.1303,-366.1107C580.7814,-355.2485 659.7035,-338.9666 722.1345,-326.0869"/>
<polygon fill="#000000" stroke="#000000" points="722.9195,-329.4987 732.0061,-324.0503 721.5051,-322.6431 722.9195,-329.4987"/>
</g>
<!-- [root] var.ami -->
<g id="node23" class="node">
<title>[root] var.ami</title>
<polygon fill="none" stroke="#000000" points="670,-324 617,-324 617,-288 676,-288 676,-318 670,-324"/>
<polyline fill="none" stroke="#000000" points="670,-324 670,-318 "/>
<polyline fill="none" stroke="#000000" points="676,-318 670,-318 "/>
<text text-anchor="middle" x="646.5" y="-302.3" font-family="Times,serif" font-size="14.00" fill="#000000">var.ami</text>
</g>
<!-- [root] aws_instance.web&#45;&gt;[root] var.ami -->
<g id="edge6" class="edge">
<title>[root] aws_instance.web&#45;&gt;[root] var.ami</title>
<path fill="none" stroke="#000000" d="M518.3237,-359.918C544.7627,-349.7294 578.1148,-336.5604 607.5,-324 607.5943,-323.9597 607.6887,-323.9193 607.7832,-323.8788"/>
<polygon fill="#000000" stroke="#000000" points="609.0182,-327.1592 616.7676,-319.9343 606.2041,-320.7497 609.0182,-327.1592"/>
</g>
<!-- [root] var.instance_type -->
<g id="node24" class="node">
<title>[root] var.instance_type</title>
<polygon fill="none" stroke="#000000" points="374.5,-324 268.5,-324 268.5,-288 380.5,-288 380.5,-318 374.5,-324"/>
<polyline fill="none" stroke="#000000" points="374.5,-324 374.5,-318 "/>
<polyline fill="none" stroke="#000000" points="380.5,-318 374.5,-318 "/>
<text text-anchor="middle" x="324.5" y="-302.3" font-family="Times,serif" font-size="14.00" fill="#000000">var.instance_type</text>
</g>
<!-- [root] aws_instance.web&#45;&gt;[root] var.instance_type -->
<g id="edge7" class="edge">
<title>[root] aws_instance.web&#45;&gt;[root] var.instance_type</title>
<path fill="none" stroke="#000000" d="M433.658,-359.8314C414.3918,-350.3302 390.6301,-338.6121 370.2008,-328.5374"/>
<polygon fill="#000000" stroke="#000000" points="371.5938,-325.3219 361.077,-324.038 368.4977,-331.6 371.5938,-325.3219"/>
</g>
<!-- [root] provider.aws -->
<g id="node22" class="node">
<title>[root] provider.aws</title>
<polygon fill="none" stroke="#000000" points="219.5,-108 139.5666,-90 219.5,-72 299.4334,-90 219.5,-108"/>
<text text-anchor="middle" x="219.5" y="-86.3" font-family="Times,serif" font-size="14.00" fill="#000000">provider.aws</text>
</g>
<!-- [root] aws_key_pair.mykeypair&#45;&gt;[root] provider.aws -->
<g id="edge8" class="edge">
<title>[root] aws_key_pair.mykeypair&#45;&gt;[root] provider.aws</title>
<path fill="none" stroke="#000000" d="M222.12,-215.7623C221.6084,-191.201 220.6927,-147.2474 220.0907,-118.3541"/>
<polygon fill="#000000" stroke="#000000" points="223.5845,-118.0145 219.8769,-108.0896 216.586,-118.1604 223.5845,-118.0145"/>
</g>
<!-- [root] module.vpc_basic.output.cidr -->
<g id="node10" class="node">
<title>[root] module.vpc_basic.output.cidr</title>
<polygon fill="none" stroke="#000000" points="703,-252 530,-252 530,-216 709,-216 709,-246 703,-252"/>
<polyline fill="none" stroke="#000000" points="703,-252 703,-246 "/>
<polyline fill="none" stroke="#000000" points="709,-246 703,-246 "/>
<text text-anchor="middle" x="619.5" y="-230.3" font-family="Times,serif" font-size="14.00" fill="#000000">module.vpc_basic.output.cidr</text>
</g>
<!-- [root] aws_security_group.web_host_sg&#45;&gt;[root] module.vpc_basic.output.cidr -->
<g id="edge9" class="edge">
<title>[root] aws_security_group.web_host_sg&#45;&gt;[root] module.vpc_basic.output.cidr</title>
<path fill="none" stroke="#000000" d="M529.0334,-287.8314C544.5101,-278.6221 563.4869,-267.3301 580.0563,-257.4706"/>
<polygon fill="#000000" stroke="#000000" points="582.1724,-260.2843 588.9764,-252.1628 578.5929,-254.2687 582.1724,-260.2843"/>
</g>
<!-- [root] module.vpc_basic.output.vpc_id -->
<g id="node12" class="node">
<title>[root] module.vpc_basic.output.vpc_id</title>
<polygon fill="none" stroke="#000000" points="505.5,-252 317.5,-252 317.5,-216 511.5,-216 511.5,-246 505.5,-252"/>
<polyline fill="none" stroke="#000000" points="505.5,-252 505.5,-246 "/>
<polyline fill="none" stroke="#000000" points="511.5,-246 505.5,-246 "/>
<text text-anchor="middle" x="414.5" y="-230.3" font-family="Times,serif" font-size="14.00" fill="#000000">module.vpc_basic.output.vpc_id</text>
</g>
<!-- [root] aws_security_group.web_host_sg&#45;&gt;[root] module.vpc_basic.output.vpc_id -->
<g id="edge10" class="edge">
<title>[root] aws_security_group.web_host_sg&#45;&gt;[root] module.vpc_basic.output.vpc_id</title>
<path fill="none" stroke="#000000" d="M477.3033,-287.8314C467.0566,-279.0485 454.5997,-268.3712 443.4903,-258.8489"/>
<polygon fill="#000000" stroke="#000000" points="445.5603,-256.0134 435.69,-252.1628 441.0048,-261.3282 445.5603,-256.0134"/>
</g>
<!-- [root] aws_security_group.web_inbound_sg&#45;&gt;[root] module.vpc_basic.output.vpc_id -->
<g id="edge11" class="edge">
<title>[root] aws_security_group.web_inbound_sg&#45;&gt;[root] module.vpc_basic.output.vpc_id</title>
<path fill="none" stroke="#000000" d="M264.945,-359.704C255.231,-340.1852 244.4246,-309.2162 259.5,-288 268.3246,-275.5809 296.8189,-264.1154 327.0119,-254.9736"/>
<polygon fill="#000000" stroke="#000000" points="328.2403,-258.2609 336.8518,-252.0889 326.271,-251.5436 328.2403,-258.2609"/>
</g>
<!-- [root] module.vpc_basic.aws_internet_gateway.tfb -->
<g id="node6" class="node">
<title>[root] module.vpc_basic.aws_internet_gateway.tfb</title>
<polygon fill="none" stroke="#000000" points="259,-468 0,-468 0,-432 259,-432 259,-468"/>
<text text-anchor="middle" x="129.5" y="-446.3" font-family="Times,serif" font-size="14.00" fill="#000000">module.vpc_basic.aws_internet_gateway.tfb</text>
</g>
<!-- [root] module.vpc_basic.aws_vpc.tfb -->
<g id="node9" class="node">
<title>[root] module.vpc_basic.aws_vpc.tfb</title>
<polygon fill="none" stroke="#000000" points="677,-180 492,-180 492,-144 677,-144 677,-180"/>
<text text-anchor="middle" x="584.5" y="-158.3" font-family="Times,serif" font-size="14.00" fill="#000000">module.vpc_basic.aws_vpc.tfb</text>
</g>
<!-- [root] module.vpc_basic.aws_internet_gateway.tfb&#45;&gt;[root] module.vpc_basic.aws_vpc.tfb -->
<g id="edge16" class="edge">
<title>[root] module.vpc_basic.aws_internet_gateway.tfb&#45;&gt;[root] module.vpc_basic.aws_vpc.tfb</title>
<path fill="none" stroke="#000000" d="M123.1194,-431.8956C109.0537,-388.3584 80.8448,-276.9071 136.5,-216 159.4124,-190.9255 356.8877,-175.0417 481.8936,-167.4038"/>
<polygon fill="#000000" stroke="#000000" points="482.114,-170.8969 491.8852,-166.8014 481.6927,-163.9096 482.114,-170.8969"/>
</g>
<!-- [root] module.vpc_basic.aws_route.internet_access -->
<g id="node7" class="node">
<title>[root] module.vpc_basic.aws_route.internet_access</title>
<polygon fill="none" stroke="#000000" points="305,-540 44,-540 44,-504 305,-504 305,-540"/>
<text text-anchor="middle" x="174.5" y="-518.3" font-family="Times,serif" font-size="14.00" fill="#000000">module.vpc_basic.aws_route.internet_access</text>
</g>
<!-- [root] module.vpc_basic.aws_route.internet_access&#45;&gt;[root] module.vpc_basic.aws_internet_gateway.tfb -->
<g id="edge17" class="edge">
<title>[root] module.vpc_basic.aws_route.internet_access&#45;&gt;[root] module.vpc_basic.aws_internet_gateway.tfb</title>
<path fill="none" stroke="#000000" d="M163.1446,-503.8314C158.0674,-495.7079 151.9773,-485.9637 146.3824,-477.0118"/>
<polygon fill="#000000" stroke="#000000" points="149.2763,-475.0383 141.0083,-468.4133 143.3403,-478.7483 149.2763,-475.0383"/>
</g>
<!-- [root] module.vpc_basic.aws_subnet.public -->
<g id="node8" class="node">
<title>[root] module.vpc_basic.aws_subnet.public</title>
<polygon fill="none" stroke="#000000" points="947.5,-252 727.5,-252 727.5,-216 947.5,-216 947.5,-252"/>
<text text-anchor="middle" x="837.5" y="-230.3" font-family="Times,serif" font-size="14.00" fill="#000000">module.vpc_basic.aws_subnet.public</text>
</g>
<!-- [root] module.vpc_basic.aws_subnet.public&#45;&gt;[root] module.vpc_basic.aws_vpc.tfb -->
<g id="edge18" class="edge">
<title>[root] module.vpc_basic.aws_subnet.public&#45;&gt;[root] module.vpc_basic.aws_vpc.tfb</title>
<path fill="none" stroke="#000000" d="M773.984,-215.9243C738.6455,-205.8675 694.5029,-193.3052 657.7163,-182.8363"/>
<polygon fill="#000000" stroke="#000000" points="658.6183,-179.454 648.0422,-180.0831 656.7022,-186.1867 658.6183,-179.454"/>
</g>
<!-- [root] module.vpc_basic.var.map_public_ip_on_launch -->
<g id="node16" class="node">
<title>[root] module.vpc_basic.var.map_public_ip_on_launch</title>
<polygon fill="none" stroke="#000000" points="974,-180 695,-180 695,-144 980,-144 980,-174 974,-180"/>
<polyline fill="none" stroke="#000000" points="974,-180 974,-174 "/>
<polyline fill="none" stroke="#000000" points="980,-174 974,-174 "/>
<text text-anchor="middle" x="837.5" y="-158.3" font-family="Times,serif" font-size="14.00" fill="#000000">module.vpc_basic.var.map_public_ip_on_launch</text>
</g>
<!-- [root] module.vpc_basic.aws_subnet.public&#45;&gt;[root] module.vpc_basic.var.map_public_ip_on_launch -->
<g id="edge19" class="edge">
<title>[root] module.vpc_basic.aws_subnet.public&#45;&gt;[root] module.vpc_basic.var.map_public_ip_on_launch</title>
<path fill="none" stroke="#000000" d="M837.5,-215.8314C837.5,-208.131 837.5,-198.9743 837.5,-190.4166"/>
<polygon fill="#000000" stroke="#000000" points="841.0001,-190.4132 837.5,-180.4133 834.0001,-190.4133 841.0001,-190.4132"/>
</g>
<!-- [root] module.vpc_basic.var.public_subnet -->
<g id="node18" class="node">
<title>[root] module.vpc_basic.var.public_subnet</title>
<polygon fill="none" stroke="#000000" points="1208.5,-180 998.5,-180 998.5,-144 1214.5,-144 1214.5,-174 1208.5,-180"/>
<polyline fill="none" stroke="#000000" points="1208.5,-180 1208.5,-174 "/>
<polyline fill="none" stroke="#000000" points="1214.5,-174 1208.5,-174 "/>
<text text-anchor="middle" x="1106.5" y="-158.3" font-family="Times,serif" font-size="14.00" fill="#000000">module.vpc_basic.var.public_subnet</text>
</g>
<!-- [root] module.vpc_basic.aws_subnet.public&#45;&gt;[root] module.vpc_basic.var.public_subnet -->
<g id="edge20" class="edge">
<title>[root] module.vpc_basic.aws_subnet.public&#45;&gt;[root] module.vpc_basic.var.public_subnet</title>
<path fill="none" stroke="#000000" d="M905.0328,-215.9243C942.766,-205.8247 989.94,-193.1982 1029.1523,-182.7027"/>
<polygon fill="#000000" stroke="#000000" points="1030.1844,-186.0498 1038.9394,-180.0831 1028.3744,-179.2878 1030.1844,-186.0498"/>
</g>
<!-- [root] module.vpc_basic.var.cidr -->
<g id="node13" class="node">
<title>[root] module.vpc_basic.var.cidr</title>
<polygon fill="none" stroke="#000000" points="661,-108 506,-108 506,-72 667,-72 667,-102 661,-108"/>
<polyline fill="none" stroke="#000000" points="661,-108 661,-102 "/>
<polyline fill="none" stroke="#000000" points="667,-102 661,-102 "/>
<text text-anchor="middle" x="586.5" y="-86.3" font-family="Times,serif" font-size="14.00" fill="#000000">module.vpc_basic.var.cidr</text>
</g>
<!-- [root] module.vpc_basic.aws_vpc.tfb&#45;&gt;[root] module.vpc_basic.var.cidr -->
<g id="edge21" class="edge">
<title>[root] module.vpc_basic.aws_vpc.tfb&#45;&gt;[root] module.vpc_basic.var.cidr</title>
<path fill="none" stroke="#000000" d="M585.0047,-143.8314C585.2186,-136.131 585.4729,-126.9743 585.7106,-118.4166"/>
<polygon fill="#000000" stroke="#000000" points="589.2094,-118.5066 585.9885,-108.4133 582.2121,-118.3122 589.2094,-118.5066"/>
</g>
<!-- [root] module.vpc_basic.var.enable_dns_hostnames -->
<g id="node14" class="node">
<title>[root] module.vpc_basic.var.enable_dns_hostnames</title>
<polygon fill="none" stroke="#000000" points="945.5,-108 685.5,-108 685.5,-72 951.5,-72 951.5,-102 945.5,-108"/>
<polyline fill="none" stroke="#000000" points="945.5,-108 945.5,-102 "/>
<polyline fill="none" stroke="#000000" points="951.5,-102 945.5,-102 "/>
<text text-anchor="middle" x="818.5" y="-86.3" font-family="Times,serif" font-size="14.00" fill="#000000">module.vpc_basic.var.enable_dns_hostnames</text>
</g>
<!-- [root] module.vpc_basic.aws_vpc.tfb&#45;&gt;[root] module.vpc_basic.var.enable_dns_hostnames -->
<g id="edge22" class="edge">
<title>[root] module.vpc_basic.aws_vpc.tfb&#45;&gt;[root] module.vpc_basic.var.enable_dns_hostnames</title>
<path fill="none" stroke="#000000" d="M643.246,-143.9243C675.6525,-133.9531 716.0639,-121.5188 749.912,-111.104"/>
<polygon fill="#000000" stroke="#000000" points="751.2013,-114.3693 759.7298,-108.0831 749.1427,-107.6788 751.2013,-114.3693"/>
</g>
<!-- [root] module.vpc_basic.var.enable_dns_support -->
<g id="node15" class="node">
<title>[root] module.vpc_basic.var.enable_dns_support</title>
<polygon fill="none" stroke="#000000" points="1211.5,-108 969.5,-108 969.5,-72 1217.5,-72 1217.5,-102 1211.5,-108"/>
<polyline fill="none" stroke="#000000" points="1211.5,-108 1211.5,-102 "/>
<polyline fill="none" stroke="#000000" points="1217.5,-102 1211.5,-102 "/>
<text text-anchor="middle" x="1093.5" y="-86.3" font-family="Times,serif" font-size="14.00" fill="#000000">module.vpc_basic.var.enable_dns_support</text>
</g>
<!-- [root] module.vpc_basic.aws_vpc.tfb&#45;&gt;[root] module.vpc_basic.var.enable_dns_support -->
<g id="edge23" class="edge">
<title>[root] module.vpc_basic.aws_vpc.tfb&#45;&gt;[root] module.vpc_basic.var.enable_dns_support</title>
<path fill="none" stroke="#000000" d="M677.0366,-145.4868C680.2281,-144.9757 683.3898,-144.4785 686.5,-144 804.6952,-125.8154 837.0633,-124.3059 959.1376,-108.1738"/>
<polygon fill="#000000" stroke="#000000" points="959.8039,-111.6162 969.2563,-106.8304 958.8826,-104.6771 959.8039,-111.6162"/>
</g>
<!-- [root] module.vpc_basic.var.name -->
<g id="node17" class="node">
<title>[root] module.vpc_basic.var.name</title>
<polygon fill="none" stroke="#000000" points="481.5,-108 317.5,-108 317.5,-72 487.5,-72 487.5,-102 481.5,-108"/>
<polyline fill="none" stroke="#000000" points="481.5,-108 481.5,-102 "/>
<polyline fill="none" stroke="#000000" points="487.5,-102 481.5,-102 "/>
<text text-anchor="middle" x="402.5" y="-86.3" font-family="Times,serif" font-size="14.00" fill="#000000">module.vpc_basic.var.name</text>
</g>
<!-- [root] module.vpc_basic.aws_vpc.tfb&#45;&gt;[root] module.vpc_basic.var.name -->
<g id="edge24" class="edge">
<title>[root] module.vpc_basic.aws_vpc.tfb&#45;&gt;[root] module.vpc_basic.var.name</title>
<path fill="none" stroke="#000000" d="M538.5737,-143.8314C513.9077,-134.0734 483.3309,-121.977 457.414,-111.7242"/>
<polygon fill="#000000" stroke="#000000" points="458.6824,-108.4621 448.096,-108.038 456.1073,-114.9713 458.6824,-108.4621"/>
</g>
<!-- [root] module.vpc_basic.aws_vpc.tfb&#45;&gt;[root] provider.aws -->
<g id="edge25" class="edge">
<title>[root] module.vpc_basic.aws_vpc.tfb&#45;&gt;[root] provider.aws</title>
<path fill="none" stroke="#000000" d="M491.8415,-144.0232C438.256,-133.589 369.5555,-120.1469 308.5,-108 296.5417,-105.6209 283.6854,-103.0364 271.5652,-100.5877"/>
<polygon fill="#000000" stroke="#000000" points="272.0887,-97.1228 261.5932,-98.5702 270.7006,-103.9838 272.0887,-97.1228"/>
</g>
<!-- [root] module.vpc_basic.output.cidr&#45;&gt;[root] module.vpc_basic.aws_vpc.tfb -->
<g id="edge26" class="edge">
<title>[root] module.vpc_basic.output.cidr&#45;&gt;[root] module.vpc_basic.aws_vpc.tfb</title>
<path fill="none" stroke="#000000" d="M610.668,-215.8314C606.8014,-207.8771 602.1794,-198.369 597.9032,-189.5723"/>
<polygon fill="#000000" stroke="#000000" points="600.9707,-187.8768 593.4509,-180.4133 594.6751,-190.9371 600.9707,-187.8768"/>
</g>
<!-- [root] module.vpc_basic.output.public_subnet_id&#45;&gt;[root] module.vpc_basic.aws_subnet.public -->
<g id="edge27" class="edge">
<title>[root] module.vpc_basic.output.public_subnet_id&#45;&gt;[root] module.vpc_basic.aws_subnet.public</title>
<path fill="none" stroke="#000000" d="M824.0422,-287.8314C825.9884,-280.0463 828.3068,-270.7729 830.4663,-262.1347"/>
<polygon fill="#000000" stroke="#000000" points="833.8668,-262.9636 832.8967,-252.4133 827.0758,-261.2658 833.8668,-262.9636"/>
</g>
<!-- [root] module.vpc_basic.output.vpc_id&#45;&gt;[root] module.vpc_basic.aws_vpc.tfb -->
<g id="edge28" class="edge">
<title>[root] module.vpc_basic.output.vpc_id&#45;&gt;[root] module.vpc_basic.aws_vpc.tfb</title>
<path fill="none" stroke="#000000" d="M457.3982,-215.8314C480.2357,-206.159 508.498,-194.1891 532.5687,-183.9944"/>
<polygon fill="#000000" stroke="#000000" points="534.0671,-187.1608 541.9103,-180.038 531.3371,-180.7151 534.0671,-187.1608"/>
</g>
<!-- [root] output.addresses -->
<g id="node19" class="node">
<title>[root] output.addresses</title>
<polygon fill="none" stroke="#000000" points="518,-468 417,-468 417,-432 524,-432 524,-462 518,-468"/>
<polyline fill="none" stroke="#000000" points="518,-468 518,-462 "/>
<polyline fill="none" stroke="#000000" points="524,-462 518,-462 "/>
<text text-anchor="middle" x="470.5" y="-446.3" font-family="Times,serif" font-size="14.00" fill="#000000">output.addresses</text>
</g>
<!-- [root] output.addresses&#45;&gt;[root] aws_instance.web -->
<g id="edge29" class="edge">
<title>[root] output.addresses&#45;&gt;[root] aws_instance.web</title>
<path fill="none" stroke="#000000" d="M470.5,-431.8314C470.5,-424.131 470.5,-414.9743 470.5,-406.4166"/>
<polygon fill="#000000" stroke="#000000" points="474.0001,-406.4132 470.5,-396.4133 467.0001,-406.4133 474.0001,-406.4132"/>
</g>
<!-- [root] output.elb_address -->
<g id="node20" class="node">
<title>[root] output.elb_address</title>
<polygon fill="none" stroke="#000000" points="436,-540 323,-540 323,-504 442,-504 442,-534 436,-540"/>
<polyline fill="none" stroke="#000000" points="436,-540 436,-534 "/>
<polyline fill="none" stroke="#000000" points="442,-534 436,-534 "/>
<text text-anchor="middle" x="382.5" y="-518.3" font-family="Times,serif" font-size="14.00" fill="#000000">output.elb_address</text>
</g>
<!-- [root] output.elb_address&#45;&gt;[root] aws_elb.web -->
<g id="edge30" class="edge">
<title>[root] output.elb_address&#45;&gt;[root] aws_elb.web</title>
<path fill="none" stroke="#000000" d="M372.6587,-503.8314C368.3043,-495.7925 363.0902,-486.1666 358.2831,-477.2918"/>
<polygon fill="#000000" stroke="#000000" points="361.3143,-475.5392 353.4739,-468.4133 355.1592,-478.8732 361.3143,-475.5392"/>
</g>
<!-- [root] output.public_subnet_id -->
<g id="node21" class="node">
<title>[root] output.public_subnet_id</title>
<polygon fill="none" stroke="#000000" points="778.5,-396 636.5,-396 636.5,-360 784.5,-360 784.5,-390 778.5,-396"/>
<polyline fill="none" stroke="#000000" points="778.5,-396 778.5,-390 "/>
<polyline fill="none" stroke="#000000" points="784.5,-390 778.5,-390 "/>
<text text-anchor="middle" x="710.5" y="-374.3" font-family="Times,serif" font-size="14.00" fill="#000000">output.public_subnet_id</text>
</g>
<!-- [root] output.public_subnet_id&#45;&gt;[root] module.vpc_basic.output.public_subnet_id -->
<g id="edge31" class="edge">
<title>[root] output.public_subnet_id&#45;&gt;[root] module.vpc_basic.output.public_subnet_id</title>
<path fill="none" stroke="#000000" d="M738.0053,-359.8314C751.818,-350.7074 768.7256,-339.539 783.5529,-329.7449"/>
<polygon fill="#000000" stroke="#000000" points="785.5886,-332.5949 792.0035,-324.1628 781.7304,-326.7541 785.5886,-332.5949"/>
</g>
<!-- [root] var.region -->
<g id="node25" class="node">
<title>[root] var.region</title>
<polygon fill="none" stroke="#000000" points="249.5,-36 183.5,-36 183.5,0 255.5,0 255.5,-30 249.5,-36"/>
<polyline fill="none" stroke="#000000" points="249.5,-36 249.5,-30 "/>
<polyline fill="none" stroke="#000000" points="255.5,-30 249.5,-30 "/>
<text text-anchor="middle" x="219.5" y="-14.3" font-family="Times,serif" font-size="14.00" fill="#000000">var.region</text>
</g>
<!-- [root] provider.aws&#45;&gt;[root] var.region -->
<g id="edge34" class="edge">
<title>[root] provider.aws&#45;&gt;[root] var.region</title>
<path fill="none" stroke="#000000" d="M219.5,-71.8314C219.5,-64.131 219.5,-54.9743 219.5,-46.4166"/>
<polygon fill="#000000" stroke="#000000" points="223.0001,-46.4132 219.5,-36.4133 216.0001,-46.4133 223.0001,-46.4132"/>
</g>
<!-- [root] meta.count&#45;boundary (EachMode fixup) -->
<g id="node26" class="node">
<title>[root] meta.count&#45;boundary (EachMode fixup)</title>
<ellipse fill="none" stroke="#000000" cx="426.5" cy="-594" rx="176.5689" ry="18"/>
<text text-anchor="middle" x="426.5" y="-590.3" font-family="Times,serif" font-size="14.00" fill="#000000">[root] meta.count&#45;boundary (EachMode fixup)</text>
</g>
<!-- [root] meta.count&#45;boundary (EachMode fixup)&#45;&gt;[root] module.vpc_basic.aws_route.internet_access -->
<g id="edge12" class="edge">
<title>[root] meta.count&#45;boundary (EachMode fixup)&#45;&gt;[root] module.vpc_basic.aws_route.internet_access</title>
<path fill="none" stroke="#000000" d="M367.0986,-577.0282C331.4339,-566.8383 285.7792,-553.7941 247.872,-542.9634"/>
<polygon fill="#000000" stroke="#000000" points="248.4846,-539.4985 237.9078,-540.1165 246.5615,-546.2291 248.4846,-539.4985"/>
</g>
<!-- [root] meta.count&#45;boundary (EachMode fixup)&#45;&gt;[root] output.addresses -->
<g id="edge13" class="edge">
<title>[root] meta.count&#45;boundary (EachMode fixup)&#45;&gt;[root] output.addresses</title>
<path fill="none" stroke="#000000" d="M436.1174,-575.9237C441.2748,-565.6273 447.3952,-552.3528 451.5,-540 458.204,-519.8254 463.0735,-496.2954 466.2037,-478.3553"/>
<polygon fill="#000000" stroke="#000000" points="469.6967,-478.6864 467.8875,-468.2472 462.7918,-477.5362 469.6967,-478.6864"/>
</g>
<!-- [root] meta.count&#45;boundary (EachMode fixup)&#45;&gt;[root] output.elb_address -->
<g id="edge14" class="edge">
<title>[root] meta.count&#45;boundary (EachMode fixup)&#45;&gt;[root] output.elb_address</title>
<path fill="none" stroke="#000000" d="M415.3969,-575.8314C410.4326,-567.7079 404.4778,-557.9637 399.0072,-549.0118"/>
<polygon fill="#000000" stroke="#000000" points="401.9536,-547.121 393.7526,-540.4133 395.9806,-550.7712 401.9536,-547.121"/>
</g>
<!-- [root] meta.count&#45;boundary (EachMode fixup)&#45;&gt;[root] output.public_subnet_id -->
<g id="edge15" class="edge">
<title>[root] meta.count&#45;boundary (EachMode fixup)&#45;&gt;[root] output.public_subnet_id</title>
<path fill="none" stroke="#000000" d="M450.2252,-575.9555C501.178,-537.2026 621.0969,-445.9967 678.6234,-402.2442"/>
<polygon fill="#000000" stroke="#000000" points="680.8019,-404.9846 686.6426,-396.1451 676.5643,-399.413 680.8019,-404.9846"/>
</g>
<!-- [root] provider.aws (close) -->
<g id="node27" class="node">
<title>[root] provider.aws (close)</title>
<ellipse fill="none" stroke="#000000" cx="126.5" cy="-594" rx="105.0817" ry="18"/>
<text text-anchor="middle" x="126.5" y="-590.3" font-family="Times,serif" font-size="14.00" fill="#000000">[root] provider.aws (close)</text>
</g>
<!-- [root] provider.aws (close)&#45;&gt;[root] aws_elb.web -->
<g id="edge32" class="edge">
<title>[root] provider.aws (close)&#45;&gt;[root] aws_elb.web</title>
<path fill="none" stroke="#000000" d="M79.2883,-577.8923C62.0344,-569.4524 44.3467,-557.1972 34.5,-540 26.5498,-526.115 24.0819,-516.1434 34.5,-504 68.7572,-464.0695 216.8761,-478.1478 268.5,-468 275.2975,-466.6638 282.4105,-465.1326 289.434,-463.5397"/>
<polygon fill="#000000" stroke="#000000" points="290.6631,-466.8475 299.6129,-461.1773 289.0805,-460.0288 290.6631,-466.8475"/>
</g>
<!-- [root] provider.aws (close)&#45;&gt;[root] module.vpc_basic.aws_route.internet_access -->
<g id="edge33" class="edge">
<title>[root] provider.aws (close)&#45;&gt;[root] module.vpc_basic.aws_route.internet_access</title>
<path fill="none" stroke="#000000" d="M138.6124,-575.8314C144.0281,-567.7079 150.5242,-557.9637 156.4921,-549.0118"/>
<polygon fill="#000000" stroke="#000000" points="159.5896,-550.6753 162.2245,-540.4133 153.7653,-546.7923 159.5896,-550.6753"/>
</g>
<!-- [root] root -->
<g id="node28" class="node">
<title>[root] root</title>
<ellipse fill="none" stroke="#000000" cx="276.5" cy="-666" rx="47.3916" ry="18"/>
<text text-anchor="middle" x="276.5" y="-662.3" font-family="Times,serif" font-size="14.00" fill="#000000">[root] root</text>
</g>
<!-- [root] root&#45;&gt;[root] meta.count&#45;boundary (EachMode fixup) -->
<g id="edge35" class="edge">
<title>[root] root&#45;&gt;[root] meta.count&#45;boundary (EachMode fixup)</title>
<path fill="none" stroke="#000000" d="M306.1352,-651.7751C327.4091,-641.5636 356.4834,-627.608 380.7274,-615.9708"/>
<polygon fill="#000000" stroke="#000000" points="382.2557,-619.1196 389.7564,-611.6369 379.2266,-612.809 382.2557,-619.1196"/>
</g>
<!-- [root] root&#45;&gt;[root] provider.aws (close) -->
<g id="edge36" class="edge">
<title>[root] root&#45;&gt;[root] provider.aws (close)</title>
<path fill="none" stroke="#000000" d="M246.8648,-651.7751C225.2123,-641.3819 195.4794,-627.1101 170.9831,-615.3519"/>
<polygon fill="#000000" stroke="#000000" points="172.4085,-612.1538 161.8787,-610.9818 169.3794,-618.4645 172.4085,-612.1538"/>
</g>
</g>
</svg>
