<?xml version="1.0" encoding="UTF-8" standalone="no"?>
<!DOCTYPE svg PUBLIC "-//W3C//DTD SVG 1.1//EN"
 "http://www.w3.org/Graphics/SVG/1.1/DTD/svg11.dtd">
<!-- Generated by graphviz version 2.40.1 (20161225.0304)
 -->
<!-- Title: %3 Pages: 1 -->
<svg width="694pt" height="404pt"
 viewBox="0.00 0.00 693.57 404.00" xmlns="http://www.w3.org/2000/svg" xmlns:xlink="http://www.w3.org/1999/xlink">
<g id="graph0" class="graph" transform="scale(1 1) rotate(0) translate(4 400)">
<title>%3</title>
<polygon fill="#ffffff" stroke="transparent" points="-4,4 -4,-400 689.5721,-400 689.5721,4 -4,4"/>
<!-- [root] aws_instance.ubuntu&#45;vm -->
<g id="node1" class="node">
<title>[root] aws_instance.ubuntu&#45;vm</title>
<polygon fill="none" stroke="#000000" points="457.7843,-180 305.7843,-180 305.7843,-144 457.7843,-144 457.7843,-180"/>
<text text-anchor="middle" x="381.7843" y="-158.3" font-family="Times,serif" font-size="14.00" fill="#000000">aws_instance.ubuntu&#45;vm</text>
</g>
<!-- [root] provider.aws -->
<g id="node3" class="node">
<title>[root] provider.aws</title>
<polygon fill="none" stroke="#000000" points="276.7843,-108 196.8509,-90 276.7843,-72 356.7177,-90 276.7843,-108"/>
<text text-anchor="middle" x="276.7843" y="-86.3" font-family="Times,serif" font-size="14.00" fill="#000000">provider.aws</text>
</g>
<!-- [root] aws_instance.ubuntu&#45;vm&#45;&gt;[root] provider.aws -->
<g id="edge1" class="edge">
<title>[root] aws_instance.ubuntu&#45;vm&#45;&gt;[root] provider.aws</title>
<path fill="none" stroke="#000000" d="M355.2884,-143.8314C339.9104,-133.2864 320.55,-120.0107 304.9035,-109.2817"/>
<polygon fill="#000000" stroke="#000000" points="306.8687,-106.3855 296.642,-103.6167 302.9099,-112.1586 306.8687,-106.3855"/>
</g>
<!-- [root] provisioner.local&#45;exec -->
<g id="node7" class="node">
<title>[root] provisioner.local&#45;exec</title>
<ellipse fill="none" stroke="#000000" cx="486.7843" cy="-90" rx="111.5806" ry="18"/>
<text text-anchor="middle" x="486.7843" y="-86.3" font-family="Times,serif" font-size="14.00" fill="#000000">[root] provisioner.local&#45;exec</text>
</g>
<!-- [root] aws_instance.ubuntu&#45;vm&#45;&gt;[root] provisioner.local&#45;exec -->
<g id="edge2" class="edge">
<title>[root] aws_instance.ubuntu&#45;vm&#45;&gt;[root] provisioner.local&#45;exec</title>
<path fill="none" stroke="#000000" d="M408.2802,-143.8314C421.6629,-134.6547 438.0616,-123.4099 452.4038,-113.5752"/>
<polygon fill="#000000" stroke="#000000" points="454.7549,-116.2069 461.0228,-107.665 450.7961,-110.4338 454.7549,-116.2069"/>
</g>
<!-- [root] output.public_ip -->
<g id="node2" class="node">
<title>[root] output.public_ip</title>
<polygon fill="none" stroke="#000000" points="238.7843,-252 138.7843,-252 138.7843,-216 244.7843,-216 244.7843,-246 238.7843,-252"/>
<polyline fill="none" stroke="#000000" points="238.7843,-252 238.7843,-246 "/>
<polyline fill="none" stroke="#000000" points="244.7843,-246 238.7843,-246 "/>
<text text-anchor="middle" x="191.7843" y="-230.3" font-family="Times,serif" font-size="14.00" fill="#000000">output.public_ip</text>
</g>
<!-- [root] output.public_ip&#45;&gt;[root] aws_instance.ubuntu&#45;vm -->
<g id="edge4" class="edge">
<title>[root] output.public_ip&#45;&gt;[root] aws_instance.ubuntu&#45;vm</title>
<path fill="none" stroke="#000000" d="M239.7293,-215.8314C265.5925,-206.0306 297.6806,-193.8709 324.8123,-183.5894"/>
<polygon fill="#000000" stroke="#000000" points="326.0732,-186.8545 334.1841,-180.038 323.5927,-180.3087 326.0732,-186.8545"/>
</g>
<!-- [root] var.ACCESS_KEY_ID -->
<g id="node4" class="node">
<title>[root] var.ACCESS_KEY_ID</title>
<polygon fill="none" stroke="#000000" points="189.7843,-36 51.7843,-36 51.7843,0 195.7843,0 195.7843,-30 189.7843,-36"/>
<polyline fill="none" stroke="#000000" points="189.7843,-36 189.7843,-30 "/>
<polyline fill="none" stroke="#000000" points="195.7843,-30 189.7843,-30 "/>
<text text-anchor="middle" x="123.7843" y="-14.3" font-family="Times,serif" font-size="14.00" fill="#000000">var.ACCESS_KEY_ID</text>
</g>
<!-- [root] provider.aws&#45;&gt;[root] var.ACCESS_KEY_ID -->
<g id="edge6" class="edge">
<title>[root] provider.aws&#45;&gt;[root] var.ACCESS_KEY_ID</title>
<path fill="none" stroke="#000000" d="M250.8299,-77.7862C229.1893,-67.6024 197.781,-52.8219 171.6085,-40.5055"/>
<polygon fill="#000000" stroke="#000000" points="172.7692,-37.1836 162.2307,-36.0924 169.7885,-43.5173 172.7692,-37.1836"/>
</g>
<!-- [root] var.AWS_REGION -->
<g id="node5" class="node">
<title>[root] var.AWS_REGION</title>
<polygon fill="none" stroke="#000000" points="333.7843,-36 213.7843,-36 213.7843,0 339.7843,0 339.7843,-30 333.7843,-36"/>
<polyline fill="none" stroke="#000000" points="333.7843,-36 333.7843,-30 "/>
<polyline fill="none" stroke="#000000" points="339.7843,-30 333.7843,-30 "/>
<text text-anchor="middle" x="276.7843" y="-14.3" font-family="Times,serif" font-size="14.00" fill="#000000">var.AWS_REGION</text>
</g>
<!-- [root] provider.aws&#45;&gt;[root] var.AWS_REGION -->
<g id="edge7" class="edge">
<title>[root] provider.aws&#45;&gt;[root] var.AWS_REGION</title>
<path fill="none" stroke="#000000" d="M276.7843,-71.8314C276.7843,-64.131 276.7843,-54.9743 276.7843,-46.4166"/>
<polygon fill="#000000" stroke="#000000" points="280.2844,-46.4132 276.7843,-36.4133 273.2844,-46.4133 280.2844,-46.4132"/>
</g>
<!-- [root] var.SECRET_ACCESS_KEY -->
<g id="node6" class="node">
<title>[root] var.SECRET_ACCESS_KEY</title>
<polygon fill="none" stroke="#000000" points="531.7843,-36 357.7843,-36 357.7843,0 537.7843,0 537.7843,-30 531.7843,-36"/>
<polyline fill="none" stroke="#000000" points="531.7843,-36 531.7843,-30 "/>
<polyline fill="none" stroke="#000000" points="537.7843,-30 531.7843,-30 "/>
<text text-anchor="middle" x="447.7843" y="-14.3" font-family="Times,serif" font-size="14.00" fill="#000000">var.SECRET_ACCESS_KEY</text>
</g>
<!-- [root] provider.aws&#45;&gt;[root] var.SECRET_ACCESS_KEY -->
<g id="edge8" class="edge">
<title>[root] provider.aws&#45;&gt;[root] var.SECRET_ACCESS_KEY</title>
<path fill="none" stroke="#000000" d="M304.639,-78.2717C329.1478,-67.9522 365.4854,-52.6522 395.4154,-40.0501"/>
<polygon fill="#000000" stroke="#000000" points="397.0265,-43.1694 404.8847,-36.063 394.3101,-36.7179 397.0265,-43.1694"/>
</g>
<!-- [root] meta.count&#45;boundary (EachMode fixup) -->
<g id="node8" class="node">
<title>[root] meta.count&#45;boundary (EachMode fixup)</title>
<ellipse fill="none" stroke="#000000" cx="176.7843" cy="-306" rx="176.5689" ry="18"/>
<text text-anchor="middle" x="176.7843" y="-302.3" font-family="Times,serif" font-size="14.00" fill="#000000">[root] meta.count&#45;boundary (EachMode fixup)</text>
</g>
<!-- [root] meta.count&#45;boundary (EachMode fixup)&#45;&gt;[root] output.public_ip -->
<g id="edge3" class="edge">
<title>[root] meta.count&#45;boundary (EachMode fixup)&#45;&gt;[root] output.public_ip</title>
<path fill="none" stroke="#000000" d="M180.5694,-287.8314C182.1737,-280.131 184.0813,-270.9743 185.8642,-262.4166"/>
<polygon fill="#000000" stroke="#000000" points="189.335,-262.9169 187.9482,-252.4133 182.4822,-261.4892 189.335,-262.9169"/>
</g>
<!-- [root] provider.aws (close) -->
<g id="node9" class="node">
<title>[root] provider.aws (close)</title>
<ellipse fill="none" stroke="#000000" cx="381.7843" cy="-234" rx="105.0817" ry="18"/>
<text text-anchor="middle" x="381.7843" y="-230.3" font-family="Times,serif" font-size="14.00" fill="#000000">[root] provider.aws (close)</text>
</g>
<!-- [root] provider.aws (close)&#45;&gt;[root] aws_instance.ubuntu&#45;vm -->
<g id="edge5" class="edge">
<title>[root] provider.aws (close)&#45;&gt;[root] aws_instance.ubuntu&#45;vm</title>
<path fill="none" stroke="#000000" d="M381.7843,-215.8314C381.7843,-208.131 381.7843,-198.9743 381.7843,-190.4166"/>
<polygon fill="#000000" stroke="#000000" points="385.2844,-190.4132 381.7843,-180.4133 378.2844,-190.4133 385.2844,-190.4132"/>
</g>
<!-- [root] provisioner.local&#45;exec (close) -->
<g id="node10" class="node">
<title>[root] provisioner.local&#45;exec (close)</title>
<ellipse fill="none" stroke="#000000" cx="547.7843" cy="-306" rx="137.5759" ry="18"/>
<text text-anchor="middle" x="547.7843" y="-302.3" font-family="Times,serif" font-size="14.00" fill="#000000">[root] provisioner.local&#45;exec (close)</text>
</g>
<!-- [root] provisioner.local&#45;exec (close)&#45;&gt;[root] aws_instance.ubuntu&#45;vm -->
<g id="edge9" class="edge">
<title>[root] provisioner.local&#45;exec (close)&#45;&gt;[root] aws_instance.ubuntu&#45;vm</title>
<path fill="none" stroke="#000000" d="M541.1899,-287.9777C533.137,-268.1164 517.8119,-236.3008 495.7843,-216 481.5853,-202.9141 463.6438,-192.4365 446.2221,-184.3228"/>
<polygon fill="#000000" stroke="#000000" points="447.1836,-180.9201 436.624,-180.0569 444.3406,-187.3167 447.1836,-180.9201"/>
</g>
<!-- [root] root -->
<g id="node11" class="node">
<title>[root] root</title>
<ellipse fill="none" stroke="#000000" cx="381.7843" cy="-378" rx="47.3916" ry="18"/>
<text text-anchor="middle" x="381.7843" y="-374.3" font-family="Times,serif" font-size="14.00" fill="#000000">[root] root</text>
</g>
<!-- [root] root&#45;&gt;[root] meta.count&#45;boundary (EachMode fixup) -->
<g id="edge10" class="edge">
<title>[root] root&#45;&gt;[root] meta.count&#45;boundary (EachMode fixup)</title>
<path fill="none" stroke="#000000" d="M346.5436,-365.6228C316.1981,-354.9648 271.771,-339.3612 235.9773,-326.7897"/>
<polygon fill="#000000" stroke="#000000" points="236.7243,-323.3425 226.1294,-323.331 234.4046,-329.947 236.7243,-323.3425"/>
</g>
<!-- [root] root&#45;&gt;[root] provider.aws (close) -->
<g id="edge11" class="edge">
<title>[root] root&#45;&gt;[root] provider.aws (close)</title>
<path fill="none" stroke="#000000" d="M381.7843,-359.7623C381.7843,-335.201 381.7843,-291.2474 381.7843,-262.3541"/>
<polygon fill="#000000" stroke="#000000" points="385.2844,-262.0896 381.7843,-252.0896 378.2844,-262.0897 385.2844,-262.0896"/>
</g>
<!-- [root] root&#45;&gt;[root] provisioner.local&#45;exec (close) -->
<g id="edge12" class="edge">
<title>[root] root&#45;&gt;[root] provisioner.local&#45;exec (close)</title>
<path fill="none" stroke="#000000" d="M413.3984,-364.2879C437.3805,-353.886 470.7989,-339.3913 498.3102,-327.4586"/>
<polygon fill="#000000" stroke="#000000" points="499.9883,-330.5459 507.7698,-323.3557 497.2029,-324.1239 499.9883,-330.5459"/>
</g>
</g>
</svg>
