<?xml version="1.0" encoding="UTF-8" standalone="no"?>
<!DOCTYPE svg PUBLIC "-//W3C//DTD SVG 1.1//EN"
 "http://www.w3.org/Graphics/SVG/1.1/DTD/svg11.dtd">
<!-- Generated by graphviz version 2.40.1 (20161225.0304)
 -->
<!-- Title: %3 Pages: 1 -->
<svg width="590pt" height="404pt"
 viewBox="0.00 0.00 590.07 404.00" xmlns="http://www.w3.org/2000/svg" xmlns:xlink="http://www.w3.org/1999/xlink">
<g id="graph0" class="graph" transform="scale(1 1) rotate(0) translate(4 400)">
<title>%3</title>
<polygon fill="#ffffff" stroke="transparent" points="-4,4 -4,-400 586.075,-400 586.075,4 -4,4"/>
<!-- [root] aws_instance.ubuntu&#45;vm -->
<g id="node1" class="node">
<title>[root] aws_instance.ubuntu&#45;vm</title>
<polygon fill="none" stroke="#000000" points="402.7843,-252 250.7843,-252 250.7843,-216 402.7843,-216 402.7843,-252"/>
<text text-anchor="middle" x="326.7843" y="-230.3" font-family="Times,serif" font-size="14.00" fill="#000000">aws_instance.ubuntu&#45;vm</text>
</g>
<!-- [root] aws_key_pair.deployer -->
<g id="node2" class="node">
<title>[root] aws_key_pair.deployer</title>
<polygon fill="none" stroke="#000000" points="398.2843,-180 255.2843,-180 255.2843,-144 398.2843,-144 398.2843,-180"/>
<text text-anchor="middle" x="326.7843" y="-158.3" font-family="Times,serif" font-size="14.00" fill="#000000">aws_key_pair.deployer</text>
</g>
<!-- [root] aws_instance.ubuntu&#45;vm&#45;&gt;[root] aws_key_pair.deployer -->
<g id="edge1" class="edge">
<title>[root] aws_instance.ubuntu&#45;vm&#45;&gt;[root] aws_key_pair.deployer</title>
<path fill="none" stroke="#000000" d="M326.7843,-215.8314C326.7843,-208.131 326.7843,-198.9743 326.7843,-190.4166"/>
<polygon fill="#000000" stroke="#000000" points="330.2844,-190.4132 326.7843,-180.4133 323.2844,-190.4133 330.2844,-190.4132"/>
</g>
<!-- [root] provider.aws -->
<g id="node3" class="node">
<title>[root] provider.aws</title>
<polygon fill="none" stroke="#000000" points="239.7843,-108 159.8509,-90 239.7843,-72 319.7177,-90 239.7843,-108"/>
<text text-anchor="middle" x="239.7843" y="-86.3" font-family="Times,serif" font-size="14.00" fill="#000000">provider.aws</text>
</g>
<!-- [root] aws_key_pair.deployer&#45;&gt;[root] provider.aws -->
<g id="edge2" class="edge">
<title>[root] aws_key_pair.deployer&#45;&gt;[root] provider.aws</title>
<path fill="none" stroke="#000000" d="M304.8305,-143.8314C292.6904,-133.7844 277.555,-121.2585 264.9396,-110.8182"/>
<polygon fill="#000000" stroke="#000000" points="267.0057,-107.9849 257.0702,-104.3056 262.5427,-113.3777 267.0057,-107.9849"/>
</g>
<!-- [root] var.PUBLIC_SSH_KEY -->
<g id="node6" class="node">
<title>[root] var.PUBLIC_SSH_KEY</title>
<polygon fill="none" stroke="#000000" points="483.7843,-108 337.7843,-108 337.7843,-72 489.7843,-72 489.7843,-102 483.7843,-108"/>
<polyline fill="none" stroke="#000000" points="483.7843,-108 483.7843,-102 "/>
<polyline fill="none" stroke="#000000" points="489.7843,-102 483.7843,-102 "/>
<text text-anchor="middle" x="413.7843" y="-86.3" font-family="Times,serif" font-size="14.00" fill="#000000">var.PUBLIC_SSH_KEY</text>
</g>
<!-- [root] aws_key_pair.deployer&#45;&gt;[root] var.PUBLIC_SSH_KEY -->
<g id="edge3" class="edge">
<title>[root] aws_key_pair.deployer&#45;&gt;[root] var.PUBLIC_SSH_KEY</title>
<path fill="none" stroke="#000000" d="M348.7381,-143.8314C359.4538,-134.9632 372.5032,-124.1637 384.0934,-114.5718"/>
<polygon fill="#000000" stroke="#000000" points="386.3651,-117.2349 391.8376,-108.1628 381.9021,-111.8422 386.3651,-117.2349"/>
</g>
<!-- [root] var.ACCESS_KEY_ID -->
<g id="node4" class="node">
<title>[root] var.ACCESS_KEY_ID</title>
<polygon fill="none" stroke="#000000" points="152.7843,-36 14.7843,-36 14.7843,0 158.7843,0 158.7843,-30 152.7843,-36"/>
<polyline fill="none" stroke="#000000" points="152.7843,-36 152.7843,-30 "/>
<polyline fill="none" stroke="#000000" points="158.7843,-30 152.7843,-30 "/>
<text text-anchor="middle" x="86.7843" y="-14.3" font-family="Times,serif" font-size="14.00" fill="#000000">var.ACCESS_KEY_ID</text>
</g>
<!-- [root] provider.aws&#45;&gt;[root] var.ACCESS_KEY_ID -->
<g id="edge6" class="edge">
<title>[root] provider.aws&#45;&gt;[root] var.ACCESS_KEY_ID</title>
<path fill="none" stroke="#000000" d="M213.8299,-77.7862C192.1893,-67.6024 160.781,-52.8219 134.6085,-40.5055"/>
<polygon fill="#000000" stroke="#000000" points="135.7692,-37.1836 125.2307,-36.0924 132.7885,-43.5173 135.7692,-37.1836"/>
</g>
<!-- [root] var.AWS_REGION -->
<g id="node5" class="node">
<title>[root] var.AWS_REGION</title>
<polygon fill="none" stroke="#000000" points="296.7843,-36 176.7843,-36 176.7843,0 302.7843,0 302.7843,-30 296.7843,-36"/>
<polyline fill="none" stroke="#000000" points="296.7843,-36 296.7843,-30 "/>
<polyline fill="none" stroke="#000000" points="302.7843,-30 296.7843,-30 "/>
<text text-anchor="middle" x="239.7843" y="-14.3" font-family="Times,serif" font-size="14.00" fill="#000000">var.AWS_REGION</text>
</g>
<!-- [root] provider.aws&#45;&gt;[root] var.AWS_REGION -->
<g id="edge7" class="edge">
<title>[root] provider.aws&#45;&gt;[root] var.AWS_REGION</title>
<path fill="none" stroke="#000000" d="M239.7843,-71.8314C239.7843,-64.131 239.7843,-54.9743 239.7843,-46.4166"/>
<polygon fill="#000000" stroke="#000000" points="243.2844,-46.4132 239.7843,-36.4133 236.2844,-46.4133 243.2844,-46.4132"/>
</g>
<!-- [root] var.SECRET_ACCESS_KEY -->
<g id="node7" class="node">
<title>[root] var.SECRET_ACCESS_KEY</title>
<polygon fill="none" stroke="#000000" points="494.7843,-36 320.7843,-36 320.7843,0 500.7843,0 500.7843,-30 494.7843,-36"/>
<polyline fill="none" stroke="#000000" points="494.7843,-36 494.7843,-30 "/>
<polyline fill="none" stroke="#000000" points="500.7843,-30 494.7843,-30 "/>
<text text-anchor="middle" x="410.7843" y="-14.3" font-family="Times,serif" font-size="14.00" fill="#000000">var.SECRET_ACCESS_KEY</text>
</g>
<!-- [root] provider.aws&#45;&gt;[root] var.SECRET_ACCESS_KEY -->
<g id="edge8" class="edge">
<title>[root] provider.aws&#45;&gt;[root] var.SECRET_ACCESS_KEY</title>
<path fill="none" stroke="#000000" d="M267.639,-78.2717C292.1478,-67.9522 328.4854,-52.6522 358.4154,-40.0501"/>
<polygon fill="#000000" stroke="#000000" points="360.0265,-43.1694 367.8847,-36.063 357.3101,-36.7179 360.0265,-43.1694"/>
</g>
<!-- [root] meta.count&#45;boundary (EachMode fixup) -->
<g id="node8" class="node">
<title>[root] meta.count&#45;boundary (EachMode fixup)</title>
<ellipse fill="none" stroke="#000000" cx="176.7843" cy="-306" rx="176.5689" ry="18"/>
<text text-anchor="middle" x="176.7843" y="-302.3" font-family="Times,serif" font-size="14.00" fill="#000000">[root] meta.count&#45;boundary (EachMode fixup)</text>
</g>
<!-- [root] meta.count&#45;boundary (EachMode fixup)&#45;&gt;[root] aws_instance.ubuntu&#45;vm -->
<g id="edge4" class="edge">
<title>[root] meta.count&#45;boundary (EachMode fixup)&#45;&gt;[root] aws_instance.ubuntu&#45;vm</title>
<path fill="none" stroke="#000000" d="M213.4784,-288.3868C233.4999,-278.7765 258.4997,-266.7766 279.9191,-256.4953"/>
<polygon fill="#000000" stroke="#000000" points="281.6645,-259.5399 289.1651,-252.0572 278.6353,-253.2292 281.6645,-259.5399"/>
</g>
<!-- [root] provider.aws (close) -->
<g id="node9" class="node">
<title>[root] provider.aws (close)</title>
<ellipse fill="none" stroke="#000000" cx="476.7843" cy="-306" rx="105.0817" ry="18"/>
<text text-anchor="middle" x="476.7843" y="-302.3" font-family="Times,serif" font-size="14.00" fill="#000000">[root] provider.aws (close)</text>
</g>
<!-- [root] provider.aws (close)&#45;&gt;[root] aws_instance.ubuntu&#45;vm -->
<g id="edge5" class="edge">
<title>[root] provider.aws (close)&#45;&gt;[root] aws_instance.ubuntu&#45;vm</title>
<path fill="none" stroke="#000000" d="M441.2364,-288.937C420.9963,-279.2218 395.3974,-266.9343 373.5442,-256.4448"/>
<polygon fill="#000000" stroke="#000000" points="374.9643,-253.2441 364.4345,-252.0721 371.9351,-259.5548 374.9643,-253.2441"/>
</g>
<!-- [root] root -->
<g id="node10" class="node">
<title>[root] root</title>
<ellipse fill="none" stroke="#000000" cx="326.7843" cy="-378" rx="47.3916" ry="18"/>
<text text-anchor="middle" x="326.7843" y="-374.3" font-family="Times,serif" font-size="14.00" fill="#000000">[root] root</text>
</g>
<!-- [root] root&#45;&gt;[root] meta.count&#45;boundary (EachMode fixup) -->
<g id="edge9" class="edge">
<title>[root] root&#45;&gt;[root] meta.count&#45;boundary (EachMode fixup)</title>
<path fill="none" stroke="#000000" d="M297.1491,-363.7751C275.8752,-353.5636 246.8009,-339.608 222.5569,-327.9708"/>
<polygon fill="#000000" stroke="#000000" points="224.0578,-324.809 213.5279,-323.6369 221.0286,-331.1196 224.0578,-324.809"/>
</g>
<!-- [root] root&#45;&gt;[root] provider.aws (close) -->
<g id="edge10" class="edge">
<title>[root] root&#45;&gt;[root] provider.aws (close)</title>
<path fill="none" stroke="#000000" d="M356.4195,-363.7751C378.072,-353.3819 407.8049,-339.1101 432.3013,-327.3519"/>
<polygon fill="#000000" stroke="#000000" points="433.9049,-330.4645 441.4056,-322.9818 430.8758,-324.1538 433.9049,-330.4645"/>
</g>
</g>
</svg>
