<?xml version="1.0" encoding="UTF-8" standalone="no"?>
<!DOCTYPE svg PUBLIC "-//W3C//DTD SVG 1.1//EN"
 "http://www.w3.org/Graphics/SVG/1.1/DTD/svg11.dtd">
<!-- Generated by graphviz version 2.40.1 (20161225.0304)
 -->
<!-- Title: %3 Pages: 1 -->
<svg width="930pt" height="548pt"
 viewBox="0.00 0.00 929.50 548.00" xmlns="http://www.w3.org/2000/svg" xmlns:xlink="http://www.w3.org/1999/xlink">
<g id="graph0" class="graph" transform="scale(1 1) rotate(0) translate(4 544)">
<title>%3</title>
<polygon fill="#ffffff" stroke="transparent" points="-4,4 -4,-544 925.5,-544 925.5,4 -4,4"/>
<!-- [root] aws_iam_instance_profile.s3&#45;inder&#45;bucket&#45;1993&#45;role&#45;instance&#45;profile -->
<g id="node1" class="node">
<title>[root] aws_iam_instance_profile.s3&#45;inder&#45;bucket&#45;1993&#45;role&#45;instance&#45;profile</title>
<polygon fill="none" stroke="#000000" points="579.5,-252 185.5,-252 185.5,-216 579.5,-216 579.5,-252"/>
<text text-anchor="middle" x="382.5" y="-230.3" font-family="Times,serif" font-size="14.00" fill="#000000">aws_iam_instance_profile.s3&#45;inder&#45;bucket&#45;1993&#45;role&#45;instance&#45;profile</text>
</g>
<!-- [root] aws_iam_role.s3&#45;inder&#45;bucket&#45;1993&#45;role -->
<g id="node2" class="node">
<title>[root] aws_iam_role.s3&#45;inder&#45;bucket&#45;1993&#45;role</title>
<polygon fill="none" stroke="#000000" points="569,-180 330,-180 330,-144 569,-144 569,-180"/>
<text text-anchor="middle" x="449.5" y="-158.3" font-family="Times,serif" font-size="14.00" fill="#000000">aws_iam_role.s3&#45;inder&#45;bucket&#45;1993&#45;role</text>
</g>
<!-- [root] aws_iam_instance_profile.s3&#45;inder&#45;bucket&#45;1993&#45;role&#45;instance&#45;profile&#45;&gt;[root] aws_iam_role.s3&#45;inder&#45;bucket&#45;1993&#45;role -->
<g id="edge1" class="edge">
<title>[root] aws_iam_instance_profile.s3&#45;inder&#45;bucket&#45;1993&#45;role&#45;instance&#45;profile&#45;&gt;[root] aws_iam_role.s3&#45;inder&#45;bucket&#45;1993&#45;role</title>
<path fill="none" stroke="#000000" d="M399.4069,-215.8314C407.2813,-207.3694 416.792,-197.1489 425.4013,-187.8971"/>
<polygon fill="#000000" stroke="#000000" points="428.1153,-190.1183 432.3654,-180.4133 422.9908,-185.3497 428.1153,-190.1183"/>
</g>
<!-- [root] provider.aws -->
<g id="node8" class="node">
<title>[root] provider.aws</title>
<polygon fill="none" stroke="#000000" points="449.5,-108 369.5666,-90 449.5,-72 529.4334,-90 449.5,-108"/>
<text text-anchor="middle" x="449.5" y="-86.3" font-family="Times,serif" font-size="14.00" fill="#000000">provider.aws</text>
</g>
<!-- [root] aws_iam_role.s3&#45;inder&#45;bucket&#45;1993&#45;role&#45;&gt;[root] provider.aws -->
<g id="edge2" class="edge">
<title>[root] aws_iam_role.s3&#45;inder&#45;bucket&#45;1993&#45;role&#45;&gt;[root] provider.aws</title>
<path fill="none" stroke="#000000" d="M449.5,-143.8314C449.5,-136.131 449.5,-126.9743 449.5,-118.4166"/>
<polygon fill="#000000" stroke="#000000" points="453.0001,-118.4132 449.5,-108.4133 446.0001,-118.4133 453.0001,-118.4132"/>
</g>
<!-- [root] aws_iam_role_policy.s3&#45;inder&#45;bucket&#45;1993&#45;role&#45;policy -->
<g id="node3" class="node">
<title>[root] aws_iam_role_policy.s3&#45;inder&#45;bucket&#45;1993&#45;role&#45;policy</title>
<polygon fill="none" stroke="#000000" points="577,-396 260,-396 260,-360 577,-360 577,-396"/>
<text text-anchor="middle" x="418.5" y="-374.3" font-family="Times,serif" font-size="14.00" fill="#000000">aws_iam_role_policy.s3&#45;inder&#45;bucket&#45;1993&#45;role&#45;policy</text>
</g>
<!-- [root] aws_iam_role_policy.s3&#45;inder&#45;bucket&#45;1993&#45;role&#45;policy&#45;&gt;[root] aws_iam_role.s3&#45;inder&#45;bucket&#45;1993&#45;role -->
<g id="edge3" class="edge">
<title>[root] aws_iam_role_policy.s3&#45;inder&#45;bucket&#45;1993&#45;role&#45;policy&#45;&gt;[root] aws_iam_role.s3&#45;inder&#45;bucket&#45;1993&#45;role</title>
<path fill="none" stroke="#000000" d="M461.9099,-359.9096C503.0132,-340.1408 562.2296,-304.1704 588.5,-252 595.696,-237.7095 597.5359,-229.2042 588.5,-216 580.4893,-204.294 553.8683,-192.7153 526.037,-183.2997"/>
<polygon fill="#000000" stroke="#000000" points="526.7635,-179.8546 516.1707,-180.0629 524.5814,-186.5058 526.7635,-179.8546"/>
</g>
<!-- [root] aws_instance.ubuntu&#45;vm -->
<g id="node4" class="node">
<title>[root] aws_instance.ubuntu&#45;vm</title>
<polygon fill="none" stroke="#000000" points="408.5,-324 256.5,-324 256.5,-288 408.5,-288 408.5,-324"/>
<text text-anchor="middle" x="332.5" y="-302.3" font-family="Times,serif" font-size="14.00" fill="#000000">aws_instance.ubuntu&#45;vm</text>
</g>
<!-- [root] aws_instance.ubuntu&#45;vm&#45;&gt;[root] aws_iam_instance_profile.s3&#45;inder&#45;bucket&#45;1993&#45;role&#45;instance&#45;profile -->
<g id="edge4" class="edge">
<title>[root] aws_instance.ubuntu&#45;vm&#45;&gt;[root] aws_iam_instance_profile.s3&#45;inder&#45;bucket&#45;1993&#45;role&#45;instance&#45;profile</title>
<path fill="none" stroke="#000000" d="M345.1171,-287.8314C350.8172,-279.6232 357.6663,-269.7606 363.9359,-260.7323"/>
<polygon fill="#000000" stroke="#000000" points="366.8838,-262.6234 369.713,-252.4133 361.1342,-258.6306 366.8838,-262.6234"/>
</g>
<!-- [root] aws_key_pair.deployer&#45;key -->
<g id="node5" class="node">
<title>[root] aws_key_pair.deployer&#45;key</title>
<polygon fill="none" stroke="#000000" points="167,-252 0,-252 0,-216 167,-216 167,-252"/>
<text text-anchor="middle" x="83.5" y="-230.3" font-family="Times,serif" font-size="14.00" fill="#000000">aws_key_pair.deployer&#45;key</text>
</g>
<!-- [root] aws_instance.ubuntu&#45;vm&#45;&gt;[root] aws_key_pair.deployer&#45;key -->
<g id="edge5" class="edge">
<title>[root] aws_instance.ubuntu&#45;vm&#45;&gt;[root] aws_key_pair.deployer&#45;key</title>
<path fill="none" stroke="#000000" d="M269.9882,-287.9243C235.3564,-277.9103 192.1333,-265.412 156.0213,-254.97"/>
<polygon fill="#000000" stroke="#000000" points="156.6162,-251.4987 146.0375,-252.0831 154.6717,-258.2232 156.6162,-251.4987"/>
</g>
<!-- [root] aws_key_pair.deployer&#45;key&#45;&gt;[root] provider.aws -->
<g id="edge6" class="edge">
<title>[root] aws_key_pair.deployer&#45;key&#45;&gt;[root] provider.aws</title>
<path fill="none" stroke="#000000" d="M81.7888,-215.9492C80.9298,-195.4474 83.0271,-162.4548 102.5,-144 139.5708,-108.8674 276.747,-96.5914 367.1194,-92.3024"/>
<polygon fill="#000000" stroke="#000000" points="367.5189,-95.7881 377.3511,-91.8413 367.2037,-88.7952 367.5189,-95.7881"/>
</g>
<!-- [root] var.PUBLIC_SSH_KEY -->
<g id="node11" class="node">
<title>[root] var.PUBLIC_SSH_KEY</title>
<polygon fill="none" stroke="#000000" points="257.5,-180 111.5,-180 111.5,-144 263.5,-144 263.5,-174 257.5,-180"/>
<polyline fill="none" stroke="#000000" points="257.5,-180 257.5,-174 "/>
<polyline fill="none" stroke="#000000" points="263.5,-174 257.5,-174 "/>
<text text-anchor="middle" x="187.5" y="-158.3" font-family="Times,serif" font-size="14.00" fill="#000000">var.PUBLIC_SSH_KEY</text>
</g>
<!-- [root] aws_key_pair.deployer&#45;key&#45;&gt;[root] var.PUBLIC_SSH_KEY -->
<g id="edge7" class="edge">
<title>[root] aws_key_pair.deployer&#45;key&#45;&gt;[root] var.PUBLIC_SSH_KEY</title>
<path fill="none" stroke="#000000" d="M109.7436,-215.8314C122.7995,-206.7927 138.7535,-195.7476 152.8047,-186.0198"/>
<polygon fill="#000000" stroke="#000000" points="155.0351,-188.7326 161.2648,-180.1628 151.0506,-182.9773 155.0351,-188.7326"/>
</g>
<!-- [root] aws_s3_bucket.inder&#45;bucket&#45;1993 -->
<g id="node6" class="node">
<title>[root] aws_s3_bucket.inder&#45;bucket&#45;1993</title>
<polygon fill="none" stroke="#000000" points="798,-396 595,-396 595,-360 798,-360 798,-396"/>
<text text-anchor="middle" x="696.5" y="-374.3" font-family="Times,serif" font-size="14.00" fill="#000000">aws_s3_bucket.inder&#45;bucket&#45;1993</text>
</g>
<!-- [root] aws_s3_bucket.inder&#45;bucket&#45;1993&#45;&gt;[root] provider.aws -->
<g id="edge8" class="edge">
<title>[root] aws_s3_bucket.inder&#45;bucket&#45;1993&#45;&gt;[root] provider.aws</title>
<path fill="none" stroke="#000000" d="M691.9303,-359.8528C680.19,-316.7033 645.0433,-206.895 577.5,-144 555.5878,-123.5957 524.8277,-110.2823 498.9535,-101.9808"/>
<polygon fill="#000000" stroke="#000000" points="499.8909,-98.6076 489.3049,-99.0403 497.8501,-105.3036 499.8909,-98.6076"/>
</g>
<!-- [root] output.public_ip -->
<g id="node7" class="node">
<title>[root] output.public_ip</title>
<polygon fill="none" stroke="#000000" points="915.5,-396 815.5,-396 815.5,-360 921.5,-360 921.5,-390 915.5,-396"/>
<polyline fill="none" stroke="#000000" points="915.5,-396 915.5,-390 "/>
<polyline fill="none" stroke="#000000" points="921.5,-390 915.5,-390 "/>
<text text-anchor="middle" x="868.5" y="-374.3" font-family="Times,serif" font-size="14.00" fill="#000000">output.public_ip</text>
</g>
<!-- [root] output.public_ip&#45;&gt;[root] aws_instance.ubuntu&#45;vm -->
<g id="edge12" class="edge">
<title>[root] output.public_ip&#45;&gt;[root] aws_instance.ubuntu&#45;vm</title>
<path fill="none" stroke="#000000" d="M815.2077,-361.9074C812.2736,-361.2157 809.3572,-360.5732 806.5,-360 672.5199,-333.1204 514.3549,-318.4583 418.8288,-311.4305"/>
<polygon fill="#000000" stroke="#000000" points="418.8671,-307.9242 408.6404,-310.6924 418.3613,-314.9059 418.8671,-307.9242"/>
</g>
<!-- [root] var.ACCESS_KEY_ID -->
<g id="node9" class="node">
<title>[root] var.ACCESS_KEY_ID</title>
<polygon fill="none" stroke="#000000" points="362.5,-36 224.5,-36 224.5,0 368.5,0 368.5,-30 362.5,-36"/>
<polyline fill="none" stroke="#000000" points="362.5,-36 362.5,-30 "/>
<polyline fill="none" stroke="#000000" points="368.5,-30 362.5,-30 "/>
<text text-anchor="middle" x="296.5" y="-14.3" font-family="Times,serif" font-size="14.00" fill="#000000">var.ACCESS_KEY_ID</text>
</g>
<!-- [root] provider.aws&#45;&gt;[root] var.ACCESS_KEY_ID -->
<g id="edge16" class="edge">
<title>[root] provider.aws&#45;&gt;[root] var.ACCESS_KEY_ID</title>
<path fill="none" stroke="#000000" d="M423.5456,-77.7862C401.905,-67.6024 370.4966,-52.8219 344.3242,-40.5055"/>
<polygon fill="#000000" stroke="#000000" points="345.4848,-37.1836 334.9463,-36.0924 342.5042,-43.5173 345.4848,-37.1836"/>
</g>
<!-- [root] var.AWS_REGION -->
<g id="node10" class="node">
<title>[root] var.AWS_REGION</title>
<polygon fill="none" stroke="#000000" points="506.5,-36 386.5,-36 386.5,0 512.5,0 512.5,-30 506.5,-36"/>
<polyline fill="none" stroke="#000000" points="506.5,-36 506.5,-30 "/>
<polyline fill="none" stroke="#000000" points="512.5,-30 506.5,-30 "/>
<text text-anchor="middle" x="449.5" y="-14.3" font-family="Times,serif" font-size="14.00" fill="#000000">var.AWS_REGION</text>
</g>
<!-- [root] provider.aws&#45;&gt;[root] var.AWS_REGION -->
<g id="edge17" class="edge">
<title>[root] provider.aws&#45;&gt;[root] var.AWS_REGION</title>
<path fill="none" stroke="#000000" d="M449.5,-71.8314C449.5,-64.131 449.5,-54.9743 449.5,-46.4166"/>
<polygon fill="#000000" stroke="#000000" points="453.0001,-46.4132 449.5,-36.4133 446.0001,-46.4133 453.0001,-46.4132"/>
</g>
<!-- [root] var.SECRET_ACCESS_KEY -->
<g id="node12" class="node">
<title>[root] var.SECRET_ACCESS_KEY</title>
<polygon fill="none" stroke="#000000" points="704.5,-36 530.5,-36 530.5,0 710.5,0 710.5,-30 704.5,-36"/>
<polyline fill="none" stroke="#000000" points="704.5,-36 704.5,-30 "/>
<polyline fill="none" stroke="#000000" points="710.5,-30 704.5,-30 "/>
<text text-anchor="middle" x="620.5" y="-14.3" font-family="Times,serif" font-size="14.00" fill="#000000">var.SECRET_ACCESS_KEY</text>
</g>
<!-- [root] provider.aws&#45;&gt;[root] var.SECRET_ACCESS_KEY -->
<g id="edge18" class="edge">
<title>[root] provider.aws&#45;&gt;[root] var.SECRET_ACCESS_KEY</title>
<path fill="none" stroke="#000000" d="M477.3547,-78.2717C501.8634,-67.9522 538.2011,-52.6522 568.1311,-40.0501"/>
<polygon fill="#000000" stroke="#000000" points="569.7422,-43.1694 577.6004,-36.063 567.0258,-36.7179 569.7422,-43.1694"/>
</g>
<!-- [root] meta.count&#45;boundary (EachMode fixup) -->
<g id="node13" class="node">
<title>[root] meta.count&#45;boundary (EachMode fixup)</title>
<ellipse fill="none" stroke="#000000" cx="707.5" cy="-450" rx="176.5689" ry="18"/>
<text text-anchor="middle" x="707.5" y="-446.3" font-family="Times,serif" font-size="14.00" fill="#000000">[root] meta.count&#45;boundary (EachMode fixup)</text>
</g>
<!-- [root] meta.count&#45;boundary (EachMode fixup)&#45;&gt;[root] aws_iam_role_policy.s3&#45;inder&#45;bucket&#45;1993&#45;role&#45;policy -->
<g id="edge9" class="edge">
<title>[root] meta.count&#45;boundary (EachMode fixup)&#45;&gt;[root] aws_iam_role_policy.s3&#45;inder&#45;bucket&#45;1993&#45;role&#45;policy</title>
<path fill="none" stroke="#000000" d="M640.4712,-433.3008C598.8481,-422.931 545.0492,-409.5278 500.8405,-398.5139"/>
<polygon fill="#000000" stroke="#000000" points="501.5335,-395.0796 490.984,-396.0583 499.8413,-401.872 501.5335,-395.0796"/>
</g>
<!-- [root] meta.count&#45;boundary (EachMode fixup)&#45;&gt;[root] aws_s3_bucket.inder&#45;bucket&#45;1993 -->
<g id="edge10" class="edge">
<title>[root] meta.count&#45;boundary (EachMode fixup)&#45;&gt;[root] aws_s3_bucket.inder&#45;bucket&#45;1993</title>
<path fill="none" stroke="#000000" d="M704.7242,-431.8314C703.5478,-424.131 702.1489,-414.9743 700.8414,-406.4166"/>
<polygon fill="#000000" stroke="#000000" points="704.2833,-405.7699 699.3131,-396.4133 697.3636,-406.8272 704.2833,-405.7699"/>
</g>
<!-- [root] meta.count&#45;boundary (EachMode fixup)&#45;&gt;[root] output.public_ip -->
<g id="edge11" class="edge">
<title>[root] meta.count&#45;boundary (EachMode fixup)&#45;&gt;[root] output.public_ip</title>
<path fill="none" stroke="#000000" d="M746.885,-432.3868C768.5674,-422.6903 795.6896,-410.5612 818.8156,-400.2191"/>
<polygon fill="#000000" stroke="#000000" points="820.4222,-403.3347 828.1221,-396.0572 817.5645,-396.9446 820.4222,-403.3347"/>
</g>
<!-- [root] provider.aws (close) -->
<g id="node14" class="node">
<title>[root] provider.aws (close)</title>
<ellipse fill="none" stroke="#000000" cx="407.5" cy="-450" rx="105.0817" ry="18"/>
<text text-anchor="middle" x="407.5" y="-446.3" font-family="Times,serif" font-size="14.00" fill="#000000">[root] provider.aws (close)</text>
</g>
<!-- [root] provider.aws (close)&#45;&gt;[root] aws_iam_role_policy.s3&#45;inder&#45;bucket&#45;1993&#45;role&#45;policy -->
<g id="edge13" class="edge">
<title>[root] provider.aws (close)&#45;&gt;[root] aws_iam_role_policy.s3&#45;inder&#45;bucket&#45;1993&#45;role&#45;policy</title>
<path fill="none" stroke="#000000" d="M410.2758,-431.8314C411.4522,-424.131 412.8511,-414.9743 414.1586,-406.4166"/>
<polygon fill="#000000" stroke="#000000" points="417.6364,-406.8272 415.6869,-396.4133 410.7167,-405.7699 417.6364,-406.8272"/>
</g>
<!-- [root] provider.aws (close)&#45;&gt;[root] aws_instance.ubuntu&#45;vm -->
<g id="edge14" class="edge">
<title>[root] provider.aws (close)&#45;&gt;[root] aws_instance.ubuntu&#45;vm</title>
<path fill="none" stroke="#000000" d="M342.5829,-435.7178C304.5249,-425.8837 261.7592,-411.7791 250.5,-396 241.2065,-382.9757 242.9105,-374.0854 250.5,-360 257.2016,-347.5626 268.1591,-337.5183 279.9142,-329.6213"/>
<polygon fill="#000000" stroke="#000000" points="281.9179,-332.497 288.5653,-324.247 278.224,-326.551 281.9179,-332.497"/>
</g>
<!-- [root] provider.aws (close)&#45;&gt;[root] aws_s3_bucket.inder&#45;bucket&#45;1993 -->
<g id="edge15" class="edge">
<title>[root] provider.aws (close)&#45;&gt;[root] aws_s3_bucket.inder&#45;bucket&#45;1993</title>
<path fill="none" stroke="#000000" d="M467.381,-435.0816C509.9052,-424.4873 567.5253,-410.1321 614.343,-398.4682"/>
<polygon fill="#000000" stroke="#000000" points="615.3028,-401.8361 624.1601,-396.0224 613.6105,-395.0437 615.3028,-401.8361"/>
</g>
<!-- [root] root -->
<g id="node15" class="node">
<title>[root] root</title>
<ellipse fill="none" stroke="#000000" cx="557.5" cy="-522" rx="47.3916" ry="18"/>
<text text-anchor="middle" x="557.5" y="-518.3" font-family="Times,serif" font-size="14.00" fill="#000000">[root] root</text>
</g>
<!-- [root] root&#45;&gt;[root] meta.count&#45;boundary (EachMode fixup) -->
<g id="edge19" class="edge">
<title>[root] root&#45;&gt;[root] meta.count&#45;boundary (EachMode fixup)</title>
<path fill="none" stroke="#000000" d="M587.1352,-507.7751C608.4091,-497.5636 637.4834,-483.608 661.7274,-471.9708"/>
<polygon fill="#000000" stroke="#000000" points="663.2557,-475.1196 670.7564,-467.6369 660.2266,-468.809 663.2557,-475.1196"/>
</g>
<!-- [root] root&#45;&gt;[root] provider.aws (close) -->
<g id="edge20" class="edge">
<title>[root] root&#45;&gt;[root] provider.aws (close)</title>
<path fill="none" stroke="#000000" d="M527.8648,-507.7751C506.2123,-497.3819 476.4794,-483.1101 451.9831,-471.3519"/>
<polygon fill="#000000" stroke="#000000" points="453.4085,-468.1538 442.8787,-466.9818 450.3794,-474.4645 453.4085,-468.1538"/>
</g>
</g>
</svg>
