<?xml version="1.0" encoding="UTF-8" standalone="no"?>
<!DOCTYPE svg PUBLIC "-//W3C//DTD SVG 1.1//EN"
 "http://www.w3.org/Graphics/SVG/1.1/DTD/svg11.dtd">
<!-- Generated by graphviz version 2.40.1 (20161225.0304)
 -->
<!-- Title: %3 Pages: 1 -->
<svg width="1096pt" height="404pt"
 viewBox="0.00 0.00 1095.79 404.00" xmlns="http://www.w3.org/2000/svg" xmlns:xlink="http://www.w3.org/1999/xlink">
<g id="graph0" class="graph" transform="scale(1 1) rotate(0) translate(4 400)">
<title>%3</title>
<polygon fill="#ffffff" stroke="transparent" points="-4,4 -4,-400 1091.7907,-400 1091.7907,4 -4,4"/>
<!-- [root] aws_instance.ubuntu&#45;vm -->
<g id="node1" class="node">
<title>[root] aws_instance.ubuntu&#45;vm</title>
<polygon fill="none" stroke="#000000" points="706.5,-180 554.5,-180 554.5,-144 706.5,-144 706.5,-180"/>
<text text-anchor="middle" x="630.5" y="-158.3" font-family="Times,serif" font-size="14.00" fill="#000000">aws_instance.ubuntu&#45;vm</text>
</g>
<!-- [root] provider.aws -->
<g id="node9" class="node">
<title>[root] provider.aws</title>
<polygon fill="none" stroke="#000000" points="630.5,-108 550.5666,-90 630.5,-72 710.4334,-90 630.5,-108"/>
<text text-anchor="middle" x="630.5" y="-86.3" font-family="Times,serif" font-size="14.00" fill="#000000">provider.aws</text>
</g>
<!-- [root] aws_instance.ubuntu&#45;vm&#45;&gt;[root] provider.aws -->
<g id="edge1" class="edge">
<title>[root] aws_instance.ubuntu&#45;vm&#45;&gt;[root] provider.aws</title>
<path fill="none" stroke="#000000" d="M630.5,-143.8314C630.5,-136.131 630.5,-126.9743 630.5,-118.4166"/>
<polygon fill="#000000" stroke="#000000" points="634.0001,-118.4132 630.5,-108.4133 627.0001,-118.4133 634.0001,-118.4132"/>
</g>
<!-- [root] output.amazon_resource_name -->
<g id="node2" class="node">
<title>[root] output.amazon_resource_name</title>
<polygon fill="none" stroke="#000000" points="181,-252 0,-252 0,-216 187,-216 187,-246 181,-252"/>
<polyline fill="none" stroke="#000000" points="181,-252 181,-246 "/>
<polyline fill="none" stroke="#000000" points="187,-246 181,-246 "/>
<text text-anchor="middle" x="93.5" y="-230.3" font-family="Times,serif" font-size="14.00" fill="#000000">output.amazon_resource_name</text>
</g>
<!-- [root] output.amazon_resource_name&#45;&gt;[root] aws_instance.ubuntu&#45;vm -->
<g id="edge9" class="edge">
<title>[root] output.amazon_resource_name&#45;&gt;[root] aws_instance.ubuntu&#45;vm</title>
<path fill="none" stroke="#000000" d="M187.2171,-217.4207C190.347,-216.9313 193.4479,-216.4563 196.5,-216 316.7691,-198.02 456.4204,-181.4017 544.1288,-171.4786"/>
<polygon fill="#000000" stroke="#000000" points="544.7535,-174.9305 554.2982,-170.3318 543.969,-167.9746 544.7535,-174.9305"/>
</g>
<!-- [root] output.availability_zone -->
<g id="node3" class="node">
<title>[root] output.availability_zone</title>
<polygon fill="none" stroke="#000000" points="347.5,-252 205.5,-252 205.5,-216 353.5,-216 353.5,-246 347.5,-252"/>
<polyline fill="none" stroke="#000000" points="347.5,-252 347.5,-246 "/>
<polyline fill="none" stroke="#000000" points="353.5,-246 347.5,-246 "/>
<text text-anchor="middle" x="279.5" y="-230.3" font-family="Times,serif" font-size="14.00" fill="#000000">output.availability_zone</text>
</g>
<!-- [root] output.availability_zone&#45;&gt;[root] aws_instance.ubuntu&#45;vm -->
<g id="edge10" class="edge">
<title>[root] output.availability_zone&#45;&gt;[root] aws_instance.ubuntu&#45;vm</title>
<path fill="none" stroke="#000000" d="M353.7002,-217.8517C356.6715,-217.223 359.6135,-216.6038 362.5,-216 423.2751,-203.2878 491.9202,-189.4666 544.5216,-178.9894"/>
<polygon fill="#000000" stroke="#000000" points="545.3611,-182.391 554.4856,-177.0065 543.9948,-175.5257 545.3611,-182.391"/>
</g>
<!-- [root] output.instance_id -->
<g id="node4" class="node">
<title>[root] output.instance_id</title>
<polygon fill="none" stroke="#000000" points="481.5,-252 371.5,-252 371.5,-216 487.5,-216 487.5,-246 481.5,-252"/>
<polyline fill="none" stroke="#000000" points="481.5,-252 481.5,-246 "/>
<polyline fill="none" stroke="#000000" points="487.5,-246 481.5,-246 "/>
<text text-anchor="middle" x="429.5" y="-230.3" font-family="Times,serif" font-size="14.00" fill="#000000">output.instance_id</text>
</g>
<!-- [root] output.instance_id&#45;&gt;[root] aws_instance.ubuntu&#45;vm -->
<g id="edge11" class="edge">
<title>[root] output.instance_id&#45;&gt;[root] aws_instance.ubuntu&#45;vm</title>
<path fill="none" stroke="#000000" d="M479.9613,-215.9243C507.4392,-206.0815 541.6172,-193.8386 570.4588,-183.5073"/>
<polygon fill="#000000" stroke="#000000" points="571.784,-186.7505 580.0179,-180.0831 569.4233,-180.1605 571.784,-186.7505"/>
</g>
<!-- [root] output.private_dns -->
<g id="node5" class="node">
<title>[root] output.private_dns</title>
<polygon fill="none" stroke="#000000" points="617.5,-252 505.5,-252 505.5,-216 623.5,-216 623.5,-246 617.5,-252"/>
<polyline fill="none" stroke="#000000" points="617.5,-252 617.5,-246 "/>
<polyline fill="none" stroke="#000000" points="623.5,-246 617.5,-246 "/>
<text text-anchor="middle" x="564.5" y="-230.3" font-family="Times,serif" font-size="14.00" fill="#000000">output.private_dns</text>
</g>
<!-- [root] output.private_dns&#45;&gt;[root] aws_instance.ubuntu&#45;vm -->
<g id="edge12" class="edge">
<title>[root] output.private_dns&#45;&gt;[root] aws_instance.ubuntu&#45;vm</title>
<path fill="none" stroke="#000000" d="M581.1546,-215.8314C588.9114,-207.3694 598.2802,-197.1489 606.761,-187.8971"/>
<polygon fill="#000000" stroke="#000000" points="609.4439,-190.1499 613.6212,-180.4133 604.2838,-185.4198 609.4439,-190.1499"/>
</g>
<!-- [root] output.private_ip -->
<g id="node6" class="node">
<title>[root] output.private_ip</title>
<polygon fill="none" stroke="#000000" points="745.5,-252 641.5,-252 641.5,-216 751.5,-216 751.5,-246 745.5,-252"/>
<polyline fill="none" stroke="#000000" points="745.5,-252 745.5,-246 "/>
<polyline fill="none" stroke="#000000" points="751.5,-246 745.5,-246 "/>
<text text-anchor="middle" x="696.5" y="-230.3" font-family="Times,serif" font-size="14.00" fill="#000000">output.private_ip</text>
</g>
<!-- [root] output.private_ip&#45;&gt;[root] aws_instance.ubuntu&#45;vm -->
<g id="edge13" class="edge">
<title>[root] output.private_ip&#45;&gt;[root] aws_instance.ubuntu&#45;vm</title>
<path fill="none" stroke="#000000" d="M679.8454,-215.8314C672.0886,-207.3694 662.7198,-197.1489 654.239,-187.8971"/>
<polygon fill="#000000" stroke="#000000" points="656.7162,-185.4198 647.3788,-180.4133 651.5561,-190.1499 656.7162,-185.4198"/>
</g>
<!-- [root] output.public_dns -->
<g id="node7" class="node">
<title>[root] output.public_dns</title>
<polygon fill="none" stroke="#000000" points="877.5,-252 769.5,-252 769.5,-216 883.5,-216 883.5,-246 877.5,-252"/>
<polyline fill="none" stroke="#000000" points="877.5,-252 877.5,-246 "/>
<polyline fill="none" stroke="#000000" points="883.5,-246 877.5,-246 "/>
<text text-anchor="middle" x="826.5" y="-230.3" font-family="Times,serif" font-size="14.00" fill="#000000">output.public_dns</text>
</g>
<!-- [root] output.public_dns&#45;&gt;[root] aws_instance.ubuntu&#45;vm -->
<g id="edge14" class="edge">
<title>[root] output.public_dns&#45;&gt;[root] aws_instance.ubuntu&#45;vm</title>
<path fill="none" stroke="#000000" d="M777.2939,-215.9243C750.6161,-206.1243 717.4614,-193.945 689.4148,-183.6422"/>
<polygon fill="#000000" stroke="#000000" points="690.3199,-180.246 679.7263,-180.0831 687.9062,-186.8167 690.3199,-180.246"/>
</g>
<!-- [root] output.public_ip -->
<g id="node8" class="node">
<title>[root] output.public_ip</title>
<polygon fill="none" stroke="#000000" points="1001.5,-252 901.5,-252 901.5,-216 1007.5,-216 1007.5,-246 1001.5,-252"/>
<polyline fill="none" stroke="#000000" points="1001.5,-252 1001.5,-246 "/>
<polyline fill="none" stroke="#000000" points="1007.5,-246 1001.5,-246 "/>
<text text-anchor="middle" x="954.5" y="-230.3" font-family="Times,serif" font-size="14.00" fill="#000000">output.public_ip</text>
</g>
<!-- [root] output.public_ip&#45;&gt;[root] aws_instance.ubuntu&#45;vm -->
<g id="edge15" class="edge">
<title>[root] output.public_ip&#45;&gt;[root] aws_instance.ubuntu&#45;vm</title>
<path fill="none" stroke="#000000" d="M901.4749,-218.3058C898.4449,-217.5025 895.4374,-216.7279 892.5,-216 834.1793,-201.5481 767.891,-187.9117 716.5834,-177.9576"/>
<polygon fill="#000000" stroke="#000000" points="717.0106,-174.4756 706.5285,-176.0168 715.6838,-181.3487 717.0106,-174.4756"/>
</g>
<!-- [root] var.ACCESS_KEY_ID -->
<g id="node10" class="node">
<title>[root] var.ACCESS_KEY_ID</title>
<polygon fill="none" stroke="#000000" points="543.5,-36 405.5,-36 405.5,0 549.5,0 549.5,-30 543.5,-36"/>
<polyline fill="none" stroke="#000000" points="543.5,-36 543.5,-30 "/>
<polyline fill="none" stroke="#000000" points="549.5,-30 543.5,-30 "/>
<text text-anchor="middle" x="477.5" y="-14.3" font-family="Times,serif" font-size="14.00" fill="#000000">var.ACCESS_KEY_ID</text>
</g>
<!-- [root] provider.aws&#45;&gt;[root] var.ACCESS_KEY_ID -->
<g id="edge17" class="edge">
<title>[root] provider.aws&#45;&gt;[root] var.ACCESS_KEY_ID</title>
<path fill="none" stroke="#000000" d="M604.5456,-77.7862C582.905,-67.6024 551.4966,-52.8219 525.3242,-40.5055"/>
<polygon fill="#000000" stroke="#000000" points="526.4848,-37.1836 515.9463,-36.0924 523.5042,-43.5173 526.4848,-37.1836"/>
</g>
<!-- [root] var.AWS_REGION -->
<g id="node11" class="node">
<title>[root] var.AWS_REGION</title>
<polygon fill="none" stroke="#000000" points="687.5,-36 567.5,-36 567.5,0 693.5,0 693.5,-30 687.5,-36"/>
<polyline fill="none" stroke="#000000" points="687.5,-36 687.5,-30 "/>
<polyline fill="none" stroke="#000000" points="693.5,-30 687.5,-30 "/>
<text text-anchor="middle" x="630.5" y="-14.3" font-family="Times,serif" font-size="14.00" fill="#000000">var.AWS_REGION</text>
</g>
<!-- [root] provider.aws&#45;&gt;[root] var.AWS_REGION -->
<g id="edge18" class="edge">
<title>[root] provider.aws&#45;&gt;[root] var.AWS_REGION</title>
<path fill="none" stroke="#000000" d="M630.5,-71.8314C630.5,-64.131 630.5,-54.9743 630.5,-46.4166"/>
<polygon fill="#000000" stroke="#000000" points="634.0001,-46.4132 630.5,-36.4133 627.0001,-46.4133 634.0001,-46.4132"/>
</g>
<!-- [root] var.SECRET_ACCESS_KEY -->
<g id="node12" class="node">
<title>[root] var.SECRET_ACCESS_KEY</title>
<polygon fill="none" stroke="#000000" points="885.5,-36 711.5,-36 711.5,0 891.5,0 891.5,-30 885.5,-36"/>
<polyline fill="none" stroke="#000000" points="885.5,-36 885.5,-30 "/>
<polyline fill="none" stroke="#000000" points="891.5,-30 885.5,-30 "/>
<text text-anchor="middle" x="801.5" y="-14.3" font-family="Times,serif" font-size="14.00" fill="#000000">var.SECRET_ACCESS_KEY</text>
</g>
<!-- [root] provider.aws&#45;&gt;[root] var.SECRET_ACCESS_KEY -->
<g id="edge19" class="edge">
<title>[root] provider.aws&#45;&gt;[root] var.SECRET_ACCESS_KEY</title>
<path fill="none" stroke="#000000" d="M658.3547,-78.2717C682.8634,-67.9522 719.2011,-52.6522 749.1311,-40.0501"/>
<polygon fill="#000000" stroke="#000000" points="750.7422,-43.1694 758.6004,-36.063 748.0258,-36.7179 750.7422,-43.1694"/>
</g>
<!-- [root] meta.count&#45;boundary (EachMode fixup) -->
<g id="node13" class="node">
<title>[root] meta.count&#45;boundary (EachMode fixup)</title>
<ellipse fill="none" stroke="#000000" cx="630.5" cy="-306" rx="176.5689" ry="18"/>
<text text-anchor="middle" x="630.5" y="-302.3" font-family="Times,serif" font-size="14.00" fill="#000000">[root] meta.count&#45;boundary (EachMode fixup)</text>
</g>
<!-- [root] meta.count&#45;boundary (EachMode fixup)&#45;&gt;[root] output.amazon_resource_name -->
<g id="edge2" class="edge">
<title>[root] meta.count&#45;boundary (EachMode fixup)&#45;&gt;[root] output.amazon_resource_name</title>
<path fill="none" stroke="#000000" d="M510.5452,-292.682C425.8431,-282.8982 309.4375,-268.6908 197.3528,-252.089"/>
<polygon fill="#000000" stroke="#000000" points="197.6237,-248.5908 187.2171,-250.5793 196.5924,-255.5144 197.6237,-248.5908"/>
</g>
<!-- [root] meta.count&#45;boundary (EachMode fixup)&#45;&gt;[root] output.availability_zone -->
<g id="edge3" class="edge">
<title>[root] meta.count&#45;boundary (EachMode fixup)&#45;&gt;[root] output.availability_zone</title>
<path fill="none" stroke="#000000" d="M549.2196,-289.946C498.5451,-279.8611 431.7141,-266.424 363.7362,-252.2453"/>
<polygon fill="#000000" stroke="#000000" points="364.2046,-248.7676 353.7002,-250.1483 362.7729,-255.6197 364.2046,-248.7676"/>
</g>
<!-- [root] meta.count&#45;boundary (EachMode fixup)&#45;&gt;[root] output.instance_id -->
<g id="edge4" class="edge">
<title>[root] meta.count&#45;boundary (EachMode fixup)&#45;&gt;[root] output.instance_id</title>
<path fill="none" stroke="#000000" d="M582.0997,-288.6626C554.3385,-278.7183 519.2462,-266.1479 489.7151,-255.5696"/>
<polygon fill="#000000" stroke="#000000" points="490.5265,-252.1425 479.932,-252.0652 488.1659,-258.7325 490.5265,-252.1425"/>
</g>
<!-- [root] meta.count&#45;boundary (EachMode fixup)&#45;&gt;[root] output.private_dns -->
<g id="edge5" class="edge">
<title>[root] meta.count&#45;boundary (EachMode fixup)&#45;&gt;[root] output.private_dns</title>
<path fill="none" stroke="#000000" d="M613.8454,-287.8314C606.0886,-279.3694 596.7198,-269.1489 588.239,-259.8971"/>
<polygon fill="#000000" stroke="#000000" points="590.7162,-257.4198 581.3788,-252.4133 585.5561,-262.1499 590.7162,-257.4198"/>
</g>
<!-- [root] meta.count&#45;boundary (EachMode fixup)&#45;&gt;[root] output.private_ip -->
<g id="edge6" class="edge">
<title>[root] meta.count&#45;boundary (EachMode fixup)&#45;&gt;[root] output.private_ip</title>
<path fill="none" stroke="#000000" d="M647.1546,-287.8314C654.9114,-279.3694 664.2802,-269.1489 672.761,-259.8971"/>
<polygon fill="#000000" stroke="#000000" points="675.4439,-262.1499 679.6212,-252.4133 670.2838,-257.4198 675.4439,-262.1499"/>
</g>
<!-- [root] meta.count&#45;boundary (EachMode fixup)&#45;&gt;[root] output.public_dns -->
<g id="edge7" class="edge">
<title>[root] meta.count&#45;boundary (EachMode fixup)&#45;&gt;[root] output.public_dns</title>
<path fill="none" stroke="#000000" d="M677.9461,-288.5708C705.0217,-278.6247 739.1869,-266.0742 767.9244,-255.5176"/>
<polygon fill="#000000" stroke="#000000" points="769.2641,-258.7542 777.4439,-252.0206 766.8504,-252.1835 769.2641,-258.7542"/>
</g>
<!-- [root] meta.count&#45;boundary (EachMode fixup)&#45;&gt;[root] output.public_ip -->
<g id="edge8" class="edge">
<title>[root] meta.count&#45;boundary (EachMode fixup)&#45;&gt;[root] output.public_ip</title>
<path fill="none" stroke="#000000" d="M715.8409,-290.1864C764.7402,-280.7066 827.4254,-267.8505 891.5842,-252.1367"/>
<polygon fill="#000000" stroke="#000000" points="892.6057,-255.4897 901.4749,-249.6942 890.9274,-248.6938 892.6057,-255.4897"/>
</g>
<!-- [root] provider.aws (close) -->
<g id="node14" class="node">
<title>[root] provider.aws (close)</title>
<ellipse fill="none" stroke="#000000" cx="982.5" cy="-306" rx="105.0817" ry="18"/>
<text text-anchor="middle" x="982.5" y="-302.3" font-family="Times,serif" font-size="14.00" fill="#000000">[root] provider.aws (close)</text>
</g>
<!-- [root] provider.aws (close)&#45;&gt;[root] aws_instance.ubuntu&#45;vm -->
<g id="edge16" class="edge">
<title>[root] provider.aws (close)&#45;&gt;[root] aws_instance.ubuntu&#45;vm</title>
<path fill="none" stroke="#000000" d="M998.8993,-288.2072C1014.9987,-268.5517 1034.6969,-236.9198 1016.5,-216 997.1134,-193.7125 824.5843,-176.7056 716.8489,-168.145"/>
<polygon fill="#000000" stroke="#000000" points="716.8758,-164.6364 706.6325,-167.343 716.3279,-171.6149 716.8758,-164.6364"/>
</g>
<!-- [root] root -->
<g id="node15" class="node">
<title>[root] root</title>
<ellipse fill="none" stroke="#000000" cx="780.5" cy="-378" rx="47.3916" ry="18"/>
<text text-anchor="middle" x="780.5" y="-374.3" font-family="Times,serif" font-size="14.00" fill="#000000">[root] root</text>
</g>
<!-- [root] root&#45;&gt;[root] meta.count&#45;boundary (EachMode fixup) -->
<g id="edge20" class="edge">
<title>[root] root&#45;&gt;[root] meta.count&#45;boundary (EachMode fixup)</title>
<path fill="none" stroke="#000000" d="M750.8648,-363.7751C729.5909,-353.5636 700.5166,-339.608 676.2726,-327.9708"/>
<polygon fill="#000000" stroke="#000000" points="677.7734,-324.809 667.2436,-323.6369 674.7443,-331.1196 677.7734,-324.809"/>
</g>
<!-- [root] root&#45;&gt;[root] provider.aws (close) -->
<g id="edge21" class="edge">
<title>[root] root&#45;&gt;[root] provider.aws (close)</title>
<path fill="none" stroke="#000000" d="M815.225,-365.6228C845.9513,-354.6708 891.3292,-338.4965 927.0723,-325.7564"/>
<polygon fill="#000000" stroke="#000000" points="928.6336,-328.9157 936.878,-322.2613 926.2833,-322.322 928.6336,-328.9157"/>
</g>
</g>
</svg>
