<?xml version="1.0" encoding="UTF-8" standalone="no"?>
<!DOCTYPE svg PUBLIC "-//W3C//DTD SVG 1.1//EN"
 "http://www.w3.org/Graphics/SVG/1.1/DTD/svg11.dtd">
<!-- Generated by graphviz version 2.40.1 (20161225.0304)
 -->
<!-- Title: %3 Pages: 1 -->
<svg width="2245pt" height="620pt"
 viewBox="0.00 0.00 2244.50 620.00" xmlns="http://www.w3.org/2000/svg" xmlns:xlink="http://www.w3.org/1999/xlink">
<g id="graph0" class="graph" transform="scale(1 1) rotate(0) translate(4 616)">
<title>%3</title>
<polygon fill="#ffffff" stroke="transparent" points="-4,4 -4,-616 2240.5,-616 2240.5,4 -4,4"/>
<!-- [root] aws_eip.nat&#45;eip -->
<g id="node1" class="node">
<title>[root] aws_eip.nat&#45;eip</title>
<polygon fill="none" stroke="#000000" points="1041.5,-180 939.5,-180 939.5,-144 1041.5,-144 1041.5,-180"/>
<text text-anchor="middle" x="990.5" y="-158.3" font-family="Times,serif" font-size="14.00" fill="#000000">aws_eip.nat&#45;eip</text>
</g>
<!-- [root] provider.aws -->
<g id="node19" class="node">
<title>[root] provider.aws</title>
<polygon fill="none" stroke="#000000" points="1048.5,-108 968.5666,-90 1048.5,-72 1128.4334,-90 1048.5,-108"/>
<text text-anchor="middle" x="1048.5" y="-86.3" font-family="Times,serif" font-size="14.00" fill="#000000">provider.aws</text>
</g>
<!-- [root] aws_eip.nat&#45;eip&#45;&gt;[root] provider.aws -->
<g id="edge1" class="edge">
<title>[root] aws_eip.nat&#45;eip&#45;&gt;[root] provider.aws</title>
<path fill="none" stroke="#000000" d="M1005.1358,-143.8314C1012.5817,-134.5883 1021.7176,-123.2471 1029.6806,-113.362"/>
<polygon fill="#000000" stroke="#000000" points="1032.4831,-115.4622 1036.0308,-105.479 1027.0319,-111.0709 1032.4831,-115.4622"/>
</g>
<!-- [root] aws_internet_gateway.igw -->
<g id="node2" class="node">
<title>[root] aws_internet_gateway.igw</title>
<polygon fill="none" stroke="#000000" points="1276,-252 1115,-252 1115,-216 1276,-216 1276,-252"/>
<text text-anchor="middle" x="1195.5" y="-230.3" font-family="Times,serif" font-size="14.00" fill="#000000">aws_internet_gateway.igw</text>
</g>
<!-- [root] aws_vpc.main -->
<g id="node18" class="node">
<title>[root] aws_vpc.main</title>
<polygon fill="none" stroke="#000000" points="1161,-180 1066,-180 1066,-144 1161,-144 1161,-180"/>
<text text-anchor="middle" x="1113.5" y="-158.3" font-family="Times,serif" font-size="14.00" fill="#000000">aws_vpc.main</text>
</g>
<!-- [root] aws_internet_gateway.igw&#45;&gt;[root] aws_vpc.main -->
<g id="edge2" class="edge">
<title>[root] aws_internet_gateway.igw&#45;&gt;[root] aws_vpc.main</title>
<path fill="none" stroke="#000000" d="M1174.8079,-215.8314C1164.8052,-207.0485 1152.645,-196.3712 1141.8001,-186.8489"/>
<polygon fill="#000000" stroke="#000000" points="1144.0092,-184.1308 1134.1854,-180.1628 1139.3906,-189.3909 1144.0092,-184.1308"/>
</g>
<!-- [root] aws_nat_gateway.nat&#45;gw -->
<g id="node3" class="node">
<title>[root] aws_nat_gateway.nat&#45;gw</title>
<polygon fill="none" stroke="#000000" points="1050.5,-324 896.5,-324 896.5,-288 1050.5,-288 1050.5,-324"/>
<text text-anchor="middle" x="973.5" y="-302.3" font-family="Times,serif" font-size="14.00" fill="#000000">aws_nat_gateway.nat&#45;gw</text>
</g>
<!-- [root] aws_nat_gateway.nat&#45;gw&#45;&gt;[root] aws_eip.nat&#45;eip -->
<g id="edge3" class="edge">
<title>[root] aws_nat_gateway.nat&#45;gw&#45;&gt;[root] aws_eip.nat&#45;eip</title>
<path fill="none" stroke="#000000" d="M966.3204,-287.8368C960.0801,-269.4912 952.9818,-240.4466 959.5,-216 961.9952,-206.6419 966.5408,-197.2199 971.3961,-188.925"/>
<polygon fill="#000000" stroke="#000000" points="974.3771,-190.759 976.7037,-180.4228 968.4392,-187.0521 974.3771,-190.759"/>
</g>
<!-- [root] aws_nat_gateway.nat&#45;gw&#45;&gt;[root] aws_internet_gateway.igw -->
<g id="edge4" class="edge">
<title>[root] aws_nat_gateway.nat&#45;gw&#45;&gt;[root] aws_internet_gateway.igw</title>
<path fill="none" stroke="#000000" d="M1029.2334,-287.9243C1059.846,-277.9959 1097.9881,-265.6255 1130.0155,-255.2382"/>
<polygon fill="#000000" stroke="#000000" points="1131.3112,-258.4975 1139.7436,-252.0831 1129.1516,-251.839 1131.3112,-258.4975"/>
</g>
<!-- [root] aws_subnet.public&#45;1 -->
<g id="node15" class="node">
<title>[root] aws_subnet.public&#45;1</title>
<polygon fill="none" stroke="#000000" points="1096.5,-252 968.5,-252 968.5,-216 1096.5,-216 1096.5,-252"/>
<text text-anchor="middle" x="1032.5" y="-230.3" font-family="Times,serif" font-size="14.00" fill="#000000">aws_subnet.public&#45;1</text>
</g>
<!-- [root] aws_nat_gateway.nat&#45;gw&#45;&gt;[root] aws_subnet.public&#45;1 -->
<g id="edge5" class="edge">
<title>[root] aws_nat_gateway.nat&#45;gw&#45;&gt;[root] aws_subnet.public&#45;1</title>
<path fill="none" stroke="#000000" d="M988.3882,-287.8314C995.253,-279.454 1003.5301,-269.3531 1011.0511,-260.1749"/>
<polygon fill="#000000" stroke="#000000" points="1013.7803,-262.3665 1017.4114,-252.4133 1008.3659,-257.9297 1013.7803,-262.3665"/>
</g>
<!-- [root] aws_route_table.main&#45;private -->
<g id="node4" class="node">
<title>[root] aws_route_table.main&#45;private</title>
<polygon fill="none" stroke="#000000" points="886,-396 707,-396 707,-360 886,-360 886,-396"/>
<text text-anchor="middle" x="796.5" y="-374.3" font-family="Times,serif" font-size="14.00" fill="#000000">aws_route_table.main&#45;private</text>
</g>
<!-- [root] aws_route_table.main&#45;private&#45;&gt;[root] aws_nat_gateway.nat&#45;gw -->
<g id="edge6" class="edge">
<title>[root] aws_route_table.main&#45;private&#45;&gt;[root] aws_nat_gateway.nat&#45;gw</title>
<path fill="none" stroke="#000000" d="M841.1646,-359.8314C865.0477,-350.1162 894.629,-338.0831 919.7628,-327.8592"/>
<polygon fill="#000000" stroke="#000000" points="921.2125,-331.0481 929.1566,-324.038 918.5748,-324.564 921.2125,-331.0481"/>
</g>
<!-- [root] aws_route_table.main&#45;public -->
<g id="node5" class="node">
<title>[root] aws_route_table.main&#45;public</title>
<polygon fill="none" stroke="#000000" points="1462,-396 1287,-396 1287,-360 1462,-360 1462,-396"/>
<text text-anchor="middle" x="1374.5" y="-374.3" font-family="Times,serif" font-size="14.00" fill="#000000">aws_route_table.main&#45;public</text>
</g>
<!-- [root] aws_route_table.main&#45;public&#45;&gt;[root] aws_internet_gateway.igw -->
<g id="edge7" class="edge">
<title>[root] aws_route_table.main&#45;public&#45;&gt;[root] aws_internet_gateway.igw</title>
<path fill="none" stroke="#000000" d="M1286.7721,-362.0962C1263.2846,-354.0871 1239.6789,-342.0583 1222.5,-324 1206.7518,-307.4457 1200.1538,-282.0652 1197.4074,-262.4719"/>
<polygon fill="#000000" stroke="#000000" points="1200.8551,-261.8137 1196.2443,-252.2748 1193.9002,-262.6071 1200.8551,-261.8137"/>
</g>
<!-- [root] aws_route_table_association.main&#45;private&#45;route&#45;association&#45;1a -->
<g id="node6" class="node">
<title>[root] aws_route_table_association.main&#45;private&#45;route&#45;association&#45;1a</title>
<polygon fill="none" stroke="#000000" points="736,-468 377,-468 377,-432 736,-432 736,-468"/>
<text text-anchor="middle" x="556.5" y="-446.3" font-family="Times,serif" font-size="14.00" fill="#000000">aws_route_table_association.main&#45;private&#45;route&#45;association&#45;1a</text>
</g>
<!-- [root] aws_route_table_association.main&#45;private&#45;route&#45;association&#45;1a&#45;&gt;[root] aws_route_table.main&#45;private -->
<g id="edge8" class="edge">
<title>[root] aws_route_table_association.main&#45;private&#45;route&#45;association&#45;1a&#45;&gt;[root] aws_route_table.main&#45;private</title>
<path fill="none" stroke="#000000" d="M616.7523,-431.9243C650.1323,-421.9103 691.7932,-409.412 726.5999,-398.97"/>
<polygon fill="#000000" stroke="#000000" points="727.6503,-402.3091 736.2229,-396.0831 725.6389,-395.6043 727.6503,-402.3091"/>
</g>
<!-- [root] aws_subnet.private&#45;1 -->
<g id="node12" class="node">
<title>[root] aws_subnet.private&#45;1</title>
<polygon fill="none" stroke="#000000" points="755.5,-324 623.5,-324 623.5,-288 755.5,-288 755.5,-324"/>
<text text-anchor="middle" x="689.5" y="-302.3" font-family="Times,serif" font-size="14.00" fill="#000000">aws_subnet.private&#45;1</text>
</g>
<!-- [root] aws_route_table_association.main&#45;private&#45;route&#45;association&#45;1a&#45;&gt;[root] aws_subnet.private&#45;1 -->
<g id="edge9" class="edge">
<title>[root] aws_route_table_association.main&#45;private&#45;route&#45;association&#45;1a&#45;&gt;[root] aws_subnet.private&#45;1</title>
<path fill="none" stroke="#000000" d="M573.3445,-431.7623C596.7291,-406.4436 639.1464,-360.5182 665.74,-331.7251"/>
<polygon fill="#000000" stroke="#000000" points="668.5784,-333.8105 672.7922,-324.0896 663.4361,-329.061 668.5784,-333.8105"/>
</g>
<!-- [root] aws_route_table_association.main&#45;private&#45;route&#45;association&#45;1b -->
<g id="node7" class="node">
<title>[root] aws_route_table_association.main&#45;private&#45;route&#45;association&#45;1b</title>
<polygon fill="none" stroke="#000000" points="1114.5,-468 754.5,-468 754.5,-432 1114.5,-432 1114.5,-468"/>
<text text-anchor="middle" x="934.5" y="-446.3" font-family="Times,serif" font-size="14.00" fill="#000000">aws_route_table_association.main&#45;private&#45;route&#45;association&#45;1b</text>
</g>
<!-- [root] aws_route_table_association.main&#45;private&#45;route&#45;association&#45;1b&#45;&gt;[root] aws_route_table.main&#45;private -->
<g id="edge10" class="edge">
<title>[root] aws_route_table_association.main&#45;private&#45;route&#45;association&#45;1b&#45;&gt;[root] aws_route_table.main&#45;private</title>
<path fill="none" stroke="#000000" d="M899.6768,-431.8314C881.6989,-422.4516 859.5797,-410.9112 840.4384,-400.9244"/>
<polygon fill="#000000" stroke="#000000" points="841.7969,-397.6855 831.3121,-396.1628 838.5589,-403.8916 841.7969,-397.6855"/>
</g>
<!-- [root] aws_subnet.private&#45;2 -->
<g id="node13" class="node">
<title>[root] aws_subnet.private&#45;2</title>
<polygon fill="none" stroke="#000000" points="1363.5,-324 1231.5,-324 1231.5,-288 1363.5,-288 1363.5,-324"/>
<text text-anchor="middle" x="1297.5" y="-302.3" font-family="Times,serif" font-size="14.00" fill="#000000">aws_subnet.private&#45;2</text>
</g>
<!-- [root] aws_route_table_association.main&#45;private&#45;route&#45;association&#45;1b&#45;&gt;[root] aws_subnet.private&#45;2 -->
<g id="edge11" class="edge">
<title>[root] aws_route_table_association.main&#45;private&#45;route&#45;association&#45;1b&#45;&gt;[root] aws_subnet.private&#45;2</title>
<path fill="none" stroke="#000000" d="M980.1066,-431.9081C1046.8963,-405.413 1171.1318,-356.1295 1242.7601,-327.715"/>
<polygon fill="#000000" stroke="#000000" points="1244.0752,-330.9587 1252.0799,-324.0179 1241.494,-324.452 1244.0752,-330.9587"/>
</g>
<!-- [root] aws_route_table_association.main&#45;private&#45;route&#45;association&#45;1c -->
<g id="node8" class="node">
<title>[root] aws_route_table_association.main&#45;private&#45;route&#45;association&#45;1c</title>
<polygon fill="none" stroke="#000000" points="359,-468 0,-468 0,-432 359,-432 359,-468"/>
<text text-anchor="middle" x="179.5" y="-446.3" font-family="Times,serif" font-size="14.00" fill="#000000">aws_route_table_association.main&#45;private&#45;route&#45;association&#45;1c</text>
</g>
<!-- [root] aws_route_table_association.main&#45;private&#45;route&#45;association&#45;1c&#45;&gt;[root] aws_route_table.main&#45;private -->
<g id="edge12" class="edge">
<title>[root] aws_route_table_association.main&#45;private&#45;route&#45;association&#45;1c&#45;&gt;[root] aws_route_table.main&#45;private</title>
<path fill="none" stroke="#000000" d="M334.001,-431.9707C447.5967,-418.7148 598.6591,-401.0868 696.7267,-389.6429"/>
<polygon fill="#000000" stroke="#000000" points="697.4084,-393.0872 706.9353,-388.4516 696.5969,-386.1344 697.4084,-393.0872"/>
</g>
<!-- [root] aws_subnet.private&#45;3 -->
<g id="node14" class="node">
<title>[root] aws_subnet.private&#45;3</title>
<polygon fill="none" stroke="#000000" points="784.5,-252 652.5,-252 652.5,-216 784.5,-216 784.5,-252"/>
<text text-anchor="middle" x="718.5" y="-230.3" font-family="Times,serif" font-size="14.00" fill="#000000">aws_subnet.private&#45;3</text>
</g>
<!-- [root] aws_route_table_association.main&#45;private&#45;route&#45;association&#45;1c&#45;&gt;[root] aws_subnet.private&#45;3 -->
<g id="edge13" class="edge">
<title>[root] aws_route_table_association.main&#45;private&#45;route&#45;association&#45;1c&#45;&gt;[root] aws_subnet.private&#45;3</title>
<path fill="none" stroke="#000000" d="M224.5278,-431.9555C323.0139,-392.4879 557.2623,-298.6147 663.9201,-255.8725"/>
<polygon fill="#000000" stroke="#000000" points="665.2409,-259.1138 673.2213,-252.1451 662.637,-252.6161 665.2409,-259.1138"/>
</g>
<!-- [root] aws_route_table_association.main&#45;public&#45;route&#45;association&#45;1a -->
<g id="node9" class="node">
<title>[root] aws_route_table_association.main&#45;public&#45;route&#45;association&#45;1a</title>
<polygon fill="none" stroke="#000000" points="1488.5,-468 1132.5,-468 1132.5,-432 1488.5,-432 1488.5,-468"/>
<text text-anchor="middle" x="1310.5" y="-446.3" font-family="Times,serif" font-size="14.00" fill="#000000">aws_route_table_association.main&#45;public&#45;route&#45;association&#45;1a</text>
</g>
<!-- [root] aws_route_table_association.main&#45;public&#45;route&#45;association&#45;1a&#45;&gt;[root] aws_route_table.main&#45;public -->
<g id="edge14" class="edge">
<title>[root] aws_route_table_association.main&#45;public&#45;route&#45;association&#45;1a&#45;&gt;[root] aws_route_table.main&#45;public</title>
<path fill="none" stroke="#000000" d="M1326.6499,-431.8314C1334.1717,-423.3694 1343.2565,-413.1489 1351.4804,-403.8971"/>
<polygon fill="#000000" stroke="#000000" points="1354.1049,-406.2127 1358.1327,-396.4133 1348.873,-401.5621 1354.1049,-406.2127"/>
</g>
<!-- [root] aws_route_table_association.main&#45;public&#45;route&#45;association&#45;1a&#45;&gt;[root] aws_subnet.public&#45;1 -->
<g id="edge15" class="edge">
<title>[root] aws_route_table_association.main&#45;public&#45;route&#45;association&#45;1a&#45;&gt;[root] aws_subnet.public&#45;1</title>
<path fill="none" stroke="#000000" d="M1287.276,-431.9555C1237.5019,-393.282 1120.4951,-302.3703 1064.0501,-258.5137"/>
<polygon fill="#000000" stroke="#000000" points="1065.8974,-255.5168 1055.8534,-252.1451 1061.6025,-261.0444 1065.8974,-255.5168"/>
</g>
<!-- [root] aws_route_table_association.main&#45;public&#45;route&#45;association&#45;1b -->
<g id="node10" class="node">
<title>[root] aws_route_table_association.main&#45;public&#45;route&#45;association&#45;1b</title>
<polygon fill="none" stroke="#000000" points="1862.5,-468 1506.5,-468 1506.5,-432 1862.5,-432 1862.5,-468"/>
<text text-anchor="middle" x="1684.5" y="-446.3" font-family="Times,serif" font-size="14.00" fill="#000000">aws_route_table_association.main&#45;public&#45;route&#45;association&#45;1b</text>
</g>
<!-- [root] aws_route_table_association.main&#45;public&#45;route&#45;association&#45;1b&#45;&gt;[root] aws_route_table.main&#45;public -->
<g id="edge16" class="edge">
<title>[root] aws_route_table_association.main&#45;public&#45;route&#45;association&#45;1b&#45;&gt;[root] aws_route_table.main&#45;public</title>
<path fill="none" stroke="#000000" d="M1606.674,-431.9243C1562.6455,-421.6983 1507.4632,-408.8818 1461.9446,-398.3097"/>
<polygon fill="#000000" stroke="#000000" points="1462.6216,-394.8739 1452.0891,-396.0207 1461.0379,-401.6924 1462.6216,-394.8739"/>
</g>
<!-- [root] aws_subnet.public&#45;2 -->
<g id="node16" class="node">
<title>[root] aws_subnet.public&#45;2</title>
<polygon fill="none" stroke="#000000" points="1581.5,-324 1453.5,-324 1453.5,-288 1581.5,-288 1581.5,-324"/>
<text text-anchor="middle" x="1517.5" y="-302.3" font-family="Times,serif" font-size="14.00" fill="#000000">aws_subnet.public&#45;2</text>
</g>
<!-- [root] aws_route_table_association.main&#45;public&#45;route&#45;association&#45;1b&#45;&gt;[root] aws_subnet.public&#45;2 -->
<g id="edge17" class="edge">
<title>[root] aws_route_table_association.main&#45;public&#45;route&#45;association&#45;1b&#45;&gt;[root] aws_subnet.public&#45;2</title>
<path fill="none" stroke="#000000" d="M1663.3493,-431.7623C1633.6103,-406.119 1579.3563,-359.3372 1546.0595,-330.6262"/>
<polygon fill="#000000" stroke="#000000" points="1548.3379,-327.9693 1538.4789,-324.0896 1543.7667,-333.2706 1548.3379,-327.9693"/>
</g>
<!-- [root] aws_route_table_association.main&#45;public&#45;route&#45;association&#45;1c -->
<g id="node11" class="node">
<title>[root] aws_route_table_association.main&#45;public&#45;route&#45;association&#45;1c</title>
<polygon fill="none" stroke="#000000" points="2236.5,-468 1880.5,-468 1880.5,-432 2236.5,-432 2236.5,-468"/>
<text text-anchor="middle" x="2058.5" y="-446.3" font-family="Times,serif" font-size="14.00" fill="#000000">aws_route_table_association.main&#45;public&#45;route&#45;association&#45;1c</text>
</g>
<!-- [root] aws_route_table_association.main&#45;public&#45;route&#45;association&#45;1c&#45;&gt;[root] aws_route_table.main&#45;public -->
<g id="edge18" class="edge">
<title>[root] aws_route_table_association.main&#45;public&#45;route&#45;association&#45;1c&#45;&gt;[root] aws_route_table.main&#45;public</title>
<path fill="none" stroke="#000000" d="M1887.2217,-431.9707C1756.3086,-418.1904 1580.5087,-399.6851 1472.4863,-388.3144"/>
<polygon fill="#000000" stroke="#000000" points="1472.5594,-384.8028 1462.2479,-387.2366 1471.8265,-391.7643 1472.5594,-384.8028"/>
</g>
<!-- [root] aws_subnet.public&#45;3 -->
<g id="node17" class="node">
<title>[root] aws_subnet.public&#45;3</title>
<polygon fill="none" stroke="#000000" points="1980.5,-396 1852.5,-396 1852.5,-360 1980.5,-360 1980.5,-396"/>
<text text-anchor="middle" x="1916.5" y="-374.3" font-family="Times,serif" font-size="14.00" fill="#000000">aws_subnet.public&#45;3</text>
</g>
<!-- [root] aws_route_table_association.main&#45;public&#45;route&#45;association&#45;1c&#45;&gt;[root] aws_subnet.public&#45;3 -->
<g id="edge19" class="edge">
<title>[root] aws_route_table_association.main&#45;public&#45;route&#45;association&#45;1c&#45;&gt;[root] aws_subnet.public&#45;3</title>
<path fill="none" stroke="#000000" d="M2022.6674,-431.8314C2004.0843,-422.4089 1981.2011,-410.8062 1961.4435,-400.7883"/>
<polygon fill="#000000" stroke="#000000" points="1962.823,-397.5635 1952.3211,-396.1628 1959.6573,-403.8069 1962.823,-397.5635"/>
</g>
<!-- [root] aws_subnet.private&#45;1&#45;&gt;[root] aws_vpc.main -->
<g id="edge20" class="edge">
<title>[root] aws_subnet.private&#45;1&#45;&gt;[root] aws_vpc.main</title>
<path fill="none" stroke="#000000" d="M742.7706,-287.9081C822.919,-260.6879 973.8898,-209.4148 1056.2901,-181.4298"/>
<polygon fill="#000000" stroke="#000000" points="1057.6464,-184.6656 1065.9896,-178.1356 1055.3952,-178.0374 1057.6464,-184.6656"/>
</g>
<!-- [root] aws_subnet.private&#45;2&#45;&gt;[root] aws_vpc.main -->
<g id="edge21" class="edge">
<title>[root] aws_subnet.private&#45;2&#45;&gt;[root] aws_vpc.main</title>
<path fill="none" stroke="#000000" d="M1300.3407,-287.8739C1302.3924,-267.9196 1302.3487,-236.0209 1285.5,-216 1270.543,-198.2269 1215.1035,-182.9095 1171.1564,-173.1755"/>
<polygon fill="#000000" stroke="#000000" points="1171.6344,-169.698 1161.1204,-171.0039 1170.154,-176.5396 1171.6344,-169.698"/>
</g>
<!-- [root] aws_subnet.private&#45;3&#45;&gt;[root] aws_vpc.main -->
<g id="edge22" class="edge">
<title>[root] aws_subnet.private&#45;3&#45;&gt;[root] aws_vpc.main</title>
<path fill="none" stroke="#000000" d="M784.762,-225.55C852.0883,-216.4205 959.1707,-200.4009 1050.5,-180 1052.2173,-179.6164 1053.957,-179.2134 1055.7103,-178.7949"/>
<polygon fill="#000000" stroke="#000000" points="1056.99,-182.0823 1065.8369,-176.2527 1055.2856,-175.2929 1056.99,-182.0823"/>
</g>
<!-- [root] aws_subnet.public&#45;1&#45;&gt;[root] aws_vpc.main -->
<g id="edge23" class="edge">
<title>[root] aws_subnet.public&#45;1&#45;&gt;[root] aws_vpc.main</title>
<path fill="none" stroke="#000000" d="M1052.9397,-215.8314C1062.8205,-207.0485 1074.8324,-196.3712 1085.545,-186.8489"/>
<polygon fill="#000000" stroke="#000000" points="1087.918,-189.4224 1093.0668,-180.1628 1083.2674,-184.1906 1087.918,-189.4224"/>
</g>
<!-- [root] aws_subnet.public&#45;2&#45;&gt;[root] aws_vpc.main -->
<g id="edge24" class="edge">
<title>[root] aws_subnet.public&#45;2&#45;&gt;[root] aws_vpc.main</title>
<path fill="none" stroke="#000000" d="M1479.2082,-287.8751C1437.3823,-268.5025 1368.1179,-237.6576 1306.5,-216 1261.7533,-200.2723 1209.9362,-185.9827 1171.2665,-176.0593"/>
<polygon fill="#000000" stroke="#000000" points="1171.7834,-172.5793 1161.2291,-173.5056 1170.0574,-179.3632 1171.7834,-172.5793"/>
</g>
<!-- [root] aws_subnet.public&#45;3&#45;&gt;[root] aws_vpc.main -->
<g id="edge25" class="edge">
<title>[root] aws_subnet.public&#45;3&#45;&gt;[root] aws_vpc.main</title>
<path fill="none" stroke="#000000" d="M1859.9526,-359.9635C1760.2737,-328.5005 1546.512,-262.5071 1363.5,-216 1297.9375,-199.3392 1221.8727,-183.3846 1171.0233,-173.1958"/>
<polygon fill="#000000" stroke="#000000" points="1171.6917,-169.7602 1161.2002,-171.2364 1170.3223,-176.625 1171.6917,-169.7602"/>
</g>
<!-- [root] aws_vpc.main&#45;&gt;[root] provider.aws -->
<g id="edge26" class="edge">
<title>[root] aws_vpc.main&#45;&gt;[root] provider.aws</title>
<path fill="none" stroke="#000000" d="M1097.0978,-143.8314C1088.5512,-134.3644 1078.0175,-122.6963 1068.9445,-112.6462"/>
<polygon fill="#000000" stroke="#000000" points="1071.346,-110.0833 1062.047,-105.0059 1066.1501,-114.774 1071.346,-110.0833"/>
</g>
<!-- [root] var.ACCESS_KEY_ID -->
<g id="node20" class="node">
<title>[root] var.ACCESS_KEY_ID</title>
<polygon fill="none" stroke="#000000" points="961.5,-36 823.5,-36 823.5,0 967.5,0 967.5,-30 961.5,-36"/>
<polyline fill="none" stroke="#000000" points="961.5,-36 961.5,-30 "/>
<polyline fill="none" stroke="#000000" points="967.5,-30 961.5,-30 "/>
<text text-anchor="middle" x="895.5" y="-14.3" font-family="Times,serif" font-size="14.00" fill="#000000">var.ACCESS_KEY_ID</text>
</g>
<!-- [root] provider.aws&#45;&gt;[root] var.ACCESS_KEY_ID -->
<g id="edge39" class="edge">
<title>[root] provider.aws&#45;&gt;[root] var.ACCESS_KEY_ID</title>
<path fill="none" stroke="#000000" d="M1022.5456,-77.7862C1000.905,-67.6024 969.4966,-52.8219 943.3242,-40.5055"/>
<polygon fill="#000000" stroke="#000000" points="944.4848,-37.1836 933.9463,-36.0924 941.5042,-43.5173 944.4848,-37.1836"/>
</g>
<!-- [root] var.AWS_REGION -->
<g id="node21" class="node">
<title>[root] var.AWS_REGION</title>
<polygon fill="none" stroke="#000000" points="1105.5,-36 985.5,-36 985.5,0 1111.5,0 1111.5,-30 1105.5,-36"/>
<polyline fill="none" stroke="#000000" points="1105.5,-36 1105.5,-30 "/>
<polyline fill="none" stroke="#000000" points="1111.5,-30 1105.5,-30 "/>
<text text-anchor="middle" x="1048.5" y="-14.3" font-family="Times,serif" font-size="14.00" fill="#000000">var.AWS_REGION</text>
</g>
<!-- [root] provider.aws&#45;&gt;[root] var.AWS_REGION -->
<g id="edge40" class="edge">
<title>[root] provider.aws&#45;&gt;[root] var.AWS_REGION</title>
<path fill="none" stroke="#000000" d="M1048.5,-71.8314C1048.5,-64.131 1048.5,-54.9743 1048.5,-46.4166"/>
<polygon fill="#000000" stroke="#000000" points="1052.0001,-46.4132 1048.5,-36.4133 1045.0001,-46.4133 1052.0001,-46.4132"/>
</g>
<!-- [root] var.SECRET_KEY -->
<g id="node22" class="node">
<title>[root] var.SECRET_KEY</title>
<polygon fill="none" stroke="#000000" points="1245.5,-36 1129.5,-36 1129.5,0 1251.5,0 1251.5,-30 1245.5,-36"/>
<polyline fill="none" stroke="#000000" points="1245.5,-36 1245.5,-30 "/>
<polyline fill="none" stroke="#000000" points="1251.5,-30 1245.5,-30 "/>
<text text-anchor="middle" x="1190.5" y="-14.3" font-family="Times,serif" font-size="14.00" fill="#000000">var.SECRET_KEY</text>
</g>
<!-- [root] provider.aws&#45;&gt;[root] var.SECRET_KEY -->
<g id="edge41" class="edge">
<title>[root] provider.aws&#45;&gt;[root] var.SECRET_KEY</title>
<path fill="none" stroke="#000000" d="M1073.2345,-77.4586C1093.245,-67.3124 1121.9397,-52.7629 1145.9351,-40.5963"/>
<polygon fill="#000000" stroke="#000000" points="1147.5374,-43.7081 1154.8736,-36.0641 1144.3717,-37.4648 1147.5374,-43.7081"/>
</g>
<!-- [root] meta.count&#45;boundary (EachMode fixup) -->
<g id="node23" class="node">
<title>[root] meta.count&#45;boundary (EachMode fixup)</title>
<ellipse fill="none" stroke="#000000" cx="972.5" cy="-522" rx="176.5689" ry="18"/>
<text text-anchor="middle" x="972.5" y="-518.3" font-family="Times,serif" font-size="14.00" fill="#000000">[root] meta.count&#45;boundary (EachMode fixup)</text>
</g>
<!-- [root] meta.count&#45;boundary (EachMode fixup)&#45;&gt;[root] aws_route_table_association.main&#45;private&#45;route&#45;association&#45;1a -->
<g id="edge27" class="edge">
<title>[root] meta.count&#45;boundary (EachMode fixup)&#45;&gt;[root] aws_route_table_association.main&#45;private&#45;route&#45;association&#45;1a</title>
<path fill="none" stroke="#000000" d="M882.7464,-506.4657C820.7235,-495.731 737.6958,-481.3608 670.9227,-469.8039"/>
<polygon fill="#000000" stroke="#000000" points="671.2233,-466.304 660.7729,-468.0472 670.0295,-473.2015 671.2233,-466.304"/>
</g>
<!-- [root] meta.count&#45;boundary (EachMode fixup)&#45;&gt;[root] aws_route_table_association.main&#45;private&#45;route&#45;association&#45;1b -->
<g id="edge28" class="edge">
<title>[root] meta.count&#45;boundary (EachMode fixup)&#45;&gt;[root] aws_route_table_association.main&#45;private&#45;route&#45;association&#45;1b</title>
<path fill="none" stroke="#000000" d="M962.911,-503.8314C958.6683,-495.7925 953.5879,-486.1666 948.904,-477.2918"/>
<polygon fill="#000000" stroke="#000000" points="951.9811,-475.6235 944.2181,-468.4133 945.7904,-478.8908 951.9811,-475.6235"/>
</g>
<!-- [root] meta.count&#45;boundary (EachMode fixup)&#45;&gt;[root] aws_route_table_association.main&#45;private&#45;route&#45;association&#45;1c -->
<g id="edge29" class="edge">
<title>[root] meta.count&#45;boundary (EachMode fixup)&#45;&gt;[root] aws_route_table_association.main&#45;private&#45;route&#45;association&#45;1c</title>
<path fill="none" stroke="#000000" d="M838.2126,-510.2634C717.9924,-499.6981 536.589,-483.6129 369.1022,-468.1455"/>
<polygon fill="#000000" stroke="#000000" points="369.3899,-464.6573 359.1102,-467.222 368.7456,-471.6276 369.3899,-464.6573"/>
</g>
<!-- [root] meta.count&#45;boundary (EachMode fixup)&#45;&gt;[root] aws_route_table_association.main&#45;public&#45;route&#45;association&#45;1a -->
<g id="edge30" class="edge">
<title>[root] meta.count&#45;boundary (EachMode fixup)&#45;&gt;[root] aws_route_table_association.main&#45;public&#45;route&#45;association&#45;1a</title>
<path fill="none" stroke="#000000" d="M1048.7752,-505.752C1098.2544,-495.2121 1163.0921,-481.4005 1215.8535,-470.1614"/>
<polygon fill="#000000" stroke="#000000" points="1216.8456,-473.5287 1225.897,-468.022 1215.3872,-466.6823 1216.8456,-473.5287"/>
</g>
<!-- [root] meta.count&#45;boundary (EachMode fixup)&#45;&gt;[root] aws_route_table_association.main&#45;public&#45;route&#45;association&#45;1b -->
<g id="edge31" class="edge">
<title>[root] meta.count&#45;boundary (EachMode fixup)&#45;&gt;[root] aws_route_table_association.main&#45;public&#45;route&#45;association&#45;1b</title>
<path fill="none" stroke="#000000" d="M1098.1523,-509.2936C1208.4444,-498.1405 1370.4295,-481.7599 1496.21,-469.0406"/>
<polygon fill="#000000" stroke="#000000" points="1496.7503,-472.5039 1506.3474,-468.0154 1496.046,-465.5394 1496.7503,-472.5039"/>
</g>
<!-- [root] meta.count&#45;boundary (EachMode fixup)&#45;&gt;[root] aws_route_table_association.main&#45;public&#45;route&#45;association&#45;1c -->
<g id="edge32" class="edge">
<title>[root] meta.count&#45;boundary (EachMode fixup)&#45;&gt;[root] aws_route_table_association.main&#45;public&#45;route&#45;association&#45;1c</title>
<path fill="none" stroke="#000000" d="M1096.745,-509.1763C1117.358,-507.2786 1138.5208,-505.4703 1158.5,-504 1471.5376,-480.9625 1553.3086,-490.985 1869.9541,-468.0927"/>
<polygon fill="#000000" stroke="#000000" points="1870.6337,-471.5526 1880.353,-467.3352 1870.1251,-464.5711 1870.6337,-471.5526"/>
</g>
<!-- [root] provider.aws (close) -->
<g id="node24" class="node">
<title>[root] provider.aws (close)</title>
<ellipse fill="none" stroke="#000000" cx="1272.5" cy="-522" rx="105.0817" ry="18"/>
<text text-anchor="middle" x="1272.5" y="-518.3" font-family="Times,serif" font-size="14.00" fill="#000000">[root] provider.aws (close)</text>
</g>
<!-- [root] provider.aws (close)&#45;&gt;[root] aws_route_table_association.main&#45;private&#45;route&#45;association&#45;1a -->
<g id="edge33" class="edge">
<title>[root] provider.aws (close)&#45;&gt;[root] aws_route_table_association.main&#45;private&#45;route&#45;association&#45;1a</title>
<path fill="none" stroke="#000000" d="M1197.1789,-509.3484C1184.2966,-507.4022 1171.0297,-505.5334 1158.5,-504 978.8277,-482.0117 930.6712,-484.6328 746.1046,-468.0455"/>
<polygon fill="#000000" stroke="#000000" points="746.3398,-464.5526 736.0649,-467.1364 745.7085,-471.5241 746.3398,-464.5526"/>
</g>
<!-- [root] provider.aws (close)&#45;&gt;[root] aws_route_table_association.main&#45;private&#45;route&#45;association&#45;1b -->
<g id="edge34" class="edge">
<title>[root] provider.aws (close)&#45;&gt;[root] aws_route_table_association.main&#45;private&#45;route&#45;association&#45;1b</title>
<path fill="none" stroke="#000000" d="M1206.5278,-507.9468C1156.0536,-497.1949 1085.7524,-482.2195 1029.2624,-470.1861"/>
<polygon fill="#000000" stroke="#000000" points="1029.7537,-466.7123 1019.2439,-468.0519 1028.2952,-473.5587 1029.7537,-466.7123"/>
</g>
<!-- [root] provider.aws (close)&#45;&gt;[root] aws_route_table_association.main&#45;private&#45;route&#45;association&#45;1c -->
<g id="edge35" class="edge">
<title>[root] provider.aws (close)&#45;&gt;[root] aws_route_table_association.main&#45;private&#45;route&#45;association&#45;1c</title>
<path fill="none" stroke="#000000" d="M1198.7609,-509.1313C1185.3957,-507.1486 1171.5572,-505.3238 1158.5,-504 811.7091,-468.8401 720.2803,-492.3214 369.291,-468.1033"/>
<polygon fill="#000000" stroke="#000000" points="369.3159,-464.5966 359.0964,-467.3915 368.8283,-471.5796 369.3159,-464.5966"/>
</g>
<!-- [root] provider.aws (close)&#45;&gt;[root] aws_route_table_association.main&#45;public&#45;route&#45;association&#45;1a -->
<g id="edge36" class="edge">
<title>[root] provider.aws (close)&#45;&gt;[root] aws_route_table_association.main&#45;public&#45;route&#45;association&#45;1a</title>
<path fill="none" stroke="#000000" d="M1282.089,-503.8314C1286.3317,-495.7925 1291.4121,-486.1666 1296.096,-477.2918"/>
<polygon fill="#000000" stroke="#000000" points="1299.2096,-478.8908 1300.7819,-468.4133 1293.0189,-475.6235 1299.2096,-478.8908"/>
</g>
<!-- [root] provider.aws (close)&#45;&gt;[root] aws_route_table_association.main&#45;public&#45;route&#45;association&#45;1b -->
<g id="edge37" class="edge">
<title>[root] provider.aws (close)&#45;&gt;[root] aws_route_table_association.main&#45;public&#45;route&#45;association&#45;1b</title>
<path fill="none" stroke="#000000" d="M1346.1573,-509.1278C1408.7171,-498.1951 1499.5161,-482.3273 1571.3048,-469.7817"/>
<polygon fill="#000000" stroke="#000000" points="1572.0552,-473.2037 1581.3034,-468.0344 1570.8501,-466.3082 1572.0552,-473.2037"/>
</g>
<!-- [root] provider.aws (close)&#45;&gt;[root] aws_route_table_association.main&#45;public&#45;route&#45;association&#45;1c -->
<g id="edge38" class="edge">
<title>[root] provider.aws (close)&#45;&gt;[root] aws_route_table_association.main&#45;public&#45;route&#45;association&#45;1c</title>
<path fill="none" stroke="#000000" d="M1366.1521,-513.7339C1481.9258,-503.4754 1685.2983,-485.3248 1870.1556,-468.1225"/>
<polygon fill="#000000" stroke="#000000" points="1870.7073,-471.5864 1880.3396,-467.1741 1870.0581,-464.6166 1870.7073,-471.5864"/>
</g>
<!-- [root] root -->
<g id="node25" class="node">
<title>[root] root</title>
<ellipse fill="none" stroke="#000000" cx="1122.5" cy="-594" rx="47.3916" ry="18"/>
<text text-anchor="middle" x="1122.5" y="-590.3" font-family="Times,serif" font-size="14.00" fill="#000000">[root] root</text>
</g>
<!-- [root] root&#45;&gt;[root] meta.count&#45;boundary (EachMode fixup) -->
<g id="edge42" class="edge">
<title>[root] root&#45;&gt;[root] meta.count&#45;boundary (EachMode fixup)</title>
<path fill="none" stroke="#000000" d="M1092.8648,-579.7751C1071.5909,-569.5636 1042.5166,-555.608 1018.2726,-543.9708"/>
<polygon fill="#000000" stroke="#000000" points="1019.7734,-540.809 1009.2436,-539.6369 1016.7443,-547.1196 1019.7734,-540.809"/>
</g>
<!-- [root] root&#45;&gt;[root] provider.aws (close) -->
<g id="edge43" class="edge">
<title>[root] root&#45;&gt;[root] provider.aws (close)</title>
<path fill="none" stroke="#000000" d="M1152.1352,-579.7751C1173.7877,-569.3819 1203.5206,-555.1101 1228.0169,-543.3519"/>
<polygon fill="#000000" stroke="#000000" points="1229.6206,-546.4645 1237.1213,-538.9818 1226.5915,-540.1538 1229.6206,-546.4645"/>
</g>
</g>
</svg>
