<?xml version="1.0" encoding="UTF-8" standalone="no"?>
<!DOCTYPE svg PUBLIC "-//W3C//DTD SVG 1.1//EN"
 "http://www.w3.org/Graphics/SVG/1.1/DTD/svg11.dtd">
<!-- Generated by graphviz version 2.40.1 (20161225.0304)
 -->
<!-- Title: %3 Pages: 1 -->
<svg width="988pt" height="620pt"
 viewBox="0.00 0.00 988.00 620.00" xmlns="http://www.w3.org/2000/svg" xmlns:xlink="http://www.w3.org/1999/xlink">
<g id="graph0" class="graph" transform="scale(1 1) rotate(0) translate(4 616)">
<title>%3</title>
<polygon fill="#ffffff" stroke="transparent" points="-4,4 -4,-616 984,-616 984,4 -4,4"/>
<!-- [root] aws_autoscaling_group.demo&#45;autoscaling&#45;group -->
<g id="node1" class="node">
<title>[root] aws_autoscaling_group.demo&#45;autoscaling&#45;group</title>
<polygon fill="none" stroke="#000000" points="636,-324 355,-324 355,-288 636,-288 636,-324"/>
<text text-anchor="middle" x="495.5" y="-302.3" font-family="Times,serif" font-size="14.00" fill="#000000">aws_autoscaling_group.demo&#45;autoscaling&#45;group</text>
</g>
<!-- [root] aws_launch_configuration.demo&#45;launch&#45;configuration -->
<g id="node8" class="node">
<title>[root] aws_launch_configuration.demo&#45;launch&#45;configuration</title>
<polygon fill="none" stroke="#000000" points="620.5,-252 308.5,-252 308.5,-216 620.5,-216 620.5,-252"/>
<text text-anchor="middle" x="464.5" y="-230.3" font-family="Times,serif" font-size="14.00" fill="#000000">aws_launch_configuration.demo&#45;launch&#45;configuration</text>
</g>
<!-- [root] aws_autoscaling_group.demo&#45;autoscaling&#45;group&#45;&gt;[root] aws_launch_configuration.demo&#45;launch&#45;configuration -->
<g id="edge1" class="edge">
<title>[root] aws_autoscaling_group.demo&#45;autoscaling&#45;group&#45;&gt;[root] aws_launch_configuration.demo&#45;launch&#45;configuration</title>
<path fill="none" stroke="#000000" d="M487.6774,-287.8314C484.2891,-279.9617 480.2459,-270.5712 476.4924,-261.8533"/>
<polygon fill="#000000" stroke="#000000" points="479.5973,-260.214 472.4279,-252.4133 473.1679,-262.9822 479.5973,-260.214"/>
</g>
<!-- [root] aws_autoscaling_notification.autoscaling&#45;sns&#45;notification -->
<g id="node2" class="node">
<title>[root] aws_autoscaling_notification.autoscaling&#45;sns&#45;notification</title>
<polygon fill="none" stroke="#000000" points="329,-468 0,-468 0,-432 329,-432 329,-468"/>
<text text-anchor="middle" x="164.5" y="-446.3" font-family="Times,serif" font-size="14.00" fill="#000000">aws_autoscaling_notification.autoscaling&#45;sns&#45;notification</text>
</g>
<!-- [root] aws_autoscaling_notification.autoscaling&#45;sns&#45;notification&#45;&gt;[root] aws_autoscaling_group.demo&#45;autoscaling&#45;group -->
<g id="edge2" class="edge">
<title>[root] aws_autoscaling_notification.autoscaling&#45;sns&#45;notification&#45;&gt;[root] aws_autoscaling_group.demo&#45;autoscaling&#45;group</title>
<path fill="none" stroke="#000000" d="M195.2879,-431.883C228.9754,-412.5171 284.9314,-381.6779 335.5,-360 364.1834,-347.7039 396.6773,-336.2968 424.8534,-327.1655"/>
<polygon fill="#000000" stroke="#000000" points="426.1718,-330.4184 434.6261,-324.0328 424.035,-323.7525 426.1718,-330.4184"/>
</g>
<!-- [root] aws_sns_topic.autoscale&#45;cpu&#45;alarm&#45;sns -->
<g id="node9" class="node">
<title>[root] aws_sns_topic.autoscale&#45;cpu&#45;alarm&#45;sns</title>
<polygon fill="none" stroke="#000000" points="329,-324 98,-324 98,-288 329,-288 329,-324"/>
<text text-anchor="middle" x="213.5" y="-302.3" font-family="Times,serif" font-size="14.00" fill="#000000">aws_sns_topic.autoscale&#45;cpu&#45;alarm&#45;sns</text>
</g>
<!-- [root] aws_autoscaling_notification.autoscaling&#45;sns&#45;notification&#45;&gt;[root] aws_sns_topic.autoscale&#45;cpu&#45;alarm&#45;sns -->
<g id="edge3" class="edge">
<title>[root] aws_autoscaling_notification.autoscaling&#45;sns&#45;notification&#45;&gt;[root] aws_sns_topic.autoscale&#45;cpu&#45;alarm&#45;sns</title>
<path fill="none" stroke="#000000" d="M170.7059,-431.7623C179.1372,-406.9846 194.284,-362.4714 204.1104,-333.5939"/>
<polygon fill="#000000" stroke="#000000" points="207.4365,-334.6841 207.3445,-324.0896 200.8096,-332.429 207.4365,-334.6841"/>
</g>
<!-- [root] aws_autoscaling_policy.demo&#45;cpu&#45;policy&#45;scale&#45;down -->
<g id="node3" class="node">
<title>[root] aws_autoscaling_policy.demo&#45;cpu&#45;policy&#45;scale&#45;down</title>
<polygon fill="none" stroke="#000000" points="654,-396 345,-396 345,-360 654,-360 654,-396"/>
<text text-anchor="middle" x="499.5" y="-374.3" font-family="Times,serif" font-size="14.00" fill="#000000">aws_autoscaling_policy.demo&#45;cpu&#45;policy&#45;scale&#45;down</text>
</g>
<!-- [root] aws_autoscaling_policy.demo&#45;cpu&#45;policy&#45;scale&#45;down&#45;&gt;[root] aws_autoscaling_group.demo&#45;autoscaling&#45;group -->
<g id="edge4" class="edge">
<title>[root] aws_autoscaling_policy.demo&#45;cpu&#45;policy&#45;scale&#45;down&#45;&gt;[root] aws_autoscaling_group.demo&#45;autoscaling&#45;group</title>
<path fill="none" stroke="#000000" d="M498.4906,-359.8314C498.0628,-352.131 497.5541,-342.9743 497.0787,-334.4166"/>
<polygon fill="#000000" stroke="#000000" points="500.5724,-334.2037 496.523,-324.4133 493.5831,-334.592 500.5724,-334.2037"/>
</g>
<!-- [root] aws_autoscaling_policy.demo&#45;cpu&#45;policy&#45;scale&#45;up -->
<g id="node4" class="node">
<title>[root] aws_autoscaling_policy.demo&#45;cpu&#45;policy&#45;scale&#45;up</title>
<polygon fill="none" stroke="#000000" points="973,-396 680,-396 680,-360 973,-360 973,-396"/>
<text text-anchor="middle" x="826.5" y="-374.3" font-family="Times,serif" font-size="14.00" fill="#000000">aws_autoscaling_policy.demo&#45;cpu&#45;policy&#45;scale&#45;up</text>
</g>
<!-- [root] aws_autoscaling_policy.demo&#45;cpu&#45;policy&#45;scale&#45;up&#45;&gt;[root] aws_autoscaling_group.demo&#45;autoscaling&#45;group -->
<g id="edge5" class="edge">
<title>[root] aws_autoscaling_policy.demo&#45;cpu&#45;policy&#45;scale&#45;up&#45;&gt;[root] aws_autoscaling_group.demo&#45;autoscaling&#45;group</title>
<path fill="none" stroke="#000000" d="M743.402,-359.9243C696.1938,-349.6554 636.9761,-336.7743 588.2574,-326.1768"/>
<polygon fill="#000000" stroke="#000000" points="588.8605,-322.7263 578.3451,-324.0207 587.3726,-329.5663 588.8605,-322.7263"/>
</g>
<!-- [root] aws_cloudwatch_metric_alarm.demo&#45;cpu&#45;down&#45;alarm -->
<g id="node5" class="node">
<title>[root] aws_cloudwatch_metric_alarm.demo&#45;cpu&#45;down&#45;alarm</title>
<polygon fill="none" stroke="#000000" points="662.5,-468 346.5,-468 346.5,-432 662.5,-432 662.5,-468"/>
<text text-anchor="middle" x="504.5" y="-446.3" font-family="Times,serif" font-size="14.00" fill="#000000">aws_cloudwatch_metric_alarm.demo&#45;cpu&#45;down&#45;alarm</text>
</g>
<!-- [root] aws_cloudwatch_metric_alarm.demo&#45;cpu&#45;down&#45;alarm&#45;&gt;[root] aws_autoscaling_policy.demo&#45;cpu&#45;policy&#45;scale&#45;down -->
<g id="edge6" class="edge">
<title>[root] aws_cloudwatch_metric_alarm.demo&#45;cpu&#45;down&#45;alarm&#45;&gt;[root] aws_autoscaling_policy.demo&#45;cpu&#45;policy&#45;scale&#45;down</title>
<path fill="none" stroke="#000000" d="M503.2383,-431.8314C502.7035,-424.131 502.0677,-414.9743 501.4734,-406.4166"/>
<polygon fill="#000000" stroke="#000000" points="504.9632,-406.1467 500.7787,-396.4133 497.98,-406.6317 504.9632,-406.1467"/>
</g>
<!-- [root] aws_cloudwatch_metric_alarm.demo&#45;cpu&#45;up&#45;alarm -->
<g id="node6" class="node">
<title>[root] aws_cloudwatch_metric_alarm.demo&#45;cpu&#45;up&#45;alarm</title>
<polygon fill="none" stroke="#000000" points="980,-468 681,-468 681,-432 980,-432 980,-468"/>
<text text-anchor="middle" x="830.5" y="-446.3" font-family="Times,serif" font-size="14.00" fill="#000000">aws_cloudwatch_metric_alarm.demo&#45;cpu&#45;up&#45;alarm</text>
</g>
<!-- [root] aws_cloudwatch_metric_alarm.demo&#45;cpu&#45;up&#45;alarm&#45;&gt;[root] aws_autoscaling_policy.demo&#45;cpu&#45;policy&#45;scale&#45;up -->
<g id="edge7" class="edge">
<title>[root] aws_cloudwatch_metric_alarm.demo&#45;cpu&#45;up&#45;alarm&#45;&gt;[root] aws_autoscaling_policy.demo&#45;cpu&#45;policy&#45;scale&#45;up</title>
<path fill="none" stroke="#000000" d="M829.4906,-431.8314C829.0628,-424.131 828.5541,-414.9743 828.0787,-406.4166"/>
<polygon fill="#000000" stroke="#000000" points="831.5724,-406.2037 827.523,-396.4133 824.5831,-406.592 831.5724,-406.2037"/>
</g>
<!-- [root] aws_key_pair.deployer&#45;key -->
<g id="node7" class="node">
<title>[root] aws_key_pair.deployer&#45;key</title>
<polygon fill="none" stroke="#000000" points="523,-180 356,-180 356,-144 523,-144 523,-180"/>
<text text-anchor="middle" x="439.5" y="-158.3" font-family="Times,serif" font-size="14.00" fill="#000000">aws_key_pair.deployer&#45;key</text>
</g>
<!-- [root] provider.aws -->
<g id="node10" class="node">
<title>[root] provider.aws</title>
<polygon fill="none" stroke="#000000" points="263.5,-108 183.5666,-90 263.5,-72 343.4334,-90 263.5,-108"/>
<text text-anchor="middle" x="263.5" y="-86.3" font-family="Times,serif" font-size="14.00" fill="#000000">provider.aws</text>
</g>
<!-- [root] aws_key_pair.deployer&#45;key&#45;&gt;[root] provider.aws -->
<g id="edge8" class="edge">
<title>[root] aws_key_pair.deployer&#45;key&#45;&gt;[root] provider.aws</title>
<path fill="none" stroke="#000000" d="M395.0878,-143.8314C366.1202,-131.981 328.7225,-116.6819 301.2036,-105.4242"/>
<polygon fill="#000000" stroke="#000000" points="302.4926,-102.17 291.9119,-101.623 299.8421,-108.6488 302.4926,-102.17"/>
</g>
<!-- [root] var.PUBLIC_SSH_KEY -->
<g id="node13" class="node">
<title>[root] var.PUBLIC_SSH_KEY</title>
<polygon fill="none" stroke="#000000" points="509.5,-108 363.5,-108 363.5,-72 515.5,-72 515.5,-102 509.5,-108"/>
<polyline fill="none" stroke="#000000" points="509.5,-108 509.5,-102 "/>
<polyline fill="none" stroke="#000000" points="515.5,-102 509.5,-102 "/>
<text text-anchor="middle" x="439.5" y="-86.3" font-family="Times,serif" font-size="14.00" fill="#000000">var.PUBLIC_SSH_KEY</text>
</g>
<!-- [root] aws_key_pair.deployer&#45;key&#45;&gt;[root] var.PUBLIC_SSH_KEY -->
<g id="edge9" class="edge">
<title>[root] aws_key_pair.deployer&#45;key&#45;&gt;[root] var.PUBLIC_SSH_KEY</title>
<path fill="none" stroke="#000000" d="M439.5,-143.8314C439.5,-136.131 439.5,-126.9743 439.5,-118.4166"/>
<polygon fill="#000000" stroke="#000000" points="443.0001,-118.4132 439.5,-108.4133 436.0001,-118.4133 443.0001,-118.4132"/>
</g>
<!-- [root] aws_launch_configuration.demo&#45;launch&#45;configuration&#45;&gt;[root] aws_key_pair.deployer&#45;key -->
<g id="edge10" class="edge">
<title>[root] aws_launch_configuration.demo&#45;launch&#45;configuration&#45;&gt;[root] aws_key_pair.deployer&#45;key</title>
<path fill="none" stroke="#000000" d="M458.1914,-215.8314C455.4883,-208.0463 452.2684,-198.7729 449.269,-190.1347"/>
<polygon fill="#000000" stroke="#000000" points="452.48,-188.7119 445.8935,-180.4133 445.8673,-191.0081 452.48,-188.7119"/>
</g>
<!-- [root] aws_sns_topic.autoscale&#45;cpu&#45;alarm&#45;sns&#45;&gt;[root] provider.aws -->
<g id="edge11" class="edge">
<title>[root] aws_sns_topic.autoscale&#45;cpu&#45;alarm&#45;sns&#45;&gt;[root] provider.aws</title>
<path fill="none" stroke="#000000" d="M217.677,-287.9555C226.4554,-250.0328 246.861,-161.8803 257.2222,-117.1203"/>
<polygon fill="#000000" stroke="#000000" points="260.6638,-117.7719 259.5092,-107.2401 253.8441,-116.1932 260.6638,-117.7719"/>
</g>
<!-- [root] var.ACCESS_KEY_ID -->
<g id="node11" class="node">
<title>[root] var.ACCESS_KEY_ID</title>
<polygon fill="none" stroke="#000000" points="176.5,-36 38.5,-36 38.5,0 182.5,0 182.5,-30 176.5,-36"/>
<polyline fill="none" stroke="#000000" points="176.5,-36 176.5,-30 "/>
<polyline fill="none" stroke="#000000" points="182.5,-30 176.5,-30 "/>
<text text-anchor="middle" x="110.5" y="-14.3" font-family="Times,serif" font-size="14.00" fill="#000000">var.ACCESS_KEY_ID</text>
</g>
<!-- [root] provider.aws&#45;&gt;[root] var.ACCESS_KEY_ID -->
<g id="edge18" class="edge">
<title>[root] provider.aws&#45;&gt;[root] var.ACCESS_KEY_ID</title>
<path fill="none" stroke="#000000" d="M237.5456,-77.7862C215.905,-67.6024 184.4966,-52.8219 158.3242,-40.5055"/>
<polygon fill="#000000" stroke="#000000" points="159.4848,-37.1836 148.9463,-36.0924 156.5042,-43.5173 159.4848,-37.1836"/>
</g>
<!-- [root] var.AWS_REGION -->
<g id="node12" class="node">
<title>[root] var.AWS_REGION</title>
<polygon fill="none" stroke="#000000" points="320.5,-36 200.5,-36 200.5,0 326.5,0 326.5,-30 320.5,-36"/>
<polyline fill="none" stroke="#000000" points="320.5,-36 320.5,-30 "/>
<polyline fill="none" stroke="#000000" points="326.5,-30 320.5,-30 "/>
<text text-anchor="middle" x="263.5" y="-14.3" font-family="Times,serif" font-size="14.00" fill="#000000">var.AWS_REGION</text>
</g>
<!-- [root] provider.aws&#45;&gt;[root] var.AWS_REGION -->
<g id="edge19" class="edge">
<title>[root] provider.aws&#45;&gt;[root] var.AWS_REGION</title>
<path fill="none" stroke="#000000" d="M263.5,-71.8314C263.5,-64.131 263.5,-54.9743 263.5,-46.4166"/>
<polygon fill="#000000" stroke="#000000" points="267.0001,-46.4132 263.5,-36.4133 260.0001,-46.4133 267.0001,-46.4132"/>
</g>
<!-- [root] var.SECRET_ACCESS_KEY -->
<g id="node14" class="node">
<title>[root] var.SECRET_ACCESS_KEY</title>
<polygon fill="none" stroke="#000000" points="518.5,-36 344.5,-36 344.5,0 524.5,0 524.5,-30 518.5,-36"/>
<polyline fill="none" stroke="#000000" points="518.5,-36 518.5,-30 "/>
<polyline fill="none" stroke="#000000" points="524.5,-30 518.5,-30 "/>
<text text-anchor="middle" x="434.5" y="-14.3" font-family="Times,serif" font-size="14.00" fill="#000000">var.SECRET_ACCESS_KEY</text>
</g>
<!-- [root] provider.aws&#45;&gt;[root] var.SECRET_ACCESS_KEY -->
<g id="edge20" class="edge">
<title>[root] provider.aws&#45;&gt;[root] var.SECRET_ACCESS_KEY</title>
<path fill="none" stroke="#000000" d="M291.3547,-78.2717C315.8634,-67.9522 352.2011,-52.6522 382.1311,-40.0501"/>
<polygon fill="#000000" stroke="#000000" points="383.7422,-43.1694 391.6004,-36.063 381.0258,-36.7179 383.7422,-43.1694"/>
</g>
<!-- [root] meta.count&#45;boundary (EachMode fixup) -->
<g id="node15" class="node">
<title>[root] meta.count&#45;boundary (EachMode fixup)</title>
<ellipse fill="none" stroke="#000000" cx="654.5" cy="-522" rx="176.5689" ry="18"/>
<text text-anchor="middle" x="654.5" y="-518.3" font-family="Times,serif" font-size="14.00" fill="#000000">[root] meta.count&#45;boundary (EachMode fixup)</text>
</g>
<!-- [root] meta.count&#45;boundary (EachMode fixup)&#45;&gt;[root] aws_autoscaling_notification.autoscaling&#45;sns&#45;notification -->
<g id="edge12" class="edge">
<title>[root] meta.count&#45;boundary (EachMode fixup)&#45;&gt;[root] aws_autoscaling_notification.autoscaling&#45;sns&#45;notification</title>
<path fill="none" stroke="#000000" d="M553.5658,-507.1689C479.5479,-496.2928 378.3214,-481.4186 297.6752,-469.5686"/>
<polygon fill="#000000" stroke="#000000" points="297.8469,-466.0563 287.4442,-468.0653 296.8292,-472.982 297.8469,-466.0563"/>
</g>
<!-- [root] meta.count&#45;boundary (EachMode fixup)&#45;&gt;[root] aws_cloudwatch_metric_alarm.demo&#45;cpu&#45;down&#45;alarm -->
<g id="edge13" class="edge">
<title>[root] meta.count&#45;boundary (EachMode fixup)&#45;&gt;[root] aws_cloudwatch_metric_alarm.demo&#45;cpu&#45;down&#45;alarm</title>
<path fill="none" stroke="#000000" d="M617.8059,-504.3868C597.7844,-494.7765 572.7846,-482.7766 551.3652,-472.4953"/>
<polygon fill="#000000" stroke="#000000" points="552.649,-469.2292 542.1192,-468.0572 549.6198,-475.5399 552.649,-469.2292"/>
</g>
<!-- [root] meta.count&#45;boundary (EachMode fixup)&#45;&gt;[root] aws_cloudwatch_metric_alarm.demo&#45;cpu&#45;up&#45;alarm -->
<g id="edge14" class="edge">
<title>[root] meta.count&#45;boundary (EachMode fixup)&#45;&gt;[root] aws_cloudwatch_metric_alarm.demo&#45;cpu&#45;up&#45;alarm</title>
<path fill="none" stroke="#000000" d="M697.5544,-504.3868C721.4676,-494.6042 751.4336,-482.3453 776.8597,-471.9437"/>
<polygon fill="#000000" stroke="#000000" points="778.4299,-475.083 786.3602,-468.0572 775.7794,-468.6042 778.4299,-475.083"/>
</g>
<!-- [root] provider.aws (close) -->
<g id="node16" class="node">
<title>[root] provider.aws (close)</title>
<ellipse fill="none" stroke="#000000" cx="354.5" cy="-522" rx="105.0817" ry="18"/>
<text text-anchor="middle" x="354.5" y="-518.3" font-family="Times,serif" font-size="14.00" fill="#000000">[root] provider.aws (close)</text>
</g>
<!-- [root] provider.aws (close)&#45;&gt;[root] aws_autoscaling_notification.autoscaling&#45;sns&#45;notification -->
<g id="edge15" class="edge">
<title>[root] provider.aws (close)&#45;&gt;[root] aws_autoscaling_notification.autoscaling&#45;sns&#45;notification</title>
<path fill="none" stroke="#000000" d="M310.9102,-505.4817C284.4318,-495.4479 250.3286,-482.5245 221.6985,-471.6752"/>
<polygon fill="#000000" stroke="#000000" points="222.8093,-468.3533 212.218,-468.0826 220.3288,-474.8991 222.8093,-468.3533"/>
</g>
<!-- [root] provider.aws (close)&#45;&gt;[root] aws_cloudwatch_metric_alarm.demo&#45;cpu&#45;down&#45;alarm -->
<g id="edge16" class="edge">
<title>[root] provider.aws (close)&#45;&gt;[root] aws_cloudwatch_metric_alarm.demo&#45;cpu&#45;down&#45;alarm</title>
<path fill="none" stroke="#000000" d="M390.0479,-504.937C410.288,-495.2218 435.8869,-482.9343 457.7401,-472.4448"/>
<polygon fill="#000000" stroke="#000000" points="459.3492,-475.5548 466.8498,-468.0721 456.32,-469.2441 459.3492,-475.5548"/>
</g>
<!-- [root] provider.aws (close)&#45;&gt;[root] aws_cloudwatch_metric_alarm.demo&#45;cpu&#45;up&#45;alarm -->
<g id="edge17" class="edge">
<title>[root] provider.aws (close)&#45;&gt;[root] aws_cloudwatch_metric_alarm.demo&#45;cpu&#45;up&#45;alarm</title>
<path fill="none" stroke="#000000" d="M431.7522,-509.7111C444.0421,-507.7824 456.6171,-505.8244 468.5,-504 544.3759,-492.3508 629.2554,-479.6706 697.7433,-469.5268"/>
<polygon fill="#000000" stroke="#000000" points="698.3465,-472.9757 707.7262,-468.049 697.3214,-466.0512 698.3465,-472.9757"/>
</g>
<!-- [root] root -->
<g id="node17" class="node">
<title>[root] root</title>
<ellipse fill="none" stroke="#000000" cx="504.5" cy="-594" rx="47.3916" ry="18"/>
<text text-anchor="middle" x="504.5" y="-590.3" font-family="Times,serif" font-size="14.00" fill="#000000">[root] root</text>
</g>
<!-- [root] root&#45;&gt;[root] meta.count&#45;boundary (EachMode fixup) -->
<g id="edge21" class="edge">
<title>[root] root&#45;&gt;[root] meta.count&#45;boundary (EachMode fixup)</title>
<path fill="none" stroke="#000000" d="M534.1352,-579.7751C555.4091,-569.5636 584.4834,-555.608 608.7274,-543.9708"/>
<polygon fill="#000000" stroke="#000000" points="610.2557,-547.1196 617.7564,-539.6369 607.2266,-540.809 610.2557,-547.1196"/>
</g>
<!-- [root] root&#45;&gt;[root] provider.aws (close) -->
<g id="edge22" class="edge">
<title>[root] root&#45;&gt;[root] provider.aws (close)</title>
<path fill="none" stroke="#000000" d="M474.8648,-579.7751C453.2123,-569.3819 423.4794,-555.1101 398.9831,-543.3519"/>
<polygon fill="#000000" stroke="#000000" points="400.4085,-540.1538 389.8787,-538.9818 397.3794,-546.4645 400.4085,-540.1538"/>
</g>
</g>
</svg>
