<?xml version="1.0" encoding="UTF-8" standalone="no"?>
<!DOCTYPE svg PUBLIC "-//W3C//DTD SVG 1.1//EN"
 "http://www.w3.org/Graphics/SVG/1.1/DTD/svg11.dtd">
<!-- Generated by graphviz version 2.40.1 (20161225.0304)
 -->
<!-- Title: %3 Pages: 1 -->
<svg width="590pt" height="332pt"
 viewBox="0.00 0.00 590.07 332.00" xmlns="http://www.w3.org/2000/svg" xmlns:xlink="http://www.w3.org/1999/xlink">
<g id="graph0" class="graph" transform="scale(1 1) rotate(0) translate(4 328)">
<title>%3</title>
<polygon fill="#ffffff" stroke="transparent" points="-4,4 -4,-328 586.075,-328 586.075,4 -4,4"/>
<!-- [root] aws_instance.ubuntu&#45;vm -->
<g id="node1" class="node">
<title>[root] aws_instance.ubuntu&#45;vm</title>
<polygon fill="none" stroke="#000000" points="402.7843,-180 250.7843,-180 250.7843,-144 402.7843,-144 402.7843,-180"/>
<text text-anchor="middle" x="326.7843" y="-158.3" font-family="Times,serif" font-size="14.00" fill="#000000">aws_instance.ubuntu&#45;vm</text>
</g>
<!-- [root] provider.aws -->
<g id="node2" class="node">
<title>[root] provider.aws</title>
<polygon fill="none" stroke="#000000" points="256.7843,-108 176.8509,-90 256.7843,-72 336.7177,-90 256.7843,-108"/>
<text text-anchor="middle" x="256.7843" y="-86.3" font-family="Times,serif" font-size="14.00" fill="#000000">provider.aws</text>
</g>
<!-- [root] aws_instance.ubuntu&#45;vm&#45;&gt;[root] provider.aws -->
<g id="edge1" class="edge">
<title>[root] aws_instance.ubuntu&#45;vm&#45;&gt;[root] provider.aws</title>
<path fill="none" stroke="#000000" d="M309.1204,-143.8314C299.8252,-134.2706 288.3476,-122.4651 278.5117,-112.3481"/>
<polygon fill="#000000" stroke="#000000" points="280.8537,-109.7361 271.3734,-105.0059 275.8347,-114.6157 280.8537,-109.7361"/>
</g>
<!-- [root] var.AMI_ID -->
<g id="node4" class="node">
<title>[root] var.AMI_ID</title>
<polygon fill="none" stroke="#000000" points="434.7843,-108 354.7843,-108 354.7843,-72 440.7843,-72 440.7843,-102 434.7843,-108"/>
<polyline fill="none" stroke="#000000" points="434.7843,-108 434.7843,-102 "/>
<polyline fill="none" stroke="#000000" points="440.7843,-102 434.7843,-102 "/>
<text text-anchor="middle" x="397.7843" y="-86.3" font-family="Times,serif" font-size="14.00" fill="#000000">var.AMI_ID</text>
</g>
<!-- [root] aws_instance.ubuntu&#45;vm&#45;&gt;[root] var.AMI_ID -->
<g id="edge2" class="edge">
<title>[root] aws_instance.ubuntu&#45;vm&#45;&gt;[root] var.AMI_ID</title>
<path fill="none" stroke="#000000" d="M344.7006,-143.8314C353.1285,-135.2848 363.3253,-124.9443 372.5203,-115.6198"/>
<polygon fill="#000000" stroke="#000000" points="375.0974,-117.9912 379.6268,-108.4133 370.1132,-113.0761 375.0974,-117.9912"/>
</g>
<!-- [root] var.ACCESS_KEY_ID -->
<g id="node3" class="node">
<title>[root] var.ACCESS_KEY_ID</title>
<polygon fill="none" stroke="#000000" points="169.7843,-36 31.7843,-36 31.7843,0 175.7843,0 175.7843,-30 169.7843,-36"/>
<polyline fill="none" stroke="#000000" points="169.7843,-36 169.7843,-30 "/>
<polyline fill="none" stroke="#000000" points="175.7843,-30 169.7843,-30 "/>
<text text-anchor="middle" x="103.7843" y="-14.3" font-family="Times,serif" font-size="14.00" fill="#000000">var.ACCESS_KEY_ID</text>
</g>
<!-- [root] provider.aws&#45;&gt;[root] var.ACCESS_KEY_ID -->
<g id="edge5" class="edge">
<title>[root] provider.aws&#45;&gt;[root] var.ACCESS_KEY_ID</title>
<path fill="none" stroke="#000000" d="M230.8299,-77.7862C209.1893,-67.6024 177.781,-52.8219 151.6085,-40.5055"/>
<polygon fill="#000000" stroke="#000000" points="152.7692,-37.1836 142.2307,-36.0924 149.7885,-43.5173 152.7692,-37.1836"/>
</g>
<!-- [root] var.AWS_REGION -->
<g id="node5" class="node">
<title>[root] var.AWS_REGION</title>
<polygon fill="none" stroke="#000000" points="313.7843,-36 193.7843,-36 193.7843,0 319.7843,0 319.7843,-30 313.7843,-36"/>
<polyline fill="none" stroke="#000000" points="313.7843,-36 313.7843,-30 "/>
<polyline fill="none" stroke="#000000" points="319.7843,-30 313.7843,-30 "/>
<text text-anchor="middle" x="256.7843" y="-14.3" font-family="Times,serif" font-size="14.00" fill="#000000">var.AWS_REGION</text>
</g>
<!-- [root] provider.aws&#45;&gt;[root] var.AWS_REGION -->
<g id="edge6" class="edge">
<title>[root] provider.aws&#45;&gt;[root] var.AWS_REGION</title>
<path fill="none" stroke="#000000" d="M256.7843,-71.8314C256.7843,-64.131 256.7843,-54.9743 256.7843,-46.4166"/>
<polygon fill="#000000" stroke="#000000" points="260.2844,-46.4132 256.7843,-36.4133 253.2844,-46.4133 260.2844,-46.4132"/>
</g>
<!-- [root] var.SECRET_ACCESS_KEY -->
<g id="node6" class="node">
<title>[root] var.SECRET_ACCESS_KEY</title>
<polygon fill="none" stroke="#000000" points="511.7843,-36 337.7843,-36 337.7843,0 517.7843,0 517.7843,-30 511.7843,-36"/>
<polyline fill="none" stroke="#000000" points="511.7843,-36 511.7843,-30 "/>
<polyline fill="none" stroke="#000000" points="517.7843,-30 511.7843,-30 "/>
<text text-anchor="middle" x="427.7843" y="-14.3" font-family="Times,serif" font-size="14.00" fill="#000000">var.SECRET_ACCESS_KEY</text>
</g>
<!-- [root] provider.aws&#45;&gt;[root] var.SECRET_ACCESS_KEY -->
<g id="edge7" class="edge">
<title>[root] provider.aws&#45;&gt;[root] var.SECRET_ACCESS_KEY</title>
<path fill="none" stroke="#000000" d="M284.639,-78.2717C309.1478,-67.9522 345.4854,-52.6522 375.4154,-40.0501"/>
<polygon fill="#000000" stroke="#000000" points="377.0265,-43.1694 384.8847,-36.063 374.3101,-36.7179 377.0265,-43.1694"/>
</g>
<!-- [root] meta.count&#45;boundary (EachMode fixup) -->
<g id="node7" class="node">
<title>[root] meta.count&#45;boundary (EachMode fixup)</title>
<ellipse fill="none" stroke="#000000" cx="176.7843" cy="-234" rx="176.5689" ry="18"/>
<text text-anchor="middle" x="176.7843" y="-230.3" font-family="Times,serif" font-size="14.00" fill="#000000">[root] meta.count&#45;boundary (EachMode fixup)</text>
</g>
<!-- [root] meta.count&#45;boundary (EachMode fixup)&#45;&gt;[root] aws_instance.ubuntu&#45;vm -->
<g id="edge3" class="edge">
<title>[root] meta.count&#45;boundary (EachMode fixup)&#45;&gt;[root] aws_instance.ubuntu&#45;vm</title>
<path fill="none" stroke="#000000" d="M213.4784,-216.3868C233.4999,-206.7765 258.4997,-194.7766 279.9191,-184.4953"/>
<polygon fill="#000000" stroke="#000000" points="281.6645,-187.5399 289.1651,-180.0572 278.6353,-181.2292 281.6645,-187.5399"/>
</g>
<!-- [root] provider.aws (close) -->
<g id="node8" class="node">
<title>[root] provider.aws (close)</title>
<ellipse fill="none" stroke="#000000" cx="476.7843" cy="-234" rx="105.0817" ry="18"/>
<text text-anchor="middle" x="476.7843" y="-230.3" font-family="Times,serif" font-size="14.00" fill="#000000">[root] provider.aws (close)</text>
</g>
<!-- [root] provider.aws (close)&#45;&gt;[root] aws_instance.ubuntu&#45;vm -->
<g id="edge4" class="edge">
<title>[root] provider.aws (close)&#45;&gt;[root] aws_instance.ubuntu&#45;vm</title>
<path fill="none" stroke="#000000" d="M441.2364,-216.937C420.9963,-207.2218 395.3974,-194.9343 373.5442,-184.4448"/>
<polygon fill="#000000" stroke="#000000" points="374.9643,-181.2441 364.4345,-180.0721 371.9351,-187.5548 374.9643,-181.2441"/>
</g>
<!-- [root] root -->
<g id="node9" class="node">
<title>[root] root</title>
<ellipse fill="none" stroke="#000000" cx="326.7843" cy="-306" rx="47.3916" ry="18"/>
<text text-anchor="middle" x="326.7843" y="-302.3" font-family="Times,serif" font-size="14.00" fill="#000000">[root] root</text>
</g>
<!-- [root] root&#45;&gt;[root] meta.count&#45;boundary (EachMode fixup) -->
<g id="edge8" class="edge">
<title>[root] root&#45;&gt;[root] meta.count&#45;boundary (EachMode fixup)</title>
<path fill="none" stroke="#000000" d="M297.1491,-291.7751C275.8752,-281.5636 246.8009,-267.608 222.5569,-255.9708"/>
<polygon fill="#000000" stroke="#000000" points="224.0578,-252.809 213.5279,-251.6369 221.0286,-259.1196 224.0578,-252.809"/>
</g>
<!-- [root] root&#45;&gt;[root] provider.aws (close) -->
<g id="edge9" class="edge">
<title>[root] root&#45;&gt;[root] provider.aws (close)</title>
<path fill="none" stroke="#000000" d="M356.4195,-291.7751C378.072,-281.3819 407.8049,-267.1101 432.3013,-255.3519"/>
<polygon fill="#000000" stroke="#000000" points="433.9049,-258.4645 441.4056,-250.9818 430.8758,-252.1538 433.9049,-258.4645"/>
</g>
</g>
</svg>
