<?xml version="1.0" encoding="UTF-8" standalone="no"?>
<!DOCTYPE svg PUBLIC "-//W3C//DTD SVG 1.1//EN"
 "http://www.w3.org/Graphics/SVG/1.1/DTD/svg11.dtd">
<!-- Generated by graphviz version 2.40.1 (20161225.0304)
 -->
<!-- Title: %3 Pages: 1 -->
<svg width="2279pt" height="620pt"
 viewBox="0.00 0.00 2278.50 620.00" xmlns="http://www.w3.org/2000/svg" xmlns:xlink="http://www.w3.org/1999/xlink">
<g id="graph0" class="graph" transform="scale(1 1) rotate(0) translate(4 616)">
<title>%3</title>
<polygon fill="#ffffff" stroke="transparent" points="-4,4 -4,-616 2274.5,-616 2274.5,4 -4,4"/>
<!-- [root] aws_eip.nat&#45;eip -->
<g id="node1" class="node">
<title>[root] aws_eip.nat&#45;eip</title>
<polygon fill="none" stroke="#000000" points="1301,-180 1199,-180 1199,-144 1301,-144 1301,-180"/>
<text text-anchor="middle" x="1250" y="-158.3" font-family="Times,serif" font-size="14.00" fill="#000000">aws_eip.nat&#45;eip</text>
</g>
<!-- [root] provider.aws -->
<g id="node21" class="node">
<title>[root] provider.aws</title>
<polygon fill="none" stroke="#000000" points="1058,-108 978.0666,-90 1058,-72 1137.9334,-90 1058,-108"/>
<text text-anchor="middle" x="1058" y="-86.3" font-family="Times,serif" font-size="14.00" fill="#000000">provider.aws</text>
</g>
<!-- [root] aws_eip.nat&#45;eip&#45;&gt;[root] provider.aws -->
<g id="edge1" class="edge">
<title>[root] aws_eip.nat&#45;eip&#45;&gt;[root] provider.aws</title>
<path fill="none" stroke="#000000" d="M1201.5503,-143.8314C1169.5119,-131.817 1128.0206,-116.2577 1097.8908,-104.9591"/>
<polygon fill="#000000" stroke="#000000" points="1098.7308,-101.5361 1088.1385,-101.302 1096.2729,-108.0904 1098.7308,-101.5361"/>
</g>
<!-- [root] aws_instance.private&#45;vm&#45;1a -->
<g id="node2" class="node">
<title>[root] aws_instance.private&#45;vm&#45;1a</title>
<polygon fill="none" stroke="#000000" points="354,-468 184,-468 184,-432 354,-432 354,-468"/>
<text text-anchor="middle" x="269" y="-446.3" font-family="Times,serif" font-size="14.00" fill="#000000">aws_instance.private&#45;vm&#45;1a</text>
</g>
<!-- [root] aws_key_pair.deployer&#45;key -->
<g id="node7" class="node">
<title>[root] aws_key_pair.deployer&#45;key</title>
<polygon fill="none" stroke="#000000" points="519.5,-396 352.5,-396 352.5,-360 519.5,-360 519.5,-396"/>
<text text-anchor="middle" x="436" y="-374.3" font-family="Times,serif" font-size="14.00" fill="#000000">aws_key_pair.deployer&#45;key</text>
</g>
<!-- [root] aws_instance.private&#45;vm&#45;1a&#45;&gt;[root] aws_key_pair.deployer&#45;key -->
<g id="edge2" class="edge">
<title>[root] aws_instance.private&#45;vm&#45;1a&#45;&gt;[root] aws_key_pair.deployer&#45;key</title>
<path fill="none" stroke="#000000" d="M311.1412,-431.8314C333.4764,-422.2018 361.0936,-410.295 384.671,-400.1299"/>
<polygon fill="#000000" stroke="#000000" points="386.3647,-403.2112 394.1619,-396.038 383.5933,-396.7831 386.3647,-403.2112"/>
</g>
<!-- [root] aws_security_group.allow&#45;ssh&#45;sg -->
<g id="node15" class="node">
<title>[root] aws_security_group.allow&#45;ssh&#45;sg</title>
<polygon fill="none" stroke="#000000" points="734.5,-396 537.5,-396 537.5,-360 734.5,-360 734.5,-396"/>
<text text-anchor="middle" x="636" y="-374.3" font-family="Times,serif" font-size="14.00" fill="#000000">aws_security_group.allow&#45;ssh&#45;sg</text>
</g>
<!-- [root] aws_instance.private&#45;vm&#45;1a&#45;&gt;[root] aws_security_group.allow&#45;ssh&#45;sg -->
<g id="edge3" class="edge">
<title>[root] aws_instance.private&#45;vm&#45;1a&#45;&gt;[root] aws_security_group.allow&#45;ssh&#45;sg</title>
<path fill="none" stroke="#000000" d="M354.1196,-433.3008C407.754,-422.7785 477.3084,-409.133 533.9049,-398.0296"/>
<polygon fill="#000000" stroke="#000000" points="534.8137,-401.4181 543.9529,-396.0583 533.4661,-394.549 534.8137,-401.4181"/>
</g>
<!-- [root] aws_subnet.private&#45;subnet&#45;1a -->
<g id="node16" class="node">
<title>[root] aws_subnet.private&#45;subnet&#45;1a</title>
<polygon fill="none" stroke="#000000" points="931,-396 753,-396 753,-360 931,-360 931,-396"/>
<text text-anchor="middle" x="842" y="-374.3" font-family="Times,serif" font-size="14.00" fill="#000000">aws_subnet.private&#45;subnet&#45;1a</text>
</g>
<!-- [root] aws_instance.private&#45;vm&#45;1a&#45;&gt;[root] aws_subnet.private&#45;subnet&#45;1a -->
<g id="edge4" class="edge">
<title>[root] aws_instance.private&#45;vm&#45;1a&#45;&gt;[root] aws_subnet.private&#45;subnet&#45;1a</title>
<path fill="none" stroke="#000000" d="M354.2468,-433.3111C357.1971,-432.85 360.1214,-432.411 363,-432 527.7436,-408.477 573.2271,-418.7818 742.7293,-395.9578"/>
<polygon fill="#000000" stroke="#000000" points="743.3082,-399.4113 752.7427,-394.5906 742.3611,-392.4757 743.3082,-399.4113"/>
</g>
<!-- [root] provisioner.local&#45;exec -->
<g id="node26" class="node">
<title>[root] provisioner.local&#45;exec</title>
<ellipse fill="none" stroke="#000000" cx="223" cy="-378" rx="111.5806" ry="18"/>
<text text-anchor="middle" x="223" y="-374.3" font-family="Times,serif" font-size="14.00" fill="#000000">[root] provisioner.local&#45;exec</text>
</g>
<!-- [root] aws_instance.private&#45;vm&#45;1a&#45;&gt;[root] provisioner.local&#45;exec -->
<g id="edge5" class="edge">
<title>[root] aws_instance.private&#45;vm&#45;1a&#45;&gt;[root] provisioner.local&#45;exec</title>
<path fill="none" stroke="#000000" d="M257.3923,-431.8314C252.1224,-423.5829 245.785,-413.6635 239.9939,-404.5992"/>
<polygon fill="#000000" stroke="#000000" points="242.7781,-402.456 234.4447,-395.9134 236.8792,-406.2248 242.7781,-402.456"/>
</g>
<!-- [root] aws_instance.private&#45;vm&#45;1b -->
<g id="node3" class="node">
<title>[root] aws_instance.private&#45;vm&#45;1b</title>
<polygon fill="none" stroke="#000000" points="542,-468 372,-468 372,-432 542,-432 542,-468"/>
<text text-anchor="middle" x="457" y="-446.3" font-family="Times,serif" font-size="14.00" fill="#000000">aws_instance.private&#45;vm&#45;1b</text>
</g>
<!-- [root] aws_instance.private&#45;vm&#45;1b&#45;&gt;[root] aws_key_pair.deployer&#45;key -->
<g id="edge6" class="edge">
<title>[root] aws_instance.private&#45;vm&#45;1b&#45;&gt;[root] aws_key_pair.deployer&#45;key</title>
<path fill="none" stroke="#000000" d="M451.7008,-431.8314C449.4302,-424.0463 446.7254,-414.7729 444.206,-406.1347"/>
<polygon fill="#000000" stroke="#000000" points="447.5306,-405.0332 441.3705,-396.4133 440.8106,-406.9933 447.5306,-405.0332"/>
</g>
<!-- [root] aws_instance.private&#45;vm&#45;1b&#45;&gt;[root] aws_security_group.allow&#45;ssh&#45;sg -->
<g id="edge7" class="edge">
<title>[root] aws_instance.private&#45;vm&#45;1b&#45;&gt;[root] aws_security_group.allow&#45;ssh&#45;sg</title>
<path fill="none" stroke="#000000" d="M502.1693,-431.8314C526.3223,-422.1162 556.2378,-410.0831 581.6556,-399.8592"/>
<polygon fill="#000000" stroke="#000000" points="583.1841,-403.017 591.1556,-396.038 580.5718,-396.5227 583.1841,-403.017"/>
</g>
<!-- [root] aws_subnet.private&#45;subnet&#45;1b -->
<g id="node17" class="node">
<title>[root] aws_subnet.private&#45;subnet&#45;1b</title>
<polygon fill="none" stroke="#000000" points="1128.5,-396 949.5,-396 949.5,-360 1128.5,-360 1128.5,-396"/>
<text text-anchor="middle" x="1039" y="-374.3" font-family="Times,serif" font-size="14.00" fill="#000000">aws_subnet.private&#45;subnet&#45;1b</text>
</g>
<!-- [root] aws_instance.private&#45;vm&#45;1b&#45;&gt;[root] aws_subnet.private&#45;subnet&#45;1b -->
<g id="edge8" class="edge">
<title>[root] aws_instance.private&#45;vm&#45;1b&#45;&gt;[root] aws_subnet.private&#45;subnet&#45;1b</title>
<path fill="none" stroke="#000000" d="M542.2456,-433.3029C545.1963,-432.8441 548.121,-432.4079 551,-432 719.7212,-408.096 766.2611,-419.1229 939.5138,-395.9887"/>
<polygon fill="#000000" stroke="#000000" points="940.0377,-399.4498 949.4776,-394.6395 939.0984,-392.5131 940.0377,-399.4498"/>
</g>
<!-- [root] aws_instance.private&#45;vm&#45;1b&#45;&gt;[root] provisioner.local&#45;exec -->
<g id="edge9" class="edge">
<title>[root] aws_instance.private&#45;vm&#45;1b&#45;&gt;[root] provisioner.local&#45;exec</title>
<path fill="none" stroke="#000000" d="M398.254,-431.9243C363.6048,-421.263 319.8042,-407.7859 284.6595,-396.9721"/>
<polygon fill="#000000" stroke="#000000" points="285.5783,-393.593 274.9912,-393.9973 283.5197,-400.2834 285.5783,-393.593"/>
</g>
<!-- [root] aws_instance.public&#45;vm&#45;1a -->
<g id="node4" class="node">
<title>[root] aws_instance.public&#45;vm&#45;1a</title>
<polygon fill="none" stroke="#000000" points="166,-468 0,-468 0,-432 166,-432 166,-468"/>
<text text-anchor="middle" x="83" y="-446.3" font-family="Times,serif" font-size="14.00" fill="#000000">aws_instance.public&#45;vm&#45;1a</text>
</g>
<!-- [root] aws_instance.public&#45;vm&#45;1a&#45;&gt;[root] aws_key_pair.deployer&#45;key -->
<g id="edge10" class="edge">
<title>[root] aws_instance.public&#45;vm&#45;1a&#45;&gt;[root] aws_key_pair.deployer&#45;key</title>
<path fill="none" stroke="#000000" d="M166.2091,-433.0282C219.0745,-422.2454 287.6097,-408.2666 342.374,-397.0965"/>
<polygon fill="#000000" stroke="#000000" points="343.3338,-400.4729 352.4326,-395.0449 341.9348,-393.6141 343.3338,-400.4729"/>
</g>
<!-- [root] aws_instance.public&#45;vm&#45;1a&#45;&gt;[root] aws_security_group.allow&#45;ssh&#45;sg -->
<g id="edge11" class="edge">
<title>[root] aws_instance.public&#45;vm&#45;1a&#45;&gt;[root] aws_security_group.allow&#45;ssh&#45;sg</title>
<path fill="none" stroke="#000000" d="M166.1858,-433.3702C169.1572,-432.8891 172.1023,-432.4303 175,-432 327.793,-409.3104 369.9802,-416.653 527.4085,-396.0232"/>
<polygon fill="#000000" stroke="#000000" points="527.998,-399.4757 537.4504,-394.69 527.0768,-392.5366 527.998,-399.4757"/>
</g>
<!-- [root] aws_subnet.public&#45;subnet&#45;1a -->
<g id="node18" class="node">
<title>[root] aws_subnet.public&#45;subnet&#45;1a</title>
<polygon fill="none" stroke="#000000" points="1279,-252 1105,-252 1105,-216 1279,-216 1279,-252"/>
<text text-anchor="middle" x="1192" y="-230.3" font-family="Times,serif" font-size="14.00" fill="#000000">aws_subnet.public&#45;subnet&#45;1a</text>
</g>
<!-- [root] aws_instance.public&#45;vm&#45;1a&#45;&gt;[root] aws_subnet.public&#45;subnet&#45;1a -->
<g id="edge12" class="edge">
<title>[root] aws_instance.public&#45;vm&#45;1a&#45;&gt;[root] aws_subnet.public&#45;subnet&#45;1a</title>
<path fill="none" stroke="#000000" d="M81.7032,-431.6511C81.3237,-411.4972 83.9558,-379.4202 102,-360 180.4142,-275.6062 237.5154,-307.8077 351,-288 491.2864,-263.5143 904.5215,-245.0424 1094.4725,-237.597"/>
<polygon fill="#000000" stroke="#000000" points="1094.8712,-241.0842 1104.7273,-237.1973 1094.5985,-234.0895 1094.8712,-241.0842"/>
</g>
<!-- [root] aws_instance.public&#45;vm&#45;1a&#45;&gt;[root] provisioner.local&#45;exec -->
<g id="edge13" class="edge">
<title>[root] aws_instance.public&#45;vm&#45;1a&#45;&gt;[root] provisioner.local&#45;exec</title>
<path fill="none" stroke="#000000" d="M118.3279,-431.8314C137.0689,-422.1932 160.2457,-410.2736 180.0228,-400.1026"/>
<polygon fill="#000000" stroke="#000000" points="181.8401,-403.1038 189.1322,-395.4177 178.6386,-396.8787 181.8401,-403.1038"/>
</g>
<!-- [root] aws_instance.public&#45;vm&#45;1b -->
<g id="node5" class="node">
<title>[root] aws_instance.public&#45;vm&#45;1b</title>
<polygon fill="none" stroke="#000000" points="727.5,-468 560.5,-468 560.5,-432 727.5,-432 727.5,-468"/>
<text text-anchor="middle" x="644" y="-446.3" font-family="Times,serif" font-size="14.00" fill="#000000">aws_instance.public&#45;vm&#45;1b</text>
</g>
<!-- [root] aws_instance.public&#45;vm&#45;1b&#45;&gt;[root] aws_key_pair.deployer&#45;key -->
<g id="edge14" class="edge">
<title>[root] aws_instance.public&#45;vm&#45;1b&#45;&gt;[root] aws_key_pair.deployer&#45;key</title>
<path fill="none" stroke="#000000" d="M591.7813,-431.9243C563.2229,-422.0387 527.6705,-409.7321 497.7432,-399.3726"/>
<polygon fill="#000000" stroke="#000000" points="498.835,-396.0469 488.2402,-396.0831 496.5451,-402.6618 498.835,-396.0469"/>
</g>
<!-- [root] aws_instance.public&#45;vm&#45;1b&#45;&gt;[root] aws_security_group.allow&#45;ssh&#45;sg -->
<g id="edge15" class="edge">
<title>[root] aws_instance.public&#45;vm&#45;1b&#45;&gt;[root] aws_security_group.allow&#45;ssh&#45;sg</title>
<path fill="none" stroke="#000000" d="M641.9813,-431.8314C641.1257,-424.131 640.1083,-414.9743 639.1574,-406.4166"/>
<polygon fill="#000000" stroke="#000000" points="642.6289,-405.9656 638.0459,-396.4133 635.6717,-406.7386 642.6289,-405.9656"/>
</g>
<!-- [root] aws_subnet.public&#45;subnet&#45;1b -->
<g id="node19" class="node">
<title>[root] aws_subnet.public&#45;subnet&#45;1b</title>
<polygon fill="none" stroke="#000000" points="1321.5,-396 1146.5,-396 1146.5,-360 1321.5,-360 1321.5,-396"/>
<text text-anchor="middle" x="1234" y="-374.3" font-family="Times,serif" font-size="14.00" fill="#000000">aws_subnet.public&#45;subnet&#45;1b</text>
</g>
<!-- [root] aws_instance.public&#45;vm&#45;1b&#45;&gt;[root] aws_subnet.public&#45;subnet&#45;1b -->
<g id="edge16" class="edge">
<title>[root] aws_instance.public&#45;vm&#45;1b&#45;&gt;[root] aws_subnet.public&#45;subnet&#45;1b</title>
<path fill="none" stroke="#000000" d="M727.6743,-433.2462C730.4797,-432.8067 733.2608,-432.3895 736,-432 910.3863,-407.2005 958.5767,-420.0709 1136.4701,-396.1384"/>
<polygon fill="#000000" stroke="#000000" points="1136.9879,-399.6003 1146.4225,-394.7796 1136.0409,-392.6646 1136.9879,-399.6003"/>
</g>
<!-- [root] aws_instance.public&#45;vm&#45;1b&#45;&gt;[root] provisioner.local&#45;exec -->
<g id="edge17" class="edge">
<title>[root] aws_instance.public&#45;vm&#45;1b&#45;&gt;[root] provisioner.local&#45;exec</title>
<path fill="none" stroke="#000000" d="M560.3691,-433.6988C557.2072,-433.1189 554.0757,-432.5507 551,-432 470.7599,-417.6326 379.2115,-402.6804 313.2614,-392.1626"/>
<polygon fill="#000000" stroke="#000000" points="313.7381,-388.6945 303.3121,-390.5786 312.6374,-395.6074 313.7381,-388.6945"/>
</g>
<!-- [root] aws_internet_gateway.main&#45;igw -->
<g id="node6" class="node">
<title>[root] aws_internet_gateway.main&#45;igw</title>
<polygon fill="none" stroke="#000000" points="1529,-252 1335,-252 1335,-216 1529,-216 1529,-252"/>
<text text-anchor="middle" x="1432" y="-230.3" font-family="Times,serif" font-size="14.00" fill="#000000">aws_internet_gateway.main&#45;igw</text>
</g>
<!-- [root] aws_vpc.main -->
<g id="node20" class="node">
<title>[root] aws_vpc.main</title>
<polygon fill="none" stroke="#000000" points="1105.5,-180 1010.5,-180 1010.5,-144 1105.5,-144 1105.5,-180"/>
<text text-anchor="middle" x="1058" y="-158.3" font-family="Times,serif" font-size="14.00" fill="#000000">aws_vpc.main</text>
</g>
<!-- [root] aws_internet_gateway.main&#45;igw&#45;&gt;[root] aws_vpc.main -->
<g id="edge18" class="edge">
<title>[root] aws_internet_gateway.main&#45;igw&#45;&gt;[root] aws_vpc.main</title>
<path fill="none" stroke="#000000" d="M1338.1068,-215.9243C1268.1521,-202.4571 1174.8588,-184.4969 1115.5927,-173.0874"/>
<polygon fill="#000000" stroke="#000000" points="1116.141,-169.6287 1105.6596,-171.1751 1114.8176,-176.5025 1116.141,-169.6287"/>
</g>
<!-- [root] aws_key_pair.deployer&#45;key&#45;&gt;[root] provider.aws -->
<g id="edge19" class="edge">
<title>[root] aws_key_pair.deployer&#45;key&#45;&gt;[root] provider.aws</title>
<path fill="none" stroke="#000000" d="M474.9089,-359.9843C587.7279,-307.7465 913.8543,-156.7427 1022.3911,-106.4877"/>
<polygon fill="#000000" stroke="#000000" points="1024.0081,-109.5961 1031.6119,-102.2183 1021.0668,-103.2439 1024.0081,-109.5961"/>
</g>
<!-- [root] var.PUBLIC_SSH_KEY -->
<g id="node24" class="node">
<title>[root] var.PUBLIC_SSH_KEY</title>
<polygon fill="none" stroke="#000000" points="506,-324 360,-324 360,-288 512,-288 512,-318 506,-324"/>
<polyline fill="none" stroke="#000000" points="506,-324 506,-318 "/>
<polyline fill="none" stroke="#000000" points="512,-318 506,-318 "/>
<text text-anchor="middle" x="436" y="-302.3" font-family="Times,serif" font-size="14.00" fill="#000000">var.PUBLIC_SSH_KEY</text>
</g>
<!-- [root] aws_key_pair.deployer&#45;key&#45;&gt;[root] var.PUBLIC_SSH_KEY -->
<g id="edge20" class="edge">
<title>[root] aws_key_pair.deployer&#45;key&#45;&gt;[root] var.PUBLIC_SSH_KEY</title>
<path fill="none" stroke="#000000" d="M436,-359.8314C436,-352.131 436,-342.9743 436,-334.4166"/>
<polygon fill="#000000" stroke="#000000" points="439.5001,-334.4132 436,-324.4133 432.5001,-334.4133 439.5001,-334.4132"/>
</g>
<!-- [root] aws_nat_gateway.nat&#45;gw -->
<g id="node8" class="node">
<title>[root] aws_nat_gateway.nat&#45;gw</title>
<polygon fill="none" stroke="#000000" points="1394,-324 1240,-324 1240,-288 1394,-288 1394,-324"/>
<text text-anchor="middle" x="1317" y="-302.3" font-family="Times,serif" font-size="14.00" fill="#000000">aws_nat_gateway.nat&#45;gw</text>
</g>
<!-- [root] aws_nat_gateway.nat&#45;gw&#45;&gt;[root] aws_eip.nat&#45;eip -->
<g id="edge21" class="edge">
<title>[root] aws_nat_gateway.nat&#45;gw&#45;&gt;[root] aws_eip.nat&#45;eip</title>
<path fill="none" stroke="#000000" d="M1312.8548,-287.7889C1308.2219,-269.1525 1299.7918,-239.6537 1288,-216 1283.2435,-206.4587 1276.9279,-196.7232 1270.8137,-188.1938"/>
<polygon fill="#000000" stroke="#000000" points="1273.5967,-186.0706 1264.8319,-180.1183 1267.9717,-190.2372 1273.5967,-186.0706"/>
</g>
<!-- [root] aws_nat_gateway.nat&#45;gw&#45;&gt;[root] aws_internet_gateway.main&#45;igw -->
<g id="edge22" class="edge">
<title>[root] aws_nat_gateway.nat&#45;gw&#45;&gt;[root] aws_internet_gateway.main&#45;igw</title>
<path fill="none" stroke="#000000" d="M1346.0194,-287.8314C1360.7286,-278.6221 1378.7644,-267.3301 1394.5122,-257.4706"/>
<polygon fill="#000000" stroke="#000000" points="1396.3714,-260.436 1402.9899,-252.1628 1392.6567,-254.5029 1396.3714,-260.436"/>
</g>
<!-- [root] aws_nat_gateway.nat&#45;gw&#45;&gt;[root] aws_subnet.public&#45;subnet&#45;1a -->
<g id="edge23" class="edge">
<title>[root] aws_nat_gateway.nat&#45;gw&#45;&gt;[root] aws_subnet.public&#45;subnet&#45;1a</title>
<path fill="none" stroke="#000000" d="M1285.4572,-287.8314C1269.3209,-278.5368 1249.5014,-267.1208 1232.2728,-257.1971"/>
<polygon fill="#000000" stroke="#000000" points="1233.945,-254.1212 1223.5327,-252.1628 1230.4511,-260.187 1233.945,-254.1212"/>
</g>
<!-- [root] aws_route_table.private&#45;route&#45;table -->
<g id="node9" class="node">
<title>[root] aws_route_table.private&#45;route&#45;table</title>
<polygon fill="none" stroke="#000000" points="1548.5,-396 1339.5,-396 1339.5,-360 1548.5,-360 1548.5,-396"/>
<text text-anchor="middle" x="1444" y="-374.3" font-family="Times,serif" font-size="14.00" fill="#000000">aws_route_table.private&#45;route&#45;table</text>
</g>
<!-- [root] aws_route_table.private&#45;route&#45;table&#45;&gt;[root] aws_nat_gateway.nat&#45;gw -->
<g id="edge24" class="edge">
<title>[root] aws_route_table.private&#45;route&#45;table&#45;&gt;[root] aws_nat_gateway.nat&#45;gw</title>
<path fill="none" stroke="#000000" d="M1411.9525,-359.8314C1395.558,-350.5368 1375.4214,-339.1208 1357.9171,-329.1971"/>
<polygon fill="#000000" stroke="#000000" points="1359.4626,-326.05 1349.0372,-324.1628 1356.0103,-332.1395 1359.4626,-326.05"/>
</g>
<!-- [root] aws_route_table.public&#45;route&#45;table -->
<g id="node10" class="node">
<title>[root] aws_route_table.public&#45;route&#45;table</title>
<polygon fill="none" stroke="#000000" points="1807,-396 1601,-396 1601,-360 1807,-360 1807,-396"/>
<text text-anchor="middle" x="1704" y="-374.3" font-family="Times,serif" font-size="14.00" fill="#000000">aws_route_table.public&#45;route&#45;table</text>
</g>
<!-- [root] aws_route_table.public&#45;route&#45;table&#45;&gt;[root] aws_internet_gateway.main&#45;igw -->
<g id="edge25" class="edge">
<title>[root] aws_route_table.public&#45;route&#45;table&#45;&gt;[root] aws_internet_gateway.main&#45;igw</title>
<path fill="none" stroke="#000000" d="M1669.8264,-359.9081C1620.4604,-333.7732 1529.2118,-285.4651 1475.2274,-256.8851"/>
<polygon fill="#000000" stroke="#000000" points="1476.7232,-253.7168 1466.2477,-252.1311 1473.448,-259.9033 1476.7232,-253.7168"/>
</g>
<!-- [root] aws_route_table_association.route_association&#45;private&#45;subnet&#45;1a -->
<g id="node11" class="node">
<title>[root] aws_route_table_association.route_association&#45;private&#45;subnet&#45;1a</title>
<polygon fill="none" stroke="#000000" points="1114.5,-468 745.5,-468 745.5,-432 1114.5,-432 1114.5,-468"/>
<text text-anchor="middle" x="930" y="-446.3" font-family="Times,serif" font-size="14.00" fill="#000000">aws_route_table_association.route_association&#45;private&#45;subnet&#45;1a</text>
</g>
<!-- [root] aws_route_table_association.route_association&#45;private&#45;subnet&#45;1a&#45;&gt;[root] aws_route_table.private&#45;route&#45;table -->
<g id="edge26" class="edge">
<title>[root] aws_route_table_association.route_association&#45;private&#45;subnet&#45;1a&#45;&gt;[root] aws_route_table.private&#45;route&#45;table</title>
<path fill="none" stroke="#000000" d="M1070.2285,-431.9583C1144.5557,-422.1911 1237.6625,-409.6345 1329.3389,-396.229"/>
<polygon fill="#000000" stroke="#000000" points="1329.9672,-399.6744 1339.3535,-394.7604 1328.9515,-392.7485 1329.9672,-399.6744"/>
</g>
<!-- [root] aws_route_table_association.route_association&#45;private&#45;subnet&#45;1a&#45;&gt;[root] aws_subnet.private&#45;subnet&#45;1a -->
<g id="edge27" class="edge">
<title>[root] aws_route_table_association.route_association&#45;private&#45;subnet&#45;1a&#45;&gt;[root] aws_subnet.private&#45;subnet&#45;1a</title>
<path fill="none" stroke="#000000" d="M907.7939,-431.8314C896.955,-422.9632 883.7556,-412.1637 872.0322,-402.5718"/>
<polygon fill="#000000" stroke="#000000" points="874.155,-399.7864 864.199,-396.1628 869.7223,-405.2041 874.155,-399.7864"/>
</g>
<!-- [root] aws_route_table_association.route_association&#45;private&#45;subnet&#45;1b -->
<g id="node12" class="node">
<title>[root] aws_route_table_association.route_association&#45;private&#45;subnet&#45;1b</title>
<polygon fill="none" stroke="#000000" points="1503,-468 1133,-468 1133,-432 1503,-432 1503,-468"/>
<text text-anchor="middle" x="1318" y="-446.3" font-family="Times,serif" font-size="14.00" fill="#000000">aws_route_table_association.route_association&#45;private&#45;subnet&#45;1b</text>
</g>
<!-- [root] aws_route_table_association.route_association&#45;private&#45;subnet&#45;1b&#45;&gt;[root] aws_route_table.private&#45;route&#45;table -->
<g id="edge28" class="edge">
<title>[root] aws_route_table_association.route_association&#45;private&#45;subnet&#45;1b&#45;&gt;[root] aws_route_table.private&#45;route&#45;table</title>
<path fill="none" stroke="#000000" d="M1349.7951,-431.8314C1366.0605,-422.5368 1386.0386,-411.1208 1403.4051,-401.1971"/>
<polygon fill="#000000" stroke="#000000" points="1405.2691,-404.1631 1412.2151,-396.1628 1401.7961,-398.0854 1405.2691,-404.1631"/>
</g>
<!-- [root] aws_route_table_association.route_association&#45;private&#45;subnet&#45;1b&#45;&gt;[root] aws_subnet.private&#45;subnet&#45;1b -->
<g id="edge29" class="edge">
<title>[root] aws_route_table_association.route_association&#45;private&#45;subnet&#45;1b&#45;&gt;[root] aws_subnet.private&#45;subnet&#45;1b</title>
<path fill="none" stroke="#000000" d="M1247.9566,-431.9243C1208.7378,-421.8033 1159.6857,-409.1447 1118.9647,-398.6361"/>
<polygon fill="#000000" stroke="#000000" points="1119.6295,-395.193 1109.0722,-396.0831 1117.8804,-401.971 1119.6295,-395.193"/>
</g>
<!-- [root] aws_route_table_association.route_association&#45;public&#45;subnet&#45;1a -->
<g id="node13" class="node">
<title>[root] aws_route_table_association.route_association&#45;public&#45;subnet&#45;1a</title>
<polygon fill="none" stroke="#000000" points="2270.5,-468 1905.5,-468 1905.5,-432 2270.5,-432 2270.5,-468"/>
<text text-anchor="middle" x="2088" y="-446.3" font-family="Times,serif" font-size="14.00" fill="#000000">aws_route_table_association.route_association&#45;public&#45;subnet&#45;1a</text>
</g>
<!-- [root] aws_route_table_association.route_association&#45;public&#45;subnet&#45;1a&#45;&gt;[root] aws_route_table.public&#45;route&#45;table -->
<g id="edge30" class="edge">
<title>[root] aws_route_table_association.route_association&#45;public&#45;subnet&#45;1a&#45;&gt;[root] aws_route_table.public&#45;route&#45;table</title>
<path fill="none" stroke="#000000" d="M1991.5962,-431.9243C1936.3717,-421.5697 1866.981,-408.5589 1810.1965,-397.9118"/>
<polygon fill="#000000" stroke="#000000" points="1810.5841,-394.4236 1800.1103,-396.0207 1809.294,-401.3037 1810.5841,-394.4236"/>
</g>
<!-- [root] aws_route_table_association.route_association&#45;public&#45;subnet&#45;1a&#45;&gt;[root] aws_subnet.public&#45;subnet&#45;1a -->
<g id="edge31" class="edge">
<title>[root] aws_route_table_association.route_association&#45;public&#45;subnet&#45;1a&#45;&gt;[root] aws_subnet.public&#45;subnet&#45;1a</title>
<path fill="none" stroke="#000000" d="M2039.3966,-431.9481C1985.3899,-412.3537 1895.3256,-381.0508 1816,-360 1631.8346,-311.1276 1412.7156,-270.936 1289.2475,-249.8984"/>
<polygon fill="#000000" stroke="#000000" points="1289.509,-246.3928 1279.0643,-248.1698 1288.3375,-253.2941 1289.509,-246.3928"/>
</g>
<!-- [root] aws_route_table_association.route_association&#45;public&#45;subnet&#45;1b -->
<g id="node14" class="node">
<title>[root] aws_route_table_association.route_association&#45;public&#45;subnet&#45;1b</title>
<polygon fill="none" stroke="#000000" points="1887,-468 1521,-468 1521,-432 1887,-432 1887,-468"/>
<text text-anchor="middle" x="1704" y="-446.3" font-family="Times,serif" font-size="14.00" fill="#000000">aws_route_table_association.route_association&#45;public&#45;subnet&#45;1b</text>
</g>
<!-- [root] aws_route_table_association.route_association&#45;public&#45;subnet&#45;1b&#45;&gt;[root] aws_route_table.public&#45;route&#45;table -->
<g id="edge32" class="edge">
<title>[root] aws_route_table_association.route_association&#45;public&#45;subnet&#45;1b&#45;&gt;[root] aws_route_table.public&#45;route&#45;table</title>
<path fill="none" stroke="#000000" d="M1704,-431.8314C1704,-424.131 1704,-414.9743 1704,-406.4166"/>
<polygon fill="#000000" stroke="#000000" points="1707.5001,-406.4132 1704,-396.4133 1700.5001,-406.4133 1707.5001,-406.4132"/>
</g>
<!-- [root] aws_route_table_association.route_association&#45;public&#45;subnet&#45;1b&#45;&gt;[root] aws_subnet.public&#45;subnet&#45;1b -->
<g id="edge33" class="edge">
<title>[root] aws_route_table_association.route_association&#45;public&#45;subnet&#45;1b&#45;&gt;[root] aws_subnet.public&#45;subnet&#45;1b</title>
<path fill="none" stroke="#000000" d="M1570.4415,-431.9739C1501.9641,-422.414 1416.9991,-410.0658 1331.8549,-396.1087"/>
<polygon fill="#000000" stroke="#000000" points="1332.1773,-392.6147 1321.7415,-394.4433 1331.0399,-399.5217 1332.1773,-392.6147"/>
</g>
<!-- [root] aws_security_group.allow&#45;ssh&#45;sg&#45;&gt;[root] aws_vpc.main -->
<g id="edge34" class="edge">
<title>[root] aws_security_group.allow&#45;ssh&#45;sg&#45;&gt;[root] aws_vpc.main</title>
<path fill="none" stroke="#000000" d="M671.2536,-359.9555C747.8186,-320.7659 929.1841,-227.9342 1013.4887,-184.783"/>
<polygon fill="#000000" stroke="#000000" points="1015.2429,-187.817 1022.5499,-180.1451 1012.0535,-181.5858 1015.2429,-187.817"/>
</g>
<!-- [root] aws_subnet.private&#45;subnet&#45;1a&#45;&gt;[root] aws_vpc.main -->
<g id="edge35" class="edge">
<title>[root] aws_subnet.private&#45;subnet&#45;1a&#45;&gt;[root] aws_vpc.main</title>
<path fill="none" stroke="#000000" d="M860.0445,-359.9555C898.4797,-321.5203 988.5116,-231.4884 1032.6705,-187.3295"/>
<polygon fill="#000000" stroke="#000000" points="1035.2587,-189.691 1039.8549,-180.1451 1030.309,-184.7413 1035.2587,-189.691"/>
</g>
<!-- [root] aws_subnet.private&#45;subnet&#45;1b&#45;&gt;[root] aws_vpc.main -->
<g id="edge36" class="edge">
<title>[root] aws_subnet.private&#45;subnet&#45;1b&#45;&gt;[root] aws_vpc.main</title>
<path fill="none" stroke="#000000" d="M1040.5872,-359.9555C1043.8983,-322.3144 1051.5623,-235.1867 1055.5261,-190.1246"/>
<polygon fill="#000000" stroke="#000000" points="1059.0141,-190.4133 1056.4039,-180.1451 1052.041,-189.7999 1059.0141,-190.4133"/>
</g>
<!-- [root] aws_subnet.public&#45;subnet&#45;1a&#45;&gt;[root] aws_vpc.main -->
<g id="edge37" class="edge">
<title>[root] aws_subnet.public&#45;subnet&#45;1a&#45;&gt;[root] aws_vpc.main</title>
<path fill="none" stroke="#000000" d="M1158.1861,-215.8314C1140.7293,-206.4516 1119.2513,-194.9112 1100.6648,-184.9244"/>
<polygon fill="#000000" stroke="#000000" points="1102.2686,-181.8129 1091.803,-180.1628 1098.9554,-187.9792 1102.2686,-181.8129"/>
</g>
<!-- [root] aws_subnet.public&#45;subnet&#45;1b&#45;&gt;[root] aws_vpc.main -->
<g id="edge38" class="edge">
<title>[root] aws_subnet.public&#45;subnet&#45;1b&#45;&gt;[root] aws_vpc.main</title>
<path fill="none" stroke="#000000" d="M1208.2503,-359.9469C1177.9433,-337.5857 1127.7346,-296.9091 1096,-252 1082.5385,-232.95 1072.5734,-208.393 1066.2332,-189.7441"/>
<polygon fill="#000000" stroke="#000000" points="1069.5062,-188.491 1063.0846,-180.064 1062.8495,-190.6562 1069.5062,-188.491"/>
</g>
<!-- [root] aws_vpc.main&#45;&gt;[root] provider.aws -->
<g id="edge39" class="edge">
<title>[root] aws_vpc.main&#45;&gt;[root] provider.aws</title>
<path fill="none" stroke="#000000" d="M1058,-143.8314C1058,-136.131 1058,-126.9743 1058,-118.4166"/>
<polygon fill="#000000" stroke="#000000" points="1061.5001,-118.4132 1058,-108.4133 1054.5001,-118.4133 1061.5001,-118.4132"/>
</g>
<!-- [root] var.ACCESS_KEY_ID -->
<g id="node22" class="node">
<title>[root] var.ACCESS_KEY_ID</title>
<polygon fill="none" stroke="#000000" points="971,-36 833,-36 833,0 977,0 977,-30 971,-36"/>
<polyline fill="none" stroke="#000000" points="971,-36 971,-30 "/>
<polyline fill="none" stroke="#000000" points="977,-30 971,-30 "/>
<text text-anchor="middle" x="905" y="-14.3" font-family="Times,serif" font-size="14.00" fill="#000000">var.ACCESS_KEY_ID</text>
</g>
<!-- [root] provider.aws&#45;&gt;[root] var.ACCESS_KEY_ID -->
<g id="edge56" class="edge">
<title>[root] provider.aws&#45;&gt;[root] var.ACCESS_KEY_ID</title>
<path fill="none" stroke="#000000" d="M1032.0456,-77.7862C1010.405,-67.6024 978.9966,-52.8219 952.8242,-40.5055"/>
<polygon fill="#000000" stroke="#000000" points="953.9848,-37.1836 943.4463,-36.0924 951.0042,-43.5173 953.9848,-37.1836"/>
</g>
<!-- [root] var.AWS_REGION -->
<g id="node23" class="node">
<title>[root] var.AWS_REGION</title>
<polygon fill="none" stroke="#000000" points="1115,-36 995,-36 995,0 1121,0 1121,-30 1115,-36"/>
<polyline fill="none" stroke="#000000" points="1115,-36 1115,-30 "/>
<polyline fill="none" stroke="#000000" points="1121,-30 1115,-30 "/>
<text text-anchor="middle" x="1058" y="-14.3" font-family="Times,serif" font-size="14.00" fill="#000000">var.AWS_REGION</text>
</g>
<!-- [root] provider.aws&#45;&gt;[root] var.AWS_REGION -->
<g id="edge57" class="edge">
<title>[root] provider.aws&#45;&gt;[root] var.AWS_REGION</title>
<path fill="none" stroke="#000000" d="M1058,-71.8314C1058,-64.131 1058,-54.9743 1058,-46.4166"/>
<polygon fill="#000000" stroke="#000000" points="1061.5001,-46.4132 1058,-36.4133 1054.5001,-46.4133 1061.5001,-46.4132"/>
</g>
<!-- [root] var.SECRET_ACCESS_KEY -->
<g id="node25" class="node">
<title>[root] var.SECRET_ACCESS_KEY</title>
<polygon fill="none" stroke="#000000" points="1313,-36 1139,-36 1139,0 1319,0 1319,-30 1313,-36"/>
<polyline fill="none" stroke="#000000" points="1313,-36 1313,-30 "/>
<polyline fill="none" stroke="#000000" points="1319,-30 1313,-30 "/>
<text text-anchor="middle" x="1229" y="-14.3" font-family="Times,serif" font-size="14.00" fill="#000000">var.SECRET_ACCESS_KEY</text>
</g>
<!-- [root] provider.aws&#45;&gt;[root] var.SECRET_ACCESS_KEY -->
<g id="edge58" class="edge">
<title>[root] provider.aws&#45;&gt;[root] var.SECRET_ACCESS_KEY</title>
<path fill="none" stroke="#000000" d="M1085.8547,-78.2717C1110.3634,-67.9522 1146.7011,-52.6522 1176.6311,-40.0501"/>
<polygon fill="#000000" stroke="#000000" points="1178.2422,-43.1694 1186.1004,-36.063 1175.5258,-36.7179 1178.2422,-43.1694"/>
</g>
<!-- [root] meta.count&#45;boundary (EachMode fixup) -->
<g id="node27" class="node">
<title>[root] meta.count&#45;boundary (EachMode fixup)</title>
<ellipse fill="none" stroke="#000000" cx="637" cy="-522" rx="176.5689" ry="18"/>
<text text-anchor="middle" x="637" y="-518.3" font-family="Times,serif" font-size="14.00" fill="#000000">[root] meta.count&#45;boundary (EachMode fixup)</text>
</g>
<!-- [root] meta.count&#45;boundary (EachMode fixup)&#45;&gt;[root] aws_instance.private&#45;vm&#45;1a -->
<g id="edge40" class="edge">
<title>[root] meta.count&#45;boundary (EachMode fixup)&#45;&gt;[root] aws_instance.private&#45;vm&#45;1a</title>
<path fill="none" stroke="#000000" d="M555.3289,-506.0209C498.8811,-494.9767 423.5934,-480.2465 364.3865,-468.6626"/>
<polygon fill="#000000" stroke="#000000" points="364.7652,-465.1704 354.2792,-466.6851 363.421,-472.0401 364.7652,-465.1704"/>
</g>
<!-- [root] meta.count&#45;boundary (EachMode fixup)&#45;&gt;[root] aws_instance.private&#45;vm&#45;1b -->
<g id="edge41" class="edge">
<title>[root] meta.count&#45;boundary (EachMode fixup)&#45;&gt;[root] aws_instance.private&#45;vm&#45;1b</title>
<path fill="none" stroke="#000000" d="M592.967,-504.3868C568.4026,-494.5611 537.5932,-482.2373 511.516,-471.8064"/>
<polygon fill="#000000" stroke="#000000" points="512.7277,-468.5215 502.143,-468.0572 510.1279,-475.0208 512.7277,-468.5215"/>
</g>
<!-- [root] meta.count&#45;boundary (EachMode fixup)&#45;&gt;[root] aws_instance.public&#45;vm&#45;1a -->
<g id="edge42" class="edge">
<title>[root] meta.count&#45;boundary (EachMode fixup)&#45;&gt;[root] aws_instance.public&#45;vm&#45;1a</title>
<path fill="none" stroke="#000000" d="M508.1883,-509.6241C417.8554,-500.3108 294.0887,-486.284 176.128,-468.1165"/>
<polygon fill="#000000" stroke="#000000" points="176.6127,-464.6499 166.1942,-466.5745 175.5389,-471.5671 176.6127,-464.6499"/>
</g>
<!-- [root] meta.count&#45;boundary (EachMode fixup)&#45;&gt;[root] aws_instance.public&#45;vm&#45;1b -->
<g id="edge43" class="edge">
<title>[root] meta.count&#45;boundary (EachMode fixup)&#45;&gt;[root] aws_instance.public&#45;vm&#45;1b</title>
<path fill="none" stroke="#000000" d="M638.7664,-503.8314C639.515,-496.131 640.4053,-486.9743 641.2373,-478.4166"/>
<polygon fill="#000000" stroke="#000000" points="644.7256,-478.7051 642.2098,-468.4133 637.7585,-478.0276 644.7256,-478.7051"/>
</g>
<!-- [root] meta.count&#45;boundary (EachMode fixup)&#45;&gt;[root] aws_route_table_association.route_association&#45;private&#45;subnet&#45;1a -->
<g id="edge44" class="edge">
<title>[root] meta.count&#45;boundary (EachMode fixup)&#45;&gt;[root] aws_route_table_association.route_association&#45;private&#45;subnet&#45;1a</title>
<path fill="none" stroke="#000000" d="M704.9565,-505.3008C747.1558,-494.931 801.6993,-481.5278 846.5198,-470.5139"/>
<polygon fill="#000000" stroke="#000000" points="847.6369,-473.8436 856.5128,-468.0583 845.9664,-467.0458 847.6369,-473.8436"/>
</g>
<!-- [root] meta.count&#45;boundary (EachMode fixup)&#45;&gt;[root] aws_route_table_association.route_association&#45;private&#45;subnet&#45;1b -->
<g id="edge45" class="edge">
<title>[root] meta.count&#45;boundary (EachMode fixup)&#45;&gt;[root] aws_route_table_association.route_association&#45;private&#45;subnet&#45;1b</title>
<path fill="none" stroke="#000000" d="M759.9296,-509.003C865.2935,-497.8632 1018.4834,-481.667 1137.72,-469.0604"/>
<polygon fill="#000000" stroke="#000000" points="1138.1173,-472.538 1147.6938,-468.0059 1137.3812,-465.5768 1138.1173,-472.538"/>
</g>
<!-- [root] meta.count&#45;boundary (EachMode fixup)&#45;&gt;[root] aws_route_table_association.route_association&#45;public&#45;subnet&#45;1a -->
<g id="edge46" class="edge">
<title>[root] meta.count&#45;boundary (EachMode fixup)&#45;&gt;[root] aws_route_table_association.route_association&#45;public&#45;subnet&#45;1a</title>
<path fill="none" stroke="#000000" d="M759.7235,-509.0204C780.8111,-507.1061 802.5234,-505.333 823,-504 1295.7782,-473.2232 1418.0784,-497.9276 1895.0894,-468.0313"/>
<polygon fill="#000000" stroke="#000000" points="1895.5883,-471.5069 1905.3478,-467.3834 1895.147,-464.5208 1895.5883,-471.5069"/>
</g>
<!-- [root] meta.count&#45;boundary (EachMode fixup)&#45;&gt;[root] aws_route_table_association.route_association&#45;public&#45;subnet&#45;1b -->
<g id="edge47" class="edge">
<title>[root] meta.count&#45;boundary (EachMode fixup)&#45;&gt;[root] aws_route_table_association.route_association&#45;public&#45;subnet&#45;1b</title>
<path fill="none" stroke="#000000" d="M761.4977,-509.1835C782.0313,-507.2905 803.103,-505.4818 823,-504 1125.5082,-481.4706 1204.4843,-490.1241 1510.7748,-468.0711"/>
<polygon fill="#000000" stroke="#000000" points="1511.113,-471.5559 1520.8337,-467.3418 1510.6067,-464.5742 1511.113,-471.5559"/>
</g>
<!-- [root] provider.aws (close) -->
<g id="node28" class="node">
<title>[root] provider.aws (close)</title>
<ellipse fill="none" stroke="#000000" cx="937" cy="-522" rx="105.0817" ry="18"/>
<text text-anchor="middle" x="937" y="-518.3" font-family="Times,serif" font-size="14.00" fill="#000000">[root] provider.aws (close)</text>
</g>
<!-- [root] provider.aws (close)&#45;&gt;[root] aws_instance.private&#45;vm&#45;1a -->
<g id="edge48" class="edge">
<title>[root] provider.aws (close)&#45;&gt;[root] aws_instance.private&#45;vm&#45;1a</title>
<path fill="none" stroke="#000000" d="M861.9969,-509.3C849.0173,-507.3478 835.6359,-505.4897 823,-504 622.6225,-480.3768 567.9911,-494.8421 364.364,-468.0977"/>
<polygon fill="#000000" stroke="#000000" points="364.6126,-464.6 354.2383,-466.7502 363.6892,-471.5389 364.6126,-464.6"/>
</g>
<!-- [root] provider.aws (close)&#45;&gt;[root] aws_instance.private&#45;vm&#45;1b -->
<g id="edge49" class="edge">
<title>[root] provider.aws (close)&#45;&gt;[root] aws_instance.private&#45;vm&#45;1b</title>
<path fill="none" stroke="#000000" d="M860.388,-509.634C847.8999,-507.6958 835.0958,-505.7551 823,-504 705.5026,-486.9511 673.072,-487.436 552.0465,-468.1206"/>
<polygon fill="#000000" stroke="#000000" points="552.4445,-464.6397 542.0155,-466.507 551.3327,-471.5508 552.4445,-464.6397"/>
</g>
<!-- [root] provider.aws (close)&#45;&gt;[root] aws_instance.public&#45;vm&#45;1a -->
<g id="edge50" class="edge">
<title>[root] provider.aws (close)&#45;&gt;[root] aws_instance.public&#45;vm&#45;1a</title>
<path fill="none" stroke="#000000" d="M862.9435,-509.1942C849.6744,-507.2176 835.9508,-505.3786 823,-504 539.5376,-473.8256 463.0027,-503.0751 176.4451,-468.0757"/>
<polygon fill="#000000" stroke="#000000" points="176.5162,-464.5579 166.162,-466.8034 175.6565,-471.5049 176.5162,-464.5579"/>
</g>
<!-- [root] provider.aws (close)&#45;&gt;[root] aws_instance.public&#45;vm&#45;1b -->
<g id="edge51" class="edge">
<title>[root] provider.aws (close)&#45;&gt;[root] aws_instance.public&#45;vm&#45;1b</title>
<path fill="none" stroke="#000000" d="M876.6455,-507.1689C833.5577,-496.5807 775.0503,-482.2035 727.4891,-470.5161"/>
<polygon fill="#000000" stroke="#000000" points="728.062,-467.0528 717.5156,-468.0653 726.3915,-473.8506 728.062,-467.0528"/>
</g>
<!-- [root] provider.aws (close)&#45;&gt;[root] aws_route_table_association.route_association&#45;private&#45;subnet&#45;1a -->
<g id="edge52" class="edge">
<title>[root] provider.aws (close)&#45;&gt;[root] aws_route_table_association.route_association&#45;private&#45;subnet&#45;1a</title>
<path fill="none" stroke="#000000" d="M935.2336,-503.8314C934.485,-496.131 933.5947,-486.9743 932.7627,-478.4166"/>
<polygon fill="#000000" stroke="#000000" points="936.2415,-478.0276 931.7902,-468.4133 929.2744,-478.7051 936.2415,-478.0276"/>
</g>
<!-- [root] provider.aws (close)&#45;&gt;[root] aws_route_table_association.route_association&#45;private&#45;subnet&#45;1b -->
<g id="edge53" class="edge">
<title>[root] provider.aws (close)&#45;&gt;[root] aws_route_table_association.route_association&#45;private&#45;subnet&#45;1b</title>
<path fill="none" stroke="#000000" d="M1007.7703,-508.6261C1065.2887,-497.7565 1147.2968,-482.2589 1212.5512,-469.9273"/>
<polygon fill="#000000" stroke="#000000" points="1213.2865,-473.3504 1222.4626,-468.0543 1211.9866,-466.4722 1213.2865,-473.3504"/>
</g>
<!-- [root] provider.aws (close)&#45;&gt;[root] aws_route_table_association.route_association&#45;public&#45;subnet&#45;1a -->
<g id="edge54" class="edge">
<title>[root] provider.aws (close)&#45;&gt;[root] aws_route_table_association.route_association&#45;public&#45;subnet&#45;1a</title>
<path fill="none" stroke="#000000" d="M1039.2711,-517.4933C1212.8098,-509.5688 1576.2904,-491.7731 1894.9755,-468.0602"/>
<polygon fill="#000000" stroke="#000000" points="1895.6297,-471.5212 1905.341,-467.2856 1895.108,-464.5406 1895.6297,-471.5212"/>
</g>
<!-- [root] provider.aws (close)&#45;&gt;[root] aws_route_table_association.route_association&#45;public&#45;subnet&#45;1b -->
<g id="edge55" class="edge">
<title>[root] provider.aws (close)&#45;&gt;[root] aws_route_table_association.route_association&#45;public&#45;subnet&#45;1b</title>
<path fill="none" stroke="#000000" d="M1029.5181,-513.3151C1148.1375,-502.1801 1356.8577,-482.587 1510.7904,-468.137"/>
<polygon fill="#000000" stroke="#000000" points="1511.2198,-471.6122 1520.8489,-467.1928 1510.5655,-464.6428 1511.2198,-471.6122"/>
</g>
<!-- [root] provisioner.local&#45;exec (close) -->
<g id="node29" class="node">
<title>[root] provisioner.local&#45;exec (close)</title>
<ellipse fill="none" stroke="#000000" cx="304" cy="-522" rx="137.5759" ry="18"/>
<text text-anchor="middle" x="304" y="-518.3" font-family="Times,serif" font-size="14.00" fill="#000000">[root] provisioner.local&#45;exec (close)</text>
</g>
<!-- [root] provisioner.local&#45;exec (close)&#45;&gt;[root] aws_instance.private&#45;vm&#45;1a -->
<g id="edge59" class="edge">
<title>[root] provisioner.local&#45;exec (close)&#45;&gt;[root] aws_instance.private&#45;vm&#45;1a</title>
<path fill="none" stroke="#000000" d="M295.168,-503.8314C291.3014,-495.8771 286.6794,-486.369 282.4032,-477.5723"/>
<polygon fill="#000000" stroke="#000000" points="285.4707,-475.8768 277.9509,-468.4133 279.1751,-478.9371 285.4707,-475.8768"/>
</g>
<!-- [root] provisioner.local&#45;exec (close)&#45;&gt;[root] aws_instance.private&#45;vm&#45;1b -->
<g id="edge60" class="edge">
<title>[root] provisioner.local&#45;exec (close)&#45;&gt;[root] aws_instance.private&#45;vm&#45;1b</title>
<path fill="none" stroke="#000000" d="M341.037,-504.5708C361.6212,-494.8841 387.4546,-482.7272 409.5111,-472.3477"/>
<polygon fill="#000000" stroke="#000000" points="411.1484,-475.4455 418.7062,-468.0206 408.1677,-469.1118 411.1484,-475.4455"/>
</g>
<!-- [root] provisioner.local&#45;exec (close)&#45;&gt;[root] aws_instance.public&#45;vm&#45;1a -->
<g id="edge61" class="edge">
<title>[root] provisioner.local&#45;exec (close)&#45;&gt;[root] aws_instance.public&#45;vm&#45;1a</title>
<path fill="none" stroke="#000000" d="M252.4642,-505.2101C221.3529,-495.0742 181.4224,-482.0652 148.137,-471.2211"/>
<polygon fill="#000000" stroke="#000000" points="149.0814,-467.8478 138.4891,-468.0779 146.913,-474.5035 149.0814,-467.8478"/>
</g>
<!-- [root] provisioner.local&#45;exec (close)&#45;&gt;[root] aws_instance.public&#45;vm&#45;1b -->
<g id="edge62" class="edge">
<title>[root] provisioner.local&#45;exec (close)&#45;&gt;[root] aws_instance.public&#45;vm&#45;1b</title>
<path fill="none" stroke="#000000" d="M376.5215,-506.6425C427.1952,-495.9116 495.3219,-481.4848 550.1375,-469.8768"/>
<polygon fill="#000000" stroke="#000000" points="551.1527,-473.2395 560.2107,-467.7436 549.7025,-466.3913 551.1527,-473.2395"/>
</g>
<!-- [root] root -->
<g id="node30" class="node">
<title>[root] root</title>
<ellipse fill="none" stroke="#000000" cx="637" cy="-594" rx="47.3916" ry="18"/>
<text text-anchor="middle" x="637" y="-590.3" font-family="Times,serif" font-size="14.00" fill="#000000">[root] root</text>
</g>
<!-- [root] root&#45;&gt;[root] meta.count&#45;boundary (EachMode fixup) -->
<g id="edge63" class="edge">
<title>[root] root&#45;&gt;[root] meta.count&#45;boundary (EachMode fixup)</title>
<path fill="none" stroke="#000000" d="M637,-575.8314C637,-568.131 637,-558.9743 637,-550.4166"/>
<polygon fill="#000000" stroke="#000000" points="640.5001,-550.4132 637,-540.4133 633.5001,-550.4133 640.5001,-550.4132"/>
</g>
<!-- [root] root&#45;&gt;[root] provider.aws (close) -->
<g id="edge64" class="edge">
<title>[root] root&#45;&gt;[root] provider.aws (close)</title>
<path fill="none" stroke="#000000" d="M677.148,-584.3645C725.2951,-572.8092 806.8675,-553.2318 865.7903,-539.0903"/>
<polygon fill="#000000" stroke="#000000" points="866.8712,-542.4304 875.7783,-536.6932 865.2376,-535.6237 866.8712,-542.4304"/>
</g>
<!-- [root] root&#45;&gt;[root] provisioner.local&#45;exec (close) -->
<g id="edge65" class="edge">
<title>[root] root&#45;&gt;[root] provisioner.local&#45;exec (close)</title>
<path fill="none" stroke="#000000" d="M595.4986,-585.0267C543.1775,-573.7141 452.0482,-554.0104 385.5779,-539.6385"/>
<polygon fill="#000000" stroke="#000000" points="386.0585,-536.1616 375.5447,-537.4691 384.5791,-543.0035 386.0585,-536.1616"/>
</g>
</g>
</svg>
